<?xml version="1.0" encoding="utf-8" standalone="no"?>
<!DOCTYPE svg PUBLIC "-//W3C//DTD SVG 1.1//EN"
  "http://www.w3.org/Graphics/SVG/1.1/DTD/svg11.dtd">
<svg xmlns:xlink="http://www.w3.org/1999/xlink" width="720pt" height="576pt" viewBox="0 0 720 576" xmlns="http://www.w3.org/2000/svg" version="1.1">
 <metadata>
  <rdf:RDF xmlns:dc="http://purl.org/dc/elements/1.1/" xmlns:cc="http://creativecommons.org/ns#" xmlns:rdf="http://www.w3.org/1999/02/22-rdf-syntax-ns#">
   <cc:Work>
    <dc:type rdf:resource="http://purl.org/dc/dcmitype/StillImage"/>
    <dc:date>2026-05-27T19:59:25.750079</dc:date>
    <dc:format>image/svg+xml</dc:format>
    <dc:creator>
     <cc:Agent>
      <dc:title>Matplotlib v3.10.8, https://matplotlib.org/</dc:title>
     </cc:Agent>
    </dc:creator>
   </cc:Work>
  </rdf:RDF>
 </metadata>
 <defs>
  <style type="text/css">*{stroke-linejoin: round; stroke-linecap: butt}</style>
 </defs>
 <g id="figure_1">
  <g id="patch_1">
   <path d="M 0 576 
L 720 576 
L 720 0 
L 0 0 
z
" style="fill: #f1e9d6"/>
  </g>
  <g id="axes_1">
   <g id="patch_2">
    <path d="M 54.02 548.12 
L 709.2 548.12 
L 709.2 26.16 
L 54.02 26.16 
z
" style="fill: #fbf7eb"/>
   </g>
   <g id="PathCollection_1">
    <defs>
     <path id="C0_0_d74d6e84b4" d="M 0 2.645751 
C 0.701661 2.645751 1.374679 2.366978 1.870829 1.870829 
C 2.366978 1.374679 2.645751 0.701661 2.645751 -0 
C 2.645751 -0.701661 2.366978 -1.374679 1.870829 -1.870829 
C 1.374679 -2.366978 0.701661 -2.645751 0 -2.645751 
C -0.701661 -2.645751 -1.374679 -2.366978 -1.870829 -1.870829 
C -2.366978 -1.374679 -2.645751 -0.701661 -2.645751 0 
C -2.645751 0.701661 -2.366978 1.374679 -1.870829 1.870829 
C -1.374679 2.366978 -0.701661 2.645751 0 2.645751 
z
"/>
    </defs>
    <g clip-path="url(#pe0b657c07f)">
     <use xlink:href="#C0_0_d74d6e84b4" x="107.142703" y="39.209" style="fill: #7a1f2b; stroke: #7a1f2b"/>
    </g>
    <g clip-path="url(#pe0b657c07f)">
     <use xlink:href="#C0_0_d74d6e84b4" x="461.294054" y="91.405" style="fill: #2d5a3d; stroke: #2d5a3d"/>
    </g>
   </g>
   <g id="PathCollection_2">
    <defs>
     <path id="C1_0_3a19629b76" d="M 0 2.645751 
C 0.701661 2.645751 1.374679 2.366978 1.870829 1.870829 
C 2.366978 1.374679 2.645751 0.701661 2.645751 -0 
C 2.645751 -0.701661 2.366978 -1.374679 1.870829 -1.870829 
C 1.374679 -2.366978 0.701661 -2.645751 0 -2.645751 
C -0.701661 -2.645751 -1.374679 -2.366978 -1.870829 -1.870829 
C -2.366978 -1.374679 -2.645751 -0.701661 -2.645751 0 
C -2.645751 0.701661 -2.366978 1.374679 -1.870829 1.870829 
C -1.374679 2.366978 -0.701661 2.645751 0 2.645751 
z
"/>
    </defs>
    <g clip-path="url(#pe0b657c07f)">
     <use xlink:href="#C1_0_3a19629b76" x="107.142703" y="65.307" style="fill: #7a1f2b; stroke: #7a1f2b"/>
    </g>
    <g clip-path="url(#pe0b657c07f)">
     <use xlink:href="#C1_0_3a19629b76" x="461.294054" y="39.209" style="fill: #2d5a3d; stroke: #2d5a3d"/>
    </g>
   </g>
   <g id="PathCollection_3">
    <defs>
     <path id="C2_0_e27d08e13b" d="M 0 2.645751 
C 0.701661 2.645751 1.374679 2.366978 1.870829 1.870829 
C 2.366978 1.374679 2.645751 0.701661 2.645751 -0 
C 2.645751 -0.701661 2.366978 -1.374679 1.870829 -1.870829 
C 1.374679 -2.366978 0.701661 -2.645751 0 -2.645751 
C -0.701661 -2.645751 -1.374679 -2.366978 -1.870829 -1.870829 
C -2.366978 -1.374679 -2.645751 -0.701661 -2.645751 0 
C -2.645751 0.701661 -2.366978 1.374679 -1.870829 1.870829 
C -1.374679 2.366978 -0.701661 2.645751 0 2.645751 
z
"/>
    </defs>
    <g clip-path="url(#pe0b657c07f)">
     <use xlink:href="#C2_0_e27d08e13b" x="107.142703" y="91.405" style="fill: #7a1f2b; stroke: #7a1f2b"/>
    </g>
    <g clip-path="url(#pe0b657c07f)">
     <use xlink:href="#C2_0_e27d08e13b" x="461.294054" y="156.65" style="fill: #2d5a3d; stroke: #2d5a3d"/>
    </g>
   </g>
   <g id="PathCollection_4">
    <defs>
     <path id="C3_0_9ba7a2ce0b" d="M 0 2.645751 
C 0.701661 2.645751 1.374679 2.366978 1.870829 1.870829 
C 2.366978 1.374679 2.645751 0.701661 2.645751 -0 
C 2.645751 -0.701661 2.366978 -1.374679 1.870829 -1.870829 
C 1.374679 -2.366978 0.701661 -2.645751 0 -2.645751 
C -0.701661 -2.645751 -1.374679 -2.366978 -1.870829 -1.870829 
C -2.366978 -1.374679 -2.645751 -0.701661 -2.645751 0 
C -2.645751 0.701661 -2.366978 1.374679 -1.870829 1.870829 
C -1.374679 2.366978 -0.701661 2.645751 0 2.645751 
z
"/>
    </defs>
    <g clip-path="url(#pe0b657c07f)">
     <use xlink:href="#C3_0_9ba7a2ce0b" x="107.142703" y="117.503" style="fill: #7a1f2b; stroke: #7a1f2b"/>
    </g>
    <g clip-path="url(#pe0b657c07f)">
     <use xlink:href="#C3_0_9ba7a2ce0b" x="461.294054" y="234.944" style="fill: #2d5a3d; stroke: #2d5a3d"/>
    </g>
   </g>
   <g id="PathCollection_5">
    <defs>
     <path id="C4_0_a62b83f9a7" d="M 0 2.645751 
C 0.701661 2.645751 1.374679 2.366978 1.870829 1.870829 
C 2.366978 1.374679 2.645751 0.701661 2.645751 -0 
C 2.645751 -0.701661 2.366978 -1.374679 1.870829 -1.870829 
C 1.374679 -2.366978 0.701661 -2.645751 0 -2.645751 
C -0.701661 -2.645751 -1.374679 -2.366978 -1.870829 -1.870829 
C -2.366978 -1.374679 -2.645751 -0.701661 -2.645751 0 
C -2.645751 0.701661 -2.366978 1.374679 -1.870829 1.870829 
C -1.374679 2.366978 -0.701661 2.645751 0 2.645751 
z
"/>
    </defs>
    <g clip-path="url(#pe0b657c07f)">
     <use xlink:href="#C4_0_a62b83f9a7" x="107.142703" y="143.601" style="fill: #7a1f2b; stroke: #7a1f2b"/>
    </g>
    <g clip-path="url(#pe0b657c07f)">
     <use xlink:href="#C4_0_a62b83f9a7" x="461.294054" y="313.238" style="fill: #2d5a3d; stroke: #2d5a3d"/>
    </g>
   </g>
   <g id="PathCollection_6">
    <defs>
     <path id="C5_0_8cfcb0e724" d="M 0 2.645751 
C 0.701661 2.645751 1.374679 2.366978 1.870829 1.870829 
C 2.366978 1.374679 2.645751 0.701661 2.645751 -0 
C 2.645751 -0.701661 2.366978 -1.374679 1.870829 -1.870829 
C 1.374679 -2.366978 0.701661 -2.645751 0 -2.645751 
C -0.701661 -2.645751 -1.374679 -2.366978 -1.870829 -1.870829 
C -2.366978 -1.374679 -2.645751 -0.701661 -2.645751 0 
C -2.645751 0.701661 -2.366978 1.374679 -1.870829 1.870829 
C -1.374679 2.366978 -0.701661 2.645751 0 2.645751 
z
"/>
    </defs>
    <g clip-path="url(#pe0b657c07f)">
     <use xlink:href="#C5_0_8cfcb0e724" x="107.142703" y="169.699" style="fill: #7a1f2b; stroke: #7a1f2b"/>
    </g>
    <g clip-path="url(#pe0b657c07f)">
     <use xlink:href="#C5_0_8cfcb0e724" x="461.294054" y="117.503" style="fill: #2d5a3d; stroke: #2d5a3d"/>
    </g>
   </g>
   <g id="PathCollection_7">
    <defs>
     <path id="C6_0_bb41905294" d="M 0 2.645751 
C 0.701661 2.645751 1.374679 2.366978 1.870829 1.870829 
C 2.366978 1.374679 2.645751 0.701661 2.645751 -0 
C 2.645751 -0.701661 2.366978 -1.374679 1.870829 -1.870829 
C 1.374679 -2.366978 0.701661 -2.645751 0 -2.645751 
C -0.701661 -2.645751 -1.374679 -2.366978 -1.870829 -1.870829 
C -2.366978 -1.374679 -2.645751 -0.701661 -2.645751 0 
C -2.645751 0.701661 -2.366978 1.374679 -1.870829 1.870829 
C -1.374679 2.366978 -0.701661 2.645751 0 2.645751 
z
"/>
    </defs>
    <g clip-path="url(#pe0b657c07f)">
     <use xlink:href="#C6_0_bb41905294" x="107.142703" y="195.797" style="fill: #7a1f2b; stroke: #7a1f2b"/>
    </g>
    <g clip-path="url(#pe0b657c07f)">
     <use xlink:href="#C6_0_bb41905294" x="461.294054" y="65.307" style="fill: #2d5a3d; stroke: #2d5a3d"/>
    </g>
   </g>
   <g id="PathCollection_8">
    <defs>
     <path id="C7_0_b098e3cacb" d="M 0 2.645751 
C 0.701661 2.645751 1.374679 2.366978 1.870829 1.870829 
C 2.366978 1.374679 2.645751 0.701661 2.645751 -0 
C 2.645751 -0.701661 2.366978 -1.374679 1.870829 -1.870829 
C 1.374679 -2.366978 0.701661 -2.645751 0 -2.645751 
C -0.701661 -2.645751 -1.374679 -2.366978 -1.870829 -1.870829 
C -2.366978 -1.374679 -2.645751 -0.701661 -2.645751 0 
C -2.645751 0.701661 -2.366978 1.374679 -1.870829 1.870829 
C -1.374679 2.366978 -0.701661 2.645751 0 2.645751 
z
"/>
    </defs>
    <g clip-path="url(#pe0b657c07f)">
     <use xlink:href="#C7_0_b098e3cacb" x="107.142703" y="221.895" style="fill: #7a1f2b; stroke: #7a1f2b"/>
    </g>
    <g clip-path="url(#pe0b657c07f)">
     <use xlink:href="#C7_0_b098e3cacb" x="461.294054" y="274.091" style="fill: #2d5a3d; stroke: #2d5a3d"/>
    </g>
   </g>
   <g id="PathCollection_9">
    <defs>
     <path id="C8_0_9114e406d6" d="M 0 2.645751 
C 0.701661 2.645751 1.374679 2.366978 1.870829 1.870829 
C 2.366978 1.374679 2.645751 0.701661 2.645751 -0 
C 2.645751 -0.701661 2.366978 -1.374679 1.870829 -1.870829 
C 1.374679 -2.366978 0.701661 -2.645751 0 -2.645751 
C -0.701661 -2.645751 -1.374679 -2.366978 -1.870829 -1.870829 
C -2.366978 -1.374679 -2.645751 -0.701661 -2.645751 0 
C -2.645751 0.701661 -2.366978 1.374679 -1.870829 1.870829 
C -1.374679 2.366978 -0.701661 2.645751 0 2.645751 
z
"/>
    </defs>
    <g clip-path="url(#pe0b657c07f)">
     <use xlink:href="#C8_0_9114e406d6" x="107.142703" y="247.993" style="fill: #7a1f2b; stroke: #7a1f2b"/>
    </g>
    <g clip-path="url(#pe0b657c07f)">
     <use xlink:href="#C8_0_9114e406d6" x="461.294054" y="313.238" style="fill: #2d5a3d; stroke: #2d5a3d"/>
    </g>
   </g>
   <g id="PathCollection_10">
    <defs>
     <path id="C9_0_38e8e7f31e" d="M 0 2.645751 
C 0.701661 2.645751 1.374679 2.366978 1.870829 1.870829 
C 2.366978 1.374679 2.645751 0.701661 2.645751 -0 
C 2.645751 -0.701661 2.366978 -1.374679 1.870829 -1.870829 
C 1.374679 -2.366978 0.701661 -2.645751 0 -2.645751 
C -0.701661 -2.645751 -1.374679 -2.366978 -1.870829 -1.870829 
C -2.366978 -1.374679 -2.645751 -0.701661 -2.645751 0 
C -2.645751 0.701661 -2.366978 1.374679 -1.870829 1.870829 
C -1.374679 2.366978 -0.701661 2.645751 0 2.645751 
z
"/>
    </defs>
    <g clip-path="url(#pe0b657c07f)">
     <use xlink:href="#C9_0_38e8e7f31e" x="107.142703" y="287.14" style="fill: #7a1f2b; stroke: #7a1f2b"/>
    </g>
    <g clip-path="url(#pe0b657c07f)">
     <use xlink:href="#C9_0_38e8e7f31e" x="461.294054" y="195.797" style="fill: #2d5a3d; stroke: #2d5a3d"/>
    </g>
   </g>
   <g id="PathCollection_11">
    <defs>
     <path id="Ca_0_5f8450aaac" d="M 0 2.645751 
C 0.701661 2.645751 1.374679 2.366978 1.870829 1.870829 
C 2.366978 1.374679 2.645751 0.701661 2.645751 -0 
C 2.645751 -0.701661 2.366978 -1.374679 1.870829 -1.870829 
C 1.374679 -2.366978 0.701661 -2.645751 0 -2.645751 
C -0.701661 -2.645751 -1.374679 -2.366978 -1.870829 -1.870829 
C -2.366978 -1.374679 -2.645751 -0.701661 -2.645751 0 
C -2.645751 0.701661 -2.366978 1.374679 -1.870829 1.870829 
C -1.374679 2.366978 -0.701661 2.645751 0 2.645751 
z
"/>
    </defs>
    <g clip-path="url(#pe0b657c07f)">
     <use xlink:href="#Ca_0_5f8450aaac" x="107.142703" y="287.14" style="fill: #7a1f2b; stroke: #7a1f2b"/>
    </g>
    <g clip-path="url(#pe0b657c07f)">
     <use xlink:href="#Ca_0_5f8450aaac" x="461.294054" y="156.65" style="fill: #2d5a3d; stroke: #2d5a3d"/>
    </g>
   </g>
   <g id="PathCollection_12">
    <defs>
     <path id="Cb_0_caa779332a" d="M 0 2.645751 
C 0.701661 2.645751 1.374679 2.366978 1.870829 1.870829 
C 2.366978 1.374679 2.645751 0.701661 2.645751 -0 
C 2.645751 -0.701661 2.366978 -1.374679 1.870829 -1.870829 
C 1.374679 -2.366978 0.701661 -2.645751 0 -2.645751 
C -0.701661 -2.645751 -1.374679 -2.366978 -1.870829 -1.870829 
C -2.366978 -1.374679 -2.645751 -0.701661 -2.645751 0 
C -2.645751 0.701661 -2.366978 1.374679 -1.870829 1.870829 
C -1.374679 2.366978 -0.701661 2.645751 0 2.645751 
z
"/>
    </defs>
    <g clip-path="url(#pe0b657c07f)">
     <use xlink:href="#Cb_0_caa779332a" x="107.142703" y="326.287" style="fill: #7a1f2b; stroke: #7a1f2b"/>
    </g>
    <g clip-path="url(#pe0b657c07f)">
     <use xlink:href="#Cb_0_caa779332a" x="461.294054" y="365.434" style="fill: #2d5a3d; stroke: #2d5a3d"/>
    </g>
   </g>
   <g id="PathCollection_13">
    <defs>
     <path id="Cc_0_f0d8f107f3" d="M 0 2.645751 
C 0.701661 2.645751 1.374679 2.366978 1.870829 1.870829 
C 2.366978 1.374679 2.645751 0.701661 2.645751 -0 
C 2.645751 -0.701661 2.366978 -1.374679 1.870829 -1.870829 
C 1.374679 -2.366978 0.701661 -2.645751 0 -2.645751 
C -0.701661 -2.645751 -1.374679 -2.366978 -1.870829 -1.870829 
C -2.366978 -1.374679 -2.645751 -0.701661 -2.645751 0 
C -2.645751 0.701661 -2.366978 1.374679 -1.870829 1.870829 
C -1.374679 2.366978 -0.701661 2.645751 0 2.645751 
z
"/>
    </defs>
    <g clip-path="url(#pe0b657c07f)">
     <use xlink:href="#Cc_0_f0d8f107f3" x="107.142703" y="352.385" style="fill: #7a1f2b; stroke: #7a1f2b"/>
    </g>
    <g clip-path="url(#pe0b657c07f)">
     <use xlink:href="#Cc_0_f0d8f107f3" x="461.294054" y="417.63" style="fill: #2d5a3d; stroke: #2d5a3d"/>
    </g>
   </g>
   <g id="PathCollection_14">
    <defs>
     <path id="Cd_0_ade2efd48f" d="M 0 2.645751 
C 0.701661 2.645751 1.374679 2.366978 1.870829 1.870829 
C 2.366978 1.374679 2.645751 0.701661 2.645751 -0 
C 2.645751 -0.701661 2.366978 -1.374679 1.870829 -1.870829 
C 1.374679 -2.366978 0.701661 -2.645751 0 -2.645751 
C -0.701661 -2.645751 -1.374679 -2.366978 -1.870829 -1.870829 
C -2.366978 -1.374679 -2.645751 -0.701661 -2.645751 0 
C -2.645751 0.701661 -2.366978 1.374679 -1.870829 1.870829 
C -1.374679 2.366978 -0.701661 2.645751 0 2.645751 
z
"/>
    </defs>
    <g clip-path="url(#pe0b657c07f)">
     <use xlink:href="#Cd_0_ade2efd48f" x="107.142703" y="378.483" style="fill: #7a1f2b; stroke: #7a1f2b"/>
    </g>
    <g clip-path="url(#pe0b657c07f)">
     <use xlink:href="#Cd_0_ade2efd48f" x="461.294054" y="365.434" style="fill: #2d5a3d; stroke: #2d5a3d"/>
    </g>
   </g>
   <g id="PathCollection_15">
    <defs>
     <path id="Ce_0_e881640174" d="M 0 2.645751 
C 0.701661 2.645751 1.374679 2.366978 1.870829 1.870829 
C 2.366978 1.374679 2.645751 0.701661 2.645751 -0 
C 2.645751 -0.701661 2.366978 -1.374679 1.870829 -1.870829 
C 1.374679 -2.366978 0.701661 -2.645751 0 -2.645751 
C -0.701661 -2.645751 -1.374679 -2.366978 -1.870829 -1.870829 
C -2.366978 -1.374679 -2.645751 -0.701661 -2.645751 0 
C -2.645751 0.701661 -2.366978 1.374679 -1.870829 1.870829 
C -1.374679 2.366978 -0.701661 2.645751 0 2.645751 
z
"/>
    </defs>
    <g clip-path="url(#pe0b657c07f)">
     <use xlink:href="#Ce_0_e881640174" x="107.142703" y="404.581" style="fill: #7a1f2b; stroke: #7a1f2b"/>
    </g>
    <g clip-path="url(#pe0b657c07f)">
     <use xlink:href="#Ce_0_e881640174" x="461.294054" y="234.944" style="fill: #2d5a3d; stroke: #2d5a3d"/>
    </g>
   </g>
   <g id="PathCollection_16">
    <defs>
     <path id="Cf_0_2a9c125545" d="M 0 2.645751 
C 0.701661 2.645751 1.374679 2.366978 1.870829 1.870829 
C 2.366978 1.374679 2.645751 0.701661 2.645751 -0 
C 2.645751 -0.701661 2.366978 -1.374679 1.870829 -1.870829 
C 1.374679 -2.366978 0.701661 -2.645751 0 -2.645751 
C -0.701661 -2.645751 -1.374679 -2.366978 -1.870829 -1.870829 
C -2.366978 -1.374679 -2.645751 -0.701661 -2.645751 0 
C -2.645751 0.701661 -2.366978 1.374679 -1.870829 1.870829 
C -1.374679 2.366978 -0.701661 2.645751 0 2.645751 
z
"/>
    </defs>
    <g clip-path="url(#pe0b657c07f)">
     <use xlink:href="#Cf_0_2a9c125545" x="107.142703" y="430.679" style="fill: #7a1f2b; stroke: #7a1f2b"/>
    </g>
    <g clip-path="url(#pe0b657c07f)">
     <use xlink:href="#Cf_0_2a9c125545" x="461.294054" y="456.777" style="fill: #2d5a3d; stroke: #2d5a3d"/>
    </g>
   </g>
   <g id="PathCollection_17">
    <defs>
     <path id="C10_0_657c0fbac0" d="M 0 2.645751 
C 0.701661 2.645751 1.374679 2.366978 1.870829 1.870829 
C 2.366978 1.374679 2.645751 0.701661 2.645751 -0 
C 2.645751 -0.701661 2.366978 -1.374679 1.870829 -1.870829 
C 1.374679 -2.366978 0.701661 -2.645751 0 -2.645751 
C -0.701661 -2.645751 -1.374679 -2.366978 -1.870829 -1.870829 
C -2.366978 -1.374679 -2.645751 -0.701661 -2.645751 0 
C -2.645751 0.701661 -2.366978 1.374679 -1.870829 1.870829 
C -1.374679 2.366978 -0.701661 2.645751 0 2.645751 
z
"/>
    </defs>
    <g clip-path="url(#pe0b657c07f)">
     <use xlink:href="#C10_0_657c0fbac0" x="107.142703" y="456.777" style="fill: #7a1f2b; stroke: #7a1f2b"/>
    </g>
    <g clip-path="url(#pe0b657c07f)">
     <use xlink:href="#C10_0_657c0fbac0" x="461.294054" y="417.63" style="fill: #2d5a3d; stroke: #2d5a3d"/>
    </g>
   </g>
   <g id="PathCollection_18">
    <defs>
     <path id="C11_0_eb22cfb8c9" d="M 0 2.645751 
C 0.701661 2.645751 1.374679 2.366978 1.870829 1.870829 
C 2.366978 1.374679 2.645751 0.701661 2.645751 -0 
C 2.645751 -0.701661 2.366978 -1.374679 1.870829 -1.870829 
C 1.374679 -2.366978 0.701661 -2.645751 0 -2.645751 
C -0.701661 -2.645751 -1.374679 -2.366978 -1.870829 -1.870829 
C -2.366978 -1.374679 -2.645751 -0.701661 -2.645751 0 
C -2.645751 0.701661 -2.366978 1.374679 -1.870829 1.870829 
C -1.374679 2.366978 -0.701661 2.645751 0 2.645751 
z
"/>
    </defs>
    <g clip-path="url(#pe0b657c07f)">
     <use xlink:href="#C11_0_eb22cfb8c9" x="107.142703" y="482.875" style="fill: #7a1f2b; stroke: #7a1f2b"/>
    </g>
    <g clip-path="url(#pe0b657c07f)">
     <use xlink:href="#C11_0_eb22cfb8c9" x="461.294054" y="508.973" style="fill: #2d5a3d; stroke: #2d5a3d"/>
    </g>
   </g>
   <g id="PathCollection_19">
    <defs>
     <path id="C12_0_0df26f4c9a" d="M 0 2.645751 
C 0.701661 2.645751 1.374679 2.366978 1.870829 1.870829 
C 2.366978 1.374679 2.645751 0.701661 2.645751 -0 
C 2.645751 -0.701661 2.366978 -1.374679 1.870829 -1.870829 
C 1.374679 -2.366978 0.701661 -2.645751 0 -2.645751 
C -0.701661 -2.645751 -1.374679 -2.366978 -1.870829 -1.870829 
C -2.366978 -1.374679 -2.645751 -0.701661 -2.645751 0 
C -2.645751 0.701661 -2.366978 1.374679 -1.870829 1.870829 
C -1.374679 2.366978 -0.701661 2.645751 0 2.645751 
z
"/>
    </defs>
    <g clip-path="url(#pe0b657c07f)">
     <use xlink:href="#C12_0_0df26f4c9a" x="107.142703" y="508.973" style="fill: #7a1f2b; stroke: #7a1f2b"/>
    </g>
    <g clip-path="url(#pe0b657c07f)">
     <use xlink:href="#C12_0_0df26f4c9a" x="461.294054" y="535.071" style="fill: #2d5a3d; stroke: #2d5a3d"/>
    </g>
   </g>
   <g id="PathCollection_20">
    <defs>
     <path id="C13_0_77f399e002" d="M 0 2.645751 
C 0.701661 2.645751 1.374679 2.366978 1.870829 1.870829 
C 2.366978 1.374679 2.645751 0.701661 2.645751 -0 
C 2.645751 -0.701661 2.366978 -1.374679 1.870829 -1.870829 
C 1.374679 -2.366978 0.701661 -2.645751 0 -2.645751 
C -0.701661 -2.645751 -1.374679 -2.366978 -1.870829 -1.870829 
C -2.366978 -1.374679 -2.645751 -0.701661 -2.645751 0 
C -2.645751 0.701661 -2.366978 1.374679 -1.870829 1.870829 
C -1.374679 2.366978 -0.701661 2.645751 0 2.645751 
z
"/>
    </defs>
    <g clip-path="url(#pe0b657c07f)">
     <use xlink:href="#C13_0_77f399e002" x="107.142703" y="535.071" style="fill: #7a1f2b; stroke: #7a1f2b"/>
    </g>
    <g clip-path="url(#pe0b657c07f)">
     <use xlink:href="#C13_0_77f399e002" x="461.294054" y="482.875" style="fill: #2d5a3d; stroke: #2d5a3d"/>
    </g>
   </g>
   <g id="matplotlib.axis_1">
    <g id="xtick_1">
     <g id="line2d_1">
      <defs>
       <path id="m44f51a822b" d="M 0 0 
L 0 3.5 
" style="stroke: #000000; stroke-width: 0.8"/>
      </defs>
      <g>
       <use xlink:href="#m44f51a822b" x="107.142703" y="548.12" style="stroke: #000000; stroke-width: 0.8"/>
      </g>
     </g>
     <g id="text_1">
      <!-- 1968 -->
      <g transform="translate(94.417703 562.718437) scale(0.1 -0.1)">
       <defs>
        <path id="DejaVuSerif-31" d="M 909 0 
L 909 331 
L 1722 331 
L 1722 4213 
L 781 3603 
L 781 4013 
L 1919 4750 
L 2350 4750 
L 2350 331 
L 3163 331 
L 3163 0 
L 909 0 
z
" transform="scale(0.015625)"/>
        <path id="DejaVuSerif-39" d="M 2994 2091 
Q 2784 1856 2512 1740 
Q 2241 1625 1900 1625 
Q 1206 1625 804 2044 
Q 403 2463 403 3188 
Q 403 3897 839 4323 
Q 1275 4750 2003 4750 
Q 2794 4750 3217 4161 
Q 3641 3572 3641 2478 
Q 3641 1253 3137 581 
Q 2634 -91 1722 -91 
Q 1475 -91 1203 -44 
Q 931 3 647 97 
L 647 872 
L 997 872 
Q 1038 556 1241 387 
Q 1444 219 1784 219 
Q 2391 219 2687 676 
Q 2984 1134 2994 2091 
z
M 1978 4441 
Q 1534 4441 1298 4117 
Q 1063 3794 1063 3188 
Q 1063 2581 1298 2256 
Q 1534 1931 1978 1931 
Q 2422 1931 2658 2245 
Q 2894 2559 2894 3150 
Q 2894 3772 2656 4106 
Q 2419 4441 1978 4441 
z
" transform="scale(0.015625)"/>
        <path id="DejaVuSerif-36" d="M 2094 219 
Q 2534 219 2771 542 
Q 3009 866 3009 1472 
Q 3009 2078 2771 2401 
Q 2534 2725 2094 2725 
Q 1647 2725 1412 2412 
Q 1178 2100 1178 1509 
Q 1178 888 1415 553 
Q 1653 219 2094 219 
z
M 1075 2569 
Q 1288 2803 1556 2918 
Q 1825 3034 2163 3034 
Q 2859 3034 3264 2615 
Q 3669 2197 3669 1472 
Q 3669 763 3233 336 
Q 2797 -91 2069 -91 
Q 1278 -91 853 498 
Q 428 1088 428 2181 
Q 428 3406 931 4078 
Q 1434 4750 2350 4750 
Q 2597 4750 2869 4703 
Q 3141 4656 3425 4563 
L 3425 3794 
L 3072 3794 
Q 3034 4109 2831 4275 
Q 2628 4441 2284 4441 
Q 1678 4441 1381 3981 
Q 1084 3522 1075 2569 
z
" transform="scale(0.015625)"/>
        <path id="DejaVuSerif-38" d="M 2981 1275 
Q 2981 1775 2732 2051 
Q 2484 2328 2034 2328 
Q 1584 2328 1336 2051 
Q 1088 1775 1088 1275 
Q 1088 772 1336 495 
Q 1584 219 2034 219 
Q 2484 219 2732 495 
Q 2981 772 2981 1275 
z
M 2853 3541 
Q 2853 3966 2637 4203 
Q 2422 4441 2034 4441 
Q 1650 4441 1433 4203 
Q 1216 3966 1216 3541 
Q 1216 3113 1433 2875 
Q 1650 2638 2034 2638 
Q 2422 2638 2637 2875 
Q 2853 3113 2853 3541 
z
M 2516 2484 
Q 3047 2413 3344 2092 
Q 3641 1772 3641 1275 
Q 3641 619 3225 264 
Q 2809 -91 2034 -91 
Q 1263 -91 845 264 
Q 428 619 428 1275 
Q 428 1772 725 2092 
Q 1022 2413 1556 2484 
Q 1084 2569 832 2842 
Q 581 3116 581 3541 
Q 581 4103 968 4426 
Q 1356 4750 2034 4750 
Q 2713 4750 3100 4426 
Q 3488 4103 3488 3541 
Q 3488 3116 3236 2842 
Q 2984 2569 2516 2484 
z
" transform="scale(0.015625)"/>
       </defs>
       <use xlink:href="#DejaVuSerif-31"/>
       <use xlink:href="#DejaVuSerif-39" transform="translate(63.623047 0)"/>
       <use xlink:href="#DejaVuSerif-36" transform="translate(127.246094 0)"/>
       <use xlink:href="#DejaVuSerif-38" transform="translate(190.869141 0)"/>
      </g>
     </g>
    </g>
    <g id="xtick_2">
     <g id="line2d_2">
      <g>
       <use xlink:href="#m44f51a822b" x="461.294054" y="548.12" style="stroke: #000000; stroke-width: 0.8"/>
      </g>
     </g>
     <g id="text_2">
      <!-- 2022 -->
      <g transform="translate(448.569054 562.718437) scale(0.1 -0.1)">
       <defs>
        <path id="DejaVuSerif-32" d="M 819 3553 
L 469 3553 
L 469 4384 
Q 803 4563 1142 4656 
Q 1481 4750 1806 4750 
Q 2534 4750 2956 4397 
Q 3378 4044 3378 3438 
Q 3378 2753 2422 1800 
Q 2347 1728 2309 1691 
L 1131 513 
L 3078 513 
L 3078 1088 
L 3444 1088 
L 3444 0 
L 434 0 
L 434 341 
L 1850 1753 
Q 2319 2222 2519 2614 
Q 2719 3006 2719 3438 
Q 2719 3909 2473 4175 
Q 2228 4441 1797 4441 
Q 1350 4441 1106 4219 
Q 863 3997 819 3553 
z
" transform="scale(0.015625)"/>
        <path id="DejaVuSerif-30" d="M 2034 219 
Q 2513 219 2750 744 
Q 2988 1269 2988 2328 
Q 2988 3391 2750 3916 
Q 2513 4441 2034 4441 
Q 1556 4441 1318 3916 
Q 1081 3391 1081 2328 
Q 1081 1269 1318 744 
Q 1556 219 2034 219 
z
M 2034 -91 
Q 1275 -91 848 546 
Q 422 1184 422 2328 
Q 422 3475 848 4112 
Q 1275 4750 2034 4750 
Q 2797 4750 3222 4112 
Q 3647 3475 3647 2328 
Q 3647 1184 3222 546 
Q 2797 -91 2034 -91 
z
" transform="scale(0.015625)"/>
       </defs>
       <use xlink:href="#DejaVuSerif-32"/>
       <use xlink:href="#DejaVuSerif-30" transform="translate(63.623047 0)"/>
       <use xlink:href="#DejaVuSerif-32" transform="translate(127.246094 0)"/>
       <use xlink:href="#DejaVuSerif-32" transform="translate(190.869141 0)"/>
      </g>
     </g>
    </g>
   </g>
   <g id="matplotlib.axis_2">
    <g id="ytick_1">
     <g id="line2d_3">
      <defs>
       <path id="m3e7f39e8d1" d="M 0 0 
L -3.5 0 
" style="stroke: #000000; stroke-width: 0.8"/>
      </defs>
      <g>
       <use xlink:href="#m3e7f39e8d1" x="54.02" y="78.356" style="stroke: #000000; stroke-width: 0.8"/>
      </g>
     </g>
     <g id="text_3">
      <!-- 2.5 -->
      <g transform="translate(31.116875 82.155219) scale(0.1 -0.1)">
       <defs>
        <path id="DejaVuSerif-2e" d="M 603 325 
Q 603 500 722 622 
Q 841 744 1019 744 
Q 1191 744 1312 622 
Q 1434 500 1434 325 
Q 1434 153 1312 31 
Q 1191 -91 1019 -91 
Q 841 -91 722 29 
Q 603 150 603 325 
z
" transform="scale(0.015625)"/>
        <path id="DejaVuSerif-35" d="M 3219 4666 
L 3219 4153 
L 1081 4153 
L 1081 2816 
Q 1244 2928 1461 2984 
Q 1678 3041 1947 3041 
Q 2703 3041 3140 2622 
Q 3578 2203 3578 1478 
Q 3578 738 3136 323 
Q 2694 -91 1894 -91 
Q 1572 -91 1234 -12 
Q 897 66 544 225 
L 544 1131 
L 897 1131 
Q 925 688 1179 453 
Q 1434 219 1894 219 
Q 2388 219 2653 544 
Q 2919 869 2919 1478 
Q 2919 2084 2655 2407 
Q 2391 2731 1894 2731 
Q 1613 2731 1398 2631 
Q 1184 2531 1019 2322 
L 750 2322 
L 750 4666 
L 3219 4666 
z
" transform="scale(0.015625)"/>
       </defs>
       <use xlink:href="#DejaVuSerif-32"/>
       <use xlink:href="#DejaVuSerif-2e" transform="translate(63.623047 0)"/>
       <use xlink:href="#DejaVuSerif-35" transform="translate(95.410156 0)"/>
      </g>
     </g>
    </g>
    <g id="ytick_2">
     <g id="line2d_4">
      <g>
       <use xlink:href="#m3e7f39e8d1" x="54.02" y="143.601" style="stroke: #000000; stroke-width: 0.8"/>
      </g>
     </g>
     <g id="text_4">
      <!-- 5.0 -->
      <g transform="translate(31.116875 147.400219) scale(0.1 -0.1)">
       <use xlink:href="#DejaVuSerif-35"/>
       <use xlink:href="#DejaVuSerif-2e" transform="translate(63.623047 0)"/>
       <use xlink:href="#DejaVuSerif-30" transform="translate(95.410156 0)"/>
      </g>
     </g>
    </g>
    <g id="ytick_3">
     <g id="line2d_5">
      <g>
       <use xlink:href="#m3e7f39e8d1" x="54.02" y="208.846" style="stroke: #000000; stroke-width: 0.8"/>
      </g>
     </g>
     <g id="text_5">
      <!-- 7.5 -->
      <g transform="translate(31.116875 212.645219) scale(0.1 -0.1)">
       <defs>
        <path id="DejaVuSerif-37" d="M 3609 4347 
L 1784 0 
L 1319 0 
L 3059 4153 
L 903 4153 
L 903 3578 
L 538 3578 
L 538 4666 
L 3609 4666 
L 3609 4347 
z
" transform="scale(0.015625)"/>
       </defs>
       <use xlink:href="#DejaVuSerif-37"/>
       <use xlink:href="#DejaVuSerif-2e" transform="translate(63.623047 0)"/>
       <use xlink:href="#DejaVuSerif-35" transform="translate(95.410156 0)"/>
      </g>
     </g>
    </g>
    <g id="ytick_4">
     <g id="line2d_6">
      <g>
       <use xlink:href="#m3e7f39e8d1" x="54.02" y="274.091" style="stroke: #000000; stroke-width: 0.8"/>
      </g>
     </g>
     <g id="text_6">
      <!-- 10.0 -->
      <g transform="translate(24.754375 277.890219) scale(0.1 -0.1)">
       <use xlink:href="#DejaVuSerif-31"/>
       <use xlink:href="#DejaVuSerif-30" transform="translate(63.623047 0)"/>
       <use xlink:href="#DejaVuSerif-2e" transform="translate(127.246094 0)"/>
       <use xlink:href="#DejaVuSerif-30" transform="translate(159.033203 0)"/>
      </g>
     </g>
    </g>
    <g id="ytick_5">
     <g id="line2d_7">
      <g>
       <use xlink:href="#m3e7f39e8d1" x="54.02" y="339.336" style="stroke: #000000; stroke-width: 0.8"/>
      </g>
     </g>
     <g id="text_7">
      <!-- 12.5 -->
      <g transform="translate(24.754375 343.135219) scale(0.1 -0.1)">
       <use xlink:href="#DejaVuSerif-31"/>
       <use xlink:href="#DejaVuSerif-32" transform="translate(63.623047 0)"/>
       <use xlink:href="#DejaVuSerif-2e" transform="translate(127.246094 0)"/>
       <use xlink:href="#DejaVuSerif-35" transform="translate(159.033203 0)"/>
      </g>
     </g>
    </g>
    <g id="ytick_6">
     <g id="line2d_8">
      <g>
       <use xlink:href="#m3e7f39e8d1" x="54.02" y="404.581" style="stroke: #000000; stroke-width: 0.8"/>
      </g>
     </g>
     <g id="text_8">
      <!-- 15.0 -->
      <g transform="translate(24.754375 408.380219) scale(0.1 -0.1)">
       <use xlink:href="#DejaVuSerif-31"/>
       <use xlink:href="#DejaVuSerif-35" transform="translate(63.623047 0)"/>
       <use xlink:href="#DejaVuSerif-2e" transform="translate(127.246094 0)"/>
       <use xlink:href="#DejaVuSerif-30" transform="translate(159.033203 0)"/>
      </g>
     </g>
    </g>
    <g id="ytick_7">
     <g id="line2d_9">
      <g>
       <use xlink:href="#m3e7f39e8d1" x="54.02" y="469.826" style="stroke: #000000; stroke-width: 0.8"/>
      </g>
     </g>
     <g id="text_9">
      <!-- 17.5 -->
      <g transform="translate(24.754375 473.625219) scale(0.1 -0.1)">
       <use xlink:href="#DejaVuSerif-31"/>
       <use xlink:href="#DejaVuSerif-37" transform="translate(63.623047 0)"/>
       <use xlink:href="#DejaVuSerif-2e" transform="translate(127.246094 0)"/>
       <use xlink:href="#DejaVuSerif-35" transform="translate(159.033203 0)"/>
      </g>
     </g>
    </g>
    <g id="ytick_8">
     <g id="line2d_10">
      <g>
       <use xlink:href="#m3e7f39e8d1" x="54.02" y="535.071" style="stroke: #000000; stroke-width: 0.8"/>
      </g>
     </g>
     <g id="text_10">
      <!-- 20.0 -->
      <g transform="translate(24.754375 538.870219) scale(0.1 -0.1)">
       <use xlink:href="#DejaVuSerif-32"/>
       <use xlink:href="#DejaVuSerif-30" transform="translate(63.623047 0)"/>
       <use xlink:href="#DejaVuSerif-2e" transform="translate(127.246094 0)"/>
       <use xlink:href="#DejaVuSerif-30" transform="translate(159.033203 0)"/>
      </g>
     </g>
    </g>
    <g id="text_11">
     <!-- Rank (1 = least crowded / best) -->
     <g transform="translate(18.674688 367.430625) rotate(-90) scale(0.1 -0.1)">
      <defs>
       <path id="DejaVuSerif-52" d="M 3066 2316 
Q 3284 2256 3442 2114 
Q 3600 1972 3725 1716 
L 4403 331 
L 4972 331 
L 4972 0 
L 3872 0 
L 3144 1484 
Q 2934 1916 2759 2042 
Q 2584 2169 2278 2169 
L 1581 2169 
L 1581 331 
L 2241 331 
L 2241 0 
L 353 0 
L 353 331 
L 947 331 
L 947 4331 
L 353 4331 
L 353 4666 
L 2719 4666 
Q 3400 4666 3770 4341 
Q 4141 4016 4141 3419 
Q 4141 2938 3870 2661 
Q 3600 2384 3066 2316 
z
M 1581 2503 
L 2503 2503 
Q 2975 2503 3200 2726 
Q 3425 2950 3425 3419 
Q 3425 3888 3200 4109 
Q 2975 4331 2503 4331 
L 1581 4331 
L 1581 2503 
z
" transform="scale(0.015625)"/>
       <path id="DejaVuSerif-61" d="M 2547 1044 
L 2547 1747 
L 1806 1747 
Q 1378 1747 1168 1562 
Q 959 1378 959 997 
Q 959 650 1171 447 
Q 1384 244 1747 244 
Q 2106 244 2326 466 
Q 2547 688 2547 1044 
z
M 3122 2075 
L 3122 331 
L 3634 331 
L 3634 0 
L 2547 0 
L 2547 359 
Q 2356 128 2106 18 
Q 1856 -91 1522 -91 
Q 969 -91 644 203 
Q 319 497 319 997 
Q 319 1513 691 1797 
Q 1063 2081 1741 2081 
L 2547 2081 
L 2547 2309 
Q 2547 2688 2317 2895 
Q 2088 3103 1672 3103 
Q 1328 3103 1125 2947 
Q 922 2791 872 2484 
L 575 2484 
L 575 3156 
Q 875 3284 1158 3348 
Q 1441 3413 1709 3413 
Q 2400 3413 2761 3070 
Q 3122 2728 3122 2075 
z
" transform="scale(0.015625)"/>
       <path id="DejaVuSerif-6e" d="M 263 0 
L 263 331 
L 781 331 
L 781 2988 
L 231 2988 
L 231 3322 
L 1356 3322 
L 1356 2731 
Q 1516 3069 1770 3241 
Q 2025 3413 2363 3413 
Q 2913 3413 3172 3097 
Q 3431 2781 3431 2113 
L 3431 331 
L 3944 331 
L 3944 0 
L 2356 0 
L 2356 331 
L 2853 331 
L 2853 1931 
Q 2853 2541 2703 2767 
Q 2553 2994 2175 2994 
Q 1775 2994 1565 2701 
Q 1356 2409 1356 1850 
L 1356 331 
L 1856 331 
L 1856 0 
L 263 0 
z
" transform="scale(0.015625)"/>
       <path id="DejaVuSerif-6b" d="M 1831 0 
L 219 0 
L 219 331 
L 738 331 
L 738 4531 
L 184 4531 
L 184 4863 
L 1313 4863 
L 1313 1697 
L 2713 2988 
L 2234 2988 
L 2234 3322 
L 3738 3322 
L 3738 2988 
L 3169 2988 
L 2181 2075 
L 3444 331 
L 3922 331 
L 3922 0 
L 2284 0 
L 2284 331 
L 2759 331 
L 1766 1697 
L 1313 1275 
L 1313 331 
L 1831 331 
L 1831 0 
z
" transform="scale(0.015625)"/>
       <path id="DejaVuSerif-20" transform="scale(0.015625)"/>
       <path id="DejaVuSerif-28" d="M 2041 -997 
Q 1281 -656 893 83 
Q 506 822 506 1931 
Q 506 3044 893 3783 
Q 1281 4522 2041 4863 
L 2041 4556 
Q 1559 4225 1350 3623 
Q 1141 3022 1141 1931 
Q 1141 844 1350 242 
Q 1559 -359 2041 -691 
L 2041 -997 
z
" transform="scale(0.015625)"/>
       <path id="DejaVuSerif-3d" d="M 678 2894 
L 4684 2894 
L 4684 2394 
L 678 2394 
L 678 2894 
z
M 678 1619 
L 4684 1619 
L 4684 1119 
L 678 1119 
L 678 1619 
z
" transform="scale(0.015625)"/>
       <path id="DejaVuSerif-6c" d="M 1313 331 
L 1856 331 
L 1856 0 
L 184 0 
L 184 331 
L 738 331 
L 738 4531 
L 184 4531 
L 184 4863 
L 1313 4863 
L 1313 331 
z
" transform="scale(0.015625)"/>
       <path id="DejaVuSerif-65" d="M 3469 1600 
L 991 1600 
L 991 1575 
Q 991 903 1244 561 
Q 1497 219 1991 219 
Q 2369 219 2611 417 
Q 2853 616 2950 1006 
L 3413 1006 
Q 3275 459 2904 184 
Q 2534 -91 1931 -91 
Q 1203 -91 761 389 
Q 319 869 319 1663 
Q 319 2450 753 2931 
Q 1188 3413 1894 3413 
Q 2647 3413 3050 2948 
Q 3453 2484 3469 1600 
z
M 2791 1931 
Q 2772 2513 2545 2808 
Q 2319 3103 1894 3103 
Q 1497 3103 1269 2806 
Q 1041 2509 991 1931 
L 2791 1931 
z
" transform="scale(0.015625)"/>
       <path id="DejaVuSerif-73" d="M 359 184 
L 359 959 
L 691 959 
Q 703 588 923 403 
Q 1144 219 1575 219 
Q 1963 219 2166 364 
Q 2369 509 2369 788 
Q 2369 1006 2220 1140 
Q 2072 1275 1594 1428 
L 1178 1569 
Q 750 1706 558 1912 
Q 366 2119 366 2438 
Q 366 2894 700 3153 
Q 1034 3413 1625 3413 
Q 1888 3413 2178 3344 
Q 2469 3275 2778 3144 
L 2778 2419 
L 2447 2419 
Q 2434 2741 2221 2922 
Q 2009 3103 1644 3103 
Q 1281 3103 1095 2975 
Q 909 2847 909 2591 
Q 909 2381 1050 2254 
Q 1191 2128 1613 1997 
L 2069 1856 
Q 2541 1709 2748 1489 
Q 2956 1269 2956 922 
Q 2956 450 2595 179 
Q 2234 -91 1600 -91 
Q 1278 -91 972 -22 
Q 666 47 359 184 
z
" transform="scale(0.015625)"/>
       <path id="DejaVuSerif-74" d="M 691 2988 
L 184 2988 
L 184 3322 
L 691 3322 
L 691 4353 
L 1269 4353 
L 1269 3322 
L 2350 3322 
L 2350 2988 
L 1269 2988 
L 1269 878 
Q 1269 456 1350 337 
Q 1431 219 1650 219 
Q 1875 219 1978 351 
Q 2081 484 2088 781 
L 2522 781 
Q 2497 328 2275 118 
Q 2053 -91 1600 -91 
Q 1103 -91 897 129 
Q 691 350 691 878 
L 691 2988 
z
" transform="scale(0.015625)"/>
       <path id="DejaVuSerif-63" d="M 3291 997 
Q 3169 466 2822 187 
Q 2475 -91 1925 -91 
Q 1200 -91 759 389 
Q 319 869 319 1663 
Q 319 2459 759 2936 
Q 1200 3413 1925 3413 
Q 2241 3413 2553 3339 
Q 2866 3266 3181 3116 
L 3181 2266 
L 2847 2266 
Q 2781 2703 2561 2903 
Q 2341 3103 1931 3103 
Q 1466 3103 1228 2742 
Q 991 2381 991 1663 
Q 991 944 1227 581 
Q 1463 219 1931 219 
Q 2303 219 2525 412 
Q 2747 606 2828 997 
L 3291 997 
z
" transform="scale(0.015625)"/>
       <path id="DejaVuSerif-72" d="M 3059 3328 
L 3059 2497 
L 2728 2497 
Q 2713 2744 2591 2866 
Q 2469 2988 2234 2988 
Q 1809 2988 1582 2694 
Q 1356 2400 1356 1850 
L 1356 331 
L 2022 331 
L 2022 0 
L 263 0 
L 263 331 
L 781 331 
L 781 2994 
L 231 2994 
L 231 3322 
L 1356 3322 
L 1356 2731 
Q 1525 3078 1790 3245 
Q 2056 3413 2438 3413 
Q 2578 3413 2733 3391 
Q 2888 3369 3059 3328 
z
" transform="scale(0.015625)"/>
       <path id="DejaVuSerif-6f" d="M 1925 219 
Q 2388 219 2623 584 
Q 2859 950 2859 1663 
Q 2859 2375 2623 2739 
Q 2388 3103 1925 3103 
Q 1463 3103 1227 2739 
Q 991 2375 991 1663 
Q 991 950 1228 584 
Q 1466 219 1925 219 
z
M 1925 -91 
Q 1200 -91 759 389 
Q 319 869 319 1663 
Q 319 2456 758 2934 
Q 1197 3413 1925 3413 
Q 2653 3413 3092 2934 
Q 3531 2456 3531 1663 
Q 3531 869 3092 389 
Q 2653 -91 1925 -91 
z
" transform="scale(0.015625)"/>
       <path id="DejaVuSerif-77" d="M 3072 3322 
L 3922 728 
L 4672 2988 
L 4191 2988 
L 4191 3322 
L 5394 3322 
L 5394 2988 
L 5025 2988 
L 4038 0 
L 3559 0 
L 2741 2484 
L 1919 0 
L 1459 0 
L 475 2988 
L 103 2988 
L 103 3322 
L 1606 3322 
L 1606 2988 
L 1069 2988 
L 1813 728 
L 2669 3322 
L 3072 3322 
z
" transform="scale(0.015625)"/>
       <path id="DejaVuSerif-64" d="M 3359 331 
L 3909 331 
L 3909 0 
L 2784 0 
L 2784 519 
Q 2616 206 2355 57 
Q 2094 -91 1709 -91 
Q 1097 -91 708 395 
Q 319 881 319 1663 
Q 319 2444 706 2928 
Q 1094 3413 1709 3413 
Q 2094 3413 2355 3264 
Q 2616 3116 2784 2803 
L 2784 4531 
L 2241 4531 
L 2241 4863 
L 3359 4863 
L 3359 331 
z
M 2784 1497 
L 2784 1825 
Q 2784 2422 2554 2737 
Q 2325 3053 1888 3053 
Q 1444 3053 1217 2703 
Q 991 2353 991 1663 
Q 991 975 1217 622 
Q 1444 269 1888 269 
Q 2325 269 2554 583 
Q 2784 897 2784 1497 
z
" transform="scale(0.015625)"/>
       <path id="DejaVuSerif-2f" d="M 1656 4666 
L 2156 4666 
L 500 -594 
L 0 -594 
L 1656 4666 
z
" transform="scale(0.015625)"/>
       <path id="DejaVuSerif-62" d="M 738 331 
L 738 4531 
L 184 4531 
L 184 4863 
L 1313 4863 
L 1313 2803 
Q 1481 3116 1742 3264 
Q 2003 3413 2388 3413 
Q 3000 3413 3387 2928 
Q 3775 2444 3775 1663 
Q 3775 881 3387 395 
Q 3000 -91 2388 -91 
Q 2003 -91 1742 57 
Q 1481 206 1313 519 
L 1313 0 
L 184 0 
L 184 331 
L 738 331 
z
M 1313 1497 
Q 1313 897 1542 583 
Q 1772 269 2209 269 
Q 2650 269 2876 622 
Q 3103 975 3103 1663 
Q 3103 2353 2876 2703 
Q 2650 3053 2209 3053 
Q 1772 3053 1542 2737 
Q 1313 2422 1313 1825 
L 1313 1497 
z
" transform="scale(0.015625)"/>
       <path id="DejaVuSerif-29" d="M 453 -997 
L 453 -691 
Q 934 -359 1145 242 
Q 1356 844 1356 1931 
Q 1356 3022 1145 3623 
Q 934 4225 453 4556 
L 453 4863 
Q 1216 4522 1603 3783 
Q 1991 3044 1991 1931 
Q 1991 822 1603 83 
Q 1216 -656 453 -997 
z
" transform="scale(0.015625)"/>
      </defs>
      <use xlink:href="#DejaVuSerif-52"/>
      <use xlink:href="#DejaVuSerif-61" transform="translate(77.542969 0)"/>
      <use xlink:href="#DejaVuSerif-6e" transform="translate(137.162109 0)"/>
      <use xlink:href="#DejaVuSerif-6b" transform="translate(201.566406 0)"/>
      <use xlink:href="#DejaVuSerif-20" transform="translate(262.162109 0)"/>
      <use xlink:href="#DejaVuSerif-28" transform="translate(293.949219 0)"/>
      <use xlink:href="#DejaVuSerif-31" transform="translate(332.962891 0)"/>
      <use xlink:href="#DejaVuSerif-20" transform="translate(396.585938 0)"/>
      <use xlink:href="#DejaVuSerif-3d" transform="translate(428.373047 0)"/>
      <use xlink:href="#DejaVuSerif-20" transform="translate(512.162109 0)"/>
      <use xlink:href="#DejaVuSerif-6c" transform="translate(543.949219 0)"/>
      <use xlink:href="#DejaVuSerif-65" transform="translate(575.931641 0)"/>
      <use xlink:href="#DejaVuSerif-61" transform="translate(635.111328 0)"/>
      <use xlink:href="#DejaVuSerif-73" transform="translate(694.730469 0)"/>
      <use xlink:href="#DejaVuSerif-74" transform="translate(746.048828 0)"/>
      <use xlink:href="#DejaVuSerif-20" transform="translate(786.234375 0)"/>
      <use xlink:href="#DejaVuSerif-63" transform="translate(818.021484 0)"/>
      <use xlink:href="#DejaVuSerif-72" transform="translate(874.027344 0)"/>
      <use xlink:href="#DejaVuSerif-6f" transform="translate(921.830078 0)"/>
      <use xlink:href="#DejaVuSerif-77" transform="translate(982.035156 0)"/>
      <use xlink:href="#DejaVuSerif-64" transform="translate(1067.630859 0)"/>
      <use xlink:href="#DejaVuSerif-65" transform="translate(1131.644531 0)"/>
      <use xlink:href="#DejaVuSerif-64" transform="translate(1190.824219 0)"/>
      <use xlink:href="#DejaVuSerif-20" transform="translate(1254.837891 0)"/>
      <use xlink:href="#DejaVuSerif-2f" transform="translate(1286.625 0)"/>
      <use xlink:href="#DejaVuSerif-20" transform="translate(1320.316406 0)"/>
      <use xlink:href="#DejaVuSerif-62" transform="translate(1352.103516 0)"/>
      <use xlink:href="#DejaVuSerif-65" transform="translate(1416.117188 0)"/>
      <use xlink:href="#DejaVuSerif-73" transform="translate(1475.296875 0)"/>
      <use xlink:href="#DejaVuSerif-74" transform="translate(1526.615234 0)"/>
      <use xlink:href="#DejaVuSerif-29" transform="translate(1566.800781 0)"/>
     </g>
    </g>
   </g>
   <g id="line2d_11">
    <path d="M 107.142703 39.209 
L 461.294054 91.405 
" clip-path="url(#pe0b657c07f)" style="fill: none; stroke: #6b5d48; stroke-opacity: 0.55; stroke-width: 1.2; stroke-linecap: square"/>
   </g>
   <g id="line2d_12">
    <path d="M 107.142703 65.307 
L 461.294054 39.209 
" clip-path="url(#pe0b657c07f)" style="fill: none; stroke: #6b5d48; stroke-opacity: 0.55; stroke-width: 1.2; stroke-linecap: square"/>
   </g>
   <g id="line2d_13">
    <path d="M 107.142703 91.405 
L 461.294054 156.65 
" clip-path="url(#pe0b657c07f)" style="fill: none; stroke: #6b5d48; stroke-opacity: 0.55; stroke-width: 1.2; stroke-linecap: square"/>
   </g>
   <g id="line2d_14">
    <path d="M 107.142703 117.503 
L 461.294054 234.944 
" clip-path="url(#pe0b657c07f)" style="fill: none; stroke: #6b5d48; stroke-opacity: 0.55; stroke-width: 1.2; stroke-linecap: square"/>
   </g>
   <g id="line2d_15">
    <path d="M 107.142703 143.601 
L 461.294054 313.238 
" clip-path="url(#pe0b657c07f)" style="fill: none; stroke: #6b5d48; stroke-opacity: 0.55; stroke-width: 1.2; stroke-linecap: square"/>
   </g>
   <g id="line2d_16">
    <path d="M 107.142703 169.699 
L 461.294054 117.503 
" clip-path="url(#pe0b657c07f)" style="fill: none; stroke: #6b5d48; stroke-opacity: 0.55; stroke-width: 1.2; stroke-linecap: square"/>
   </g>
   <g id="line2d_17">
    <path d="M 107.142703 195.797 
L 461.294054 65.307 
" clip-path="url(#pe0b657c07f)" style="fill: none; stroke: #6b5d48; stroke-opacity: 0.55; stroke-width: 1.2; stroke-linecap: square"/>
   </g>
   <g id="line2d_18">
    <path d="M 107.142703 221.895 
L 461.294054 274.091 
" clip-path="url(#pe0b657c07f)" style="fill: none; stroke: #6b5d48; stroke-opacity: 0.55; stroke-width: 1.2; stroke-linecap: square"/>
   </g>
   <g id="line2d_19">
    <path d="M 107.142703 247.993 
L 461.294054 313.238 
" clip-path="url(#pe0b657c07f)" style="fill: none; stroke: #6b5d48; stroke-opacity: 0.55; stroke-width: 1.2; stroke-linecap: square"/>
   </g>
   <g id="line2d_20">
    <path d="M 107.142703 287.14 
L 461.294054 195.797 
" clip-path="url(#pe0b657c07f)" style="fill: none; stroke: #6b5d48; stroke-opacity: 0.55; stroke-width: 1.2; stroke-linecap: square"/>
   </g>
   <g id="line2d_21">
    <path d="M 107.142703 287.14 
L 461.294054 156.65 
" clip-path="url(#pe0b657c07f)" style="fill: none; stroke: #6b5d48; stroke-opacity: 0.55; stroke-width: 1.2; stroke-linecap: square"/>
   </g>
   <g id="line2d_22">
    <path d="M 107.142703 326.287 
L 461.294054 365.434 
" clip-path="url(#pe0b657c07f)" style="fill: none; stroke: #6b5d48; stroke-opacity: 0.55; stroke-width: 1.2; stroke-linecap: square"/>
   </g>
   <g id="line2d_23">
    <path d="M 107.142703 352.385 
L 461.294054 417.63 
" clip-path="url(#pe0b657c07f)" style="fill: none; stroke: #6b5d48; stroke-opacity: 0.55; stroke-width: 1.2; stroke-linecap: square"/>
   </g>
   <g id="line2d_24">
    <path d="M 107.142703 378.483 
L 461.294054 365.434 
" clip-path="url(#pe0b657c07f)" style="fill: none; stroke: #6b5d48; stroke-opacity: 0.55; stroke-width: 1.2; stroke-linecap: square"/>
   </g>
   <g id="line2d_25">
    <path d="M 107.142703 404.581 
L 461.294054 234.944 
" clip-path="url(#pe0b657c07f)" style="fill: none; stroke: #6b5d48; stroke-opacity: 0.55; stroke-width: 1.2; stroke-linecap: square"/>
   </g>
   <g id="line2d_26">
    <path d="M 107.142703 430.679 
L 461.294054 456.777 
" clip-path="url(#pe0b657c07f)" style="fill: none; stroke: #6b5d48; stroke-opacity: 0.55; stroke-width: 1.2; stroke-linecap: square"/>
   </g>
   <g id="line2d_27">
    <path d="M 107.142703 456.777 
L 461.294054 417.63 
" clip-path="url(#pe0b657c07f)" style="fill: none; stroke: #6b5d48; stroke-opacity: 0.55; stroke-width: 1.2; stroke-linecap: square"/>
   </g>
   <g id="line2d_28">
    <path d="M 107.142703 482.875 
L 461.294054 508.973 
" clip-path="url(#pe0b657c07f)" style="fill: none; stroke: #6b5d48; stroke-opacity: 0.55; stroke-width: 1.2; stroke-linecap: square"/>
   </g>
   <g id="line2d_29">
    <path d="M 107.142703 508.973 
L 461.294054 535.071 
" clip-path="url(#pe0b657c07f)" style="fill: none; stroke: #6b5d48; stroke-opacity: 0.55; stroke-width: 1.2; stroke-linecap: square"/>
   </g>
   <g id="line2d_30">
    <path d="M 107.142703 535.071 
L 461.294054 482.875 
" clip-path="url(#pe0b657c07f)" style="fill: none; stroke: #6b5d48; stroke-opacity: 0.55; stroke-width: 1.2; stroke-linecap: square"/>
   </g>
   <g id="patch_3">
    <path d="M 54.02 548.12 
L 54.02 26.16 
" style="fill: none; stroke: #000000; stroke-width: 0.8; stroke-linejoin: miter; stroke-linecap: square"/>
   </g>
   <g id="patch_4">
    <path d="M 709.2 548.12 
L 709.2 26.16 
" style="fill: none; stroke: #000000; stroke-width: 0.8; stroke-linejoin: miter; stroke-linecap: square"/>
   </g>
   <g id="patch_5">
    <path d="M 54.02 548.12 
L 709.2 548.12 
" style="fill: none; stroke: #000000; stroke-width: 0.8; stroke-linejoin: miter; stroke-linecap: square"/>
   </g>
   <g id="patch_6">
    <path d="M 54.02 26.16 
L 709.2 26.16 
" style="fill: none; stroke: #000000; stroke-width: 0.8; stroke-linejoin: miter; stroke-linecap: square"/>
   </g>
   <g id="text_12">
    <!-- 2e — Bourse -->
    <g transform="translate(471.918595 93.474531) scale(0.075 -0.075)">
     <defs>
      <path id="DejaVuSerif-2014" d="M 281 1906 
L 6119 1906 
L 6119 1491 
L 281 1491 
L 281 1906 
z
" transform="scale(0.015625)"/>
      <path id="DejaVuSerif-42" d="M 1581 331 
L 2516 331 
Q 3078 331 3337 575 
Q 3597 819 3597 1350 
Q 3597 1878 3339 2120 
Q 3081 2363 2516 2363 
L 1581 2363 
L 1581 331 
z
M 1581 2694 
L 2375 2694 
Q 2888 2694 3123 2891 
Q 3359 3088 3359 3513 
Q 3359 3941 3123 4136 
Q 2888 4331 2375 4331 
L 1581 4331 
L 1581 2694 
z
M 353 0 
L 353 331 
L 947 331 
L 947 4331 
L 353 4331 
L 353 4666 
L 2656 4666 
Q 3363 4666 3720 4377 
Q 4078 4088 4078 3513 
Q 4078 3097 3829 2850 
Q 3581 2603 3103 2547 
Q 3697 2472 4005 2167 
Q 4313 1863 4313 1350 
Q 4313 656 3875 328 
Q 3438 0 2509 0 
L 353 0 
z
" transform="scale(0.015625)"/>
      <path id="DejaVuSerif-75" d="M 2266 3322 
L 3341 3322 
L 3341 331 
L 3884 331 
L 3884 0 
L 2766 0 
L 2766 588 
Q 2606 256 2353 82 
Q 2100 -91 1766 -91 
Q 1213 -91 952 223 
Q 691 538 691 1209 
L 691 2988 
L 172 2988 
L 172 3322 
L 1269 3322 
L 1269 1388 
Q 1269 781 1417 556 
Q 1566 331 1947 331 
Q 2347 331 2556 625 
Q 2766 919 2766 1478 
L 2766 2988 
L 2266 2988 
L 2266 3322 
z
" transform="scale(0.015625)"/>
     </defs>
     <use xlink:href="#DejaVuSerif-32"/>
     <use xlink:href="#DejaVuSerif-65" transform="translate(63.623047 0)"/>
     <use xlink:href="#DejaVuSerif-20" transform="translate(122.802734 0)"/>
     <use xlink:href="#DejaVuSerif-2014" transform="translate(154.589844 0)"/>
     <use xlink:href="#DejaVuSerif-20" transform="translate(254.589844 0)"/>
     <use xlink:href="#DejaVuSerif-42" transform="translate(286.376953 0)"/>
     <use xlink:href="#DejaVuSerif-6f" transform="translate(359.863281 0)"/>
     <use xlink:href="#DejaVuSerif-75" transform="translate(420.068359 0)"/>
     <use xlink:href="#DejaVuSerif-72" transform="translate(484.472656 0)"/>
     <use xlink:href="#DejaVuSerif-73" transform="translate(532.275391 0)"/>
     <use xlink:href="#DejaVuSerif-65" transform="translate(583.59375 0)"/>
    </g>
   </g>
   <g id="text_13">
    <!-- 1er — Louvre -->
    <g transform="translate(471.918595 41.278531) scale(0.075 -0.075)">
     <defs>
      <path id="DejaVuSerif-4c" d="M 353 0 
L 353 331 
L 947 331 
L 947 4331 
L 353 4331 
L 353 4666 
L 2175 4666 
L 2175 4331 
L 1581 4331 
L 1581 384 
L 3713 384 
L 3713 1166 
L 4097 1166 
L 4097 0 
L 353 0 
z
" transform="scale(0.015625)"/>
      <path id="DejaVuSerif-76" d="M 1581 0 
L 359 2988 
L -19 2988 
L -19 3322 
L 1509 3322 
L 1509 2988 
L 978 2988 
L 1913 703 
L 2847 2988 
L 2350 2988 
L 2350 3322 
L 3597 3322 
L 3597 2988 
L 3225 2988 
L 2003 0 
L 1581 0 
z
" transform="scale(0.015625)"/>
     </defs>
     <use xlink:href="#DejaVuSerif-31"/>
     <use xlink:href="#DejaVuSerif-65" transform="translate(63.623047 0)"/>
     <use xlink:href="#DejaVuSerif-72" transform="translate(122.802734 0)"/>
     <use xlink:href="#DejaVuSerif-20" transform="translate(170.605469 0)"/>
     <use xlink:href="#DejaVuSerif-2014" transform="translate(202.392578 0)"/>
     <use xlink:href="#DejaVuSerif-20" transform="translate(302.392578 0)"/>
     <use xlink:href="#DejaVuSerif-4c" transform="translate(334.179688 0)"/>
     <use xlink:href="#DejaVuSerif-6f" transform="translate(400.585938 0)"/>
     <use xlink:href="#DejaVuSerif-75" transform="translate(460.791016 0)"/>
     <use xlink:href="#DejaVuSerif-76" transform="translate(525.195312 0)"/>
     <use xlink:href="#DejaVuSerif-72" transform="translate(581.689453 0)"/>
     <use xlink:href="#DejaVuSerif-65" transform="translate(629.492188 0)"/>
    </g>
   </g>
   <g id="text_14">
    <!-- 5e — Panthéon -->
    <g transform="translate(471.918595 158.719531) scale(0.075 -0.075)">
     <defs>
      <path id="DejaVuSerif-50" d="M 1581 2375 
L 2406 2375 
Q 2872 2375 3115 2626 
Q 3359 2878 3359 3353 
Q 3359 3831 3115 4081 
Q 2872 4331 2406 4331 
L 1581 4331 
L 1581 2375 
z
M 353 0 
L 353 331 
L 947 331 
L 947 4331 
L 353 4331 
L 353 4666 
L 2559 4666 
Q 3259 4666 3668 4311 
Q 4078 3956 4078 3353 
Q 4078 2753 3668 2397 
Q 3259 2041 2559 2041 
L 1581 2041 
L 1581 331 
L 2303 331 
L 2303 0 
L 353 0 
z
" transform="scale(0.015625)"/>
      <path id="DejaVuSerif-68" d="M 263 0 
L 263 331 
L 781 331 
L 781 4531 
L 231 4531 
L 231 4863 
L 1356 4863 
L 1356 2731 
Q 1516 3069 1770 3241 
Q 2025 3413 2363 3413 
Q 2913 3413 3172 3097 
Q 3431 2781 3431 2113 
L 3431 331 
L 3944 331 
L 3944 0 
L 2356 0 
L 2356 331 
L 2853 331 
L 2853 1931 
Q 2853 2541 2704 2764 
Q 2556 2988 2175 2988 
Q 1775 2988 1565 2697 
Q 1356 2406 1356 1850 
L 1356 331 
L 1856 331 
L 1856 0 
L 263 0 
z
" transform="scale(0.015625)"/>
      <path id="DejaVuSerif-e9" d="M 3469 1600 
L 991 1600 
L 991 1575 
Q 991 903 1244 561 
Q 1497 219 1991 219 
Q 2369 219 2611 417 
Q 2853 616 2950 1006 
L 3413 1006 
Q 3275 459 2904 184 
Q 2534 -91 1931 -91 
Q 1203 -91 761 389 
Q 319 869 319 1663 
Q 319 2450 753 2931 
Q 1188 3413 1894 3413 
Q 2647 3413 3050 2948 
Q 3453 2484 3469 1600 
z
M 2791 1931 
Q 2772 2513 2545 2808 
Q 2319 3103 1894 3103 
Q 1497 3103 1269 2806 
Q 1041 2509 991 1931 
L 2791 1931 
z
M 2330 5119 
L 2952 5119 
L 1890 3944 
L 1524 3944 
L 2330 5119 
z
" transform="scale(0.015625)"/>
     </defs>
     <use xlink:href="#DejaVuSerif-35"/>
     <use xlink:href="#DejaVuSerif-65" transform="translate(63.623047 0)"/>
     <use xlink:href="#DejaVuSerif-20" transform="translate(122.802734 0)"/>
     <use xlink:href="#DejaVuSerif-2014" transform="translate(154.589844 0)"/>
     <use xlink:href="#DejaVuSerif-20" transform="translate(254.589844 0)"/>
     <use xlink:href="#DejaVuSerif-50" transform="translate(286.376953 0)"/>
     <use xlink:href="#DejaVuSerif-61" transform="translate(349.162109 0)"/>
     <use xlink:href="#DejaVuSerif-6e" transform="translate(408.78125 0)"/>
     <use xlink:href="#DejaVuSerif-74" transform="translate(473.185547 0)"/>
     <use xlink:href="#DejaVuSerif-68" transform="translate(513.371094 0)"/>
     <use xlink:href="#DejaVuSerif-e9" transform="translate(577.775391 0)"/>
     <use xlink:href="#DejaVuSerif-6f" transform="translate(636.955078 0)"/>
     <use xlink:href="#DejaVuSerif-6e" transform="translate(697.160156 0)"/>
    </g>
   </g>
   <g id="text_15">
    <!-- 18e — Buttes-Montmartre -->
    <g transform="translate(471.918595 237.013531) scale(0.075 -0.075)">
     <defs>
      <path id="DejaVuSerif-2d" d="M 281 1959 
L 1881 1959 
L 1881 1472 
L 281 1472 
L 281 1959 
z
" transform="scale(0.015625)"/>
      <path id="DejaVuSerif-4d" d="M 353 0 
L 353 331 
L 947 331 
L 947 4331 
L 319 4331 
L 319 4666 
L 1678 4666 
L 3316 1344 
L 4953 4666 
L 6228 4666 
L 6228 4331 
L 5606 4331 
L 5606 331 
L 6203 331 
L 6203 0 
L 4378 0 
L 4378 331 
L 4972 331 
L 4972 3938 
L 3372 684 
L 2931 684 
L 1331 3938 
L 1331 331 
L 1925 331 
L 1925 0 
L 353 0 
z
" transform="scale(0.015625)"/>
      <path id="DejaVuSerif-6d" d="M 3316 2675 
Q 3481 3041 3739 3227 
Q 3997 3413 4341 3413 
Q 4863 3413 5119 3089 
Q 5375 2766 5375 2113 
L 5375 331 
L 5894 331 
L 5894 0 
L 4300 0 
L 4300 331 
L 4800 331 
L 4800 2047 
Q 4800 2556 4650 2772 
Q 4500 2988 4153 2988 
Q 3769 2988 3567 2697 
Q 3366 2406 3366 1850 
L 3366 331 
L 3866 331 
L 3866 0 
L 2291 0 
L 2291 331 
L 2791 331 
L 2791 2069 
Q 2791 2566 2641 2777 
Q 2491 2988 2144 2988 
Q 1759 2988 1557 2697 
Q 1356 2406 1356 1850 
L 1356 331 
L 1856 331 
L 1856 0 
L 263 0 
L 263 331 
L 781 331 
L 781 2994 
L 231 2994 
L 231 3322 
L 1356 3322 
L 1356 2731 
Q 1516 3063 1762 3238 
Q 2009 3413 2322 3413 
Q 2709 3413 2968 3220 
Q 3228 3028 3316 2675 
z
" transform="scale(0.015625)"/>
     </defs>
     <use xlink:href="#DejaVuSerif-31"/>
     <use xlink:href="#DejaVuSerif-38" transform="translate(63.623047 0)"/>
     <use xlink:href="#DejaVuSerif-65" transform="translate(127.246094 0)"/>
     <use xlink:href="#DejaVuSerif-20" transform="translate(186.425781 0)"/>
     <use xlink:href="#DejaVuSerif-2014" transform="translate(218.212891 0)"/>
     <use xlink:href="#DejaVuSerif-20" transform="translate(318.212891 0)"/>
     <use xlink:href="#DejaVuSerif-42" transform="translate(350 0)"/>
     <use xlink:href="#DejaVuSerif-75" transform="translate(423.486328 0)"/>
     <use xlink:href="#DejaVuSerif-74" transform="translate(487.890625 0)"/>
     <use xlink:href="#DejaVuSerif-74" transform="translate(528.076172 0)"/>
     <use xlink:href="#DejaVuSerif-65" transform="translate(568.261719 0)"/>
     <use xlink:href="#DejaVuSerif-73" transform="translate(627.441406 0)"/>
     <use xlink:href="#DejaVuSerif-2d" transform="translate(678.759766 0)"/>
     <use xlink:href="#DejaVuSerif-4d" transform="translate(712.548828 0)"/>
     <use xlink:href="#DejaVuSerif-6f" transform="translate(814.941406 0)"/>
     <use xlink:href="#DejaVuSerif-6e" transform="translate(875.146484 0)"/>
     <use xlink:href="#DejaVuSerif-74" transform="translate(939.550781 0)"/>
     <use xlink:href="#DejaVuSerif-6d" transform="translate(979.736328 0)"/>
     <use xlink:href="#DejaVuSerif-61" transform="translate(1074.560547 0)"/>
     <use xlink:href="#DejaVuSerif-72" transform="translate(1134.179688 0)"/>
     <use xlink:href="#DejaVuSerif-74" transform="translate(1181.982422 0)"/>
     <use xlink:href="#DejaVuSerif-72" transform="translate(1222.167969 0)"/>
     <use xlink:href="#DejaVuSerif-65" transform="translate(1269.970703 0)"/>
    </g>
   </g>
   <g id="text_16">
    <!-- 9e — Opéra -->
    <g transform="translate(471.918595 315.457531) scale(0.075 -0.075)">
     <defs>
      <path id="DejaVuSerif-4f" d="M 2625 244 
Q 3391 244 3781 770 
Q 4172 1297 4172 2328 
Q 4172 3363 3781 3889 
Q 3391 4416 2625 4416 
Q 1856 4416 1465 3889 
Q 1075 3363 1075 2328 
Q 1075 1297 1465 770 
Q 1856 244 2625 244 
z
M 2625 -91 
Q 2150 -91 1751 65 
Q 1353 222 1050 525 
Q 700 875 529 1319 
Q 359 1763 359 2328 
Q 359 2894 529 3339 
Q 700 3784 1050 4134 
Q 1356 4441 1750 4595 
Q 2144 4750 2625 4750 
Q 3641 4750 4266 4084 
Q 4891 3419 4891 2328 
Q 4891 1769 4719 1320 
Q 4547 872 4197 525 
Q 3891 219 3497 64 
Q 3103 -91 2625 -91 
z
" transform="scale(0.015625)"/>
      <path id="DejaVuSerif-70" d="M 1313 1825 
L 1313 1497 
Q 1313 897 1542 583 
Q 1772 269 2209 269 
Q 2650 269 2876 622 
Q 3103 975 3103 1663 
Q 3103 2353 2876 2703 
Q 2650 3053 2209 3053 
Q 1772 3053 1542 2737 
Q 1313 2422 1313 1825 
z
M 738 2988 
L 184 2988 
L 184 3322 
L 1313 3322 
L 1313 2803 
Q 1481 3116 1742 3264 
Q 2003 3413 2388 3413 
Q 3000 3413 3387 2928 
Q 3775 2444 3775 1663 
Q 3775 881 3387 395 
Q 3000 -91 2388 -91 
Q 2003 -91 1742 57 
Q 1481 206 1313 519 
L 1313 -997 
L 1856 -997 
L 1856 -1331 
L 184 -1331 
L 184 -997 
L 738 -997 
L 738 2988 
z
" transform="scale(0.015625)"/>
     </defs>
     <use xlink:href="#DejaVuSerif-39"/>
     <use xlink:href="#DejaVuSerif-65" transform="translate(63.623047 0)"/>
     <use xlink:href="#DejaVuSerif-20" transform="translate(122.802734 0)"/>
     <use xlink:href="#DejaVuSerif-2014" transform="translate(154.589844 0)"/>
     <use xlink:href="#DejaVuSerif-20" transform="translate(254.589844 0)"/>
     <use xlink:href="#DejaVuSerif-4f" transform="translate(286.376953 0)"/>
     <use xlink:href="#DejaVuSerif-70" transform="translate(368.359375 0)"/>
     <use xlink:href="#DejaVuSerif-e9" transform="translate(432.373047 0)"/>
     <use xlink:href="#DejaVuSerif-72" transform="translate(491.552734 0)"/>
     <use xlink:href="#DejaVuSerif-61" transform="translate(539.355469 0)"/>
    </g>
   </g>
   <g id="text_17">
    <!-- 11e — Popincourt -->
    <g transform="translate(471.918595 119.572531) scale(0.075 -0.075)">
     <defs>
      <path id="DejaVuSerif-69" d="M 622 4353 
Q 622 4497 726 4603 
Q 831 4709 978 4709 
Q 1122 4709 1226 4603 
Q 1331 4497 1331 4353 
Q 1331 4206 1228 4103 
Q 1125 4000 978 4000 
Q 831 4000 726 4103 
Q 622 4206 622 4353 
z
M 1356 331 
L 1900 331 
L 1900 0 
L 231 0 
L 231 331 
L 781 331 
L 781 2988 
L 231 2988 
L 231 3322 
L 1356 3322 
L 1356 331 
z
" transform="scale(0.015625)"/>
     </defs>
     <use xlink:href="#DejaVuSerif-31"/>
     <use xlink:href="#DejaVuSerif-31" transform="translate(63.623047 0)"/>
     <use xlink:href="#DejaVuSerif-65" transform="translate(127.246094 0)"/>
     <use xlink:href="#DejaVuSerif-20" transform="translate(186.425781 0)"/>
     <use xlink:href="#DejaVuSerif-2014" transform="translate(218.212891 0)"/>
     <use xlink:href="#DejaVuSerif-20" transform="translate(318.212891 0)"/>
     <use xlink:href="#DejaVuSerif-50" transform="translate(350 0)"/>
     <use xlink:href="#DejaVuSerif-6f" transform="translate(413.285156 0)"/>
     <use xlink:href="#DejaVuSerif-70" transform="translate(473.490234 0)"/>
     <use xlink:href="#DejaVuSerif-69" transform="translate(537.503906 0)"/>
     <use xlink:href="#DejaVuSerif-6e" transform="translate(569.486328 0)"/>
     <use xlink:href="#DejaVuSerif-63" transform="translate(633.890625 0)"/>
     <use xlink:href="#DejaVuSerif-6f" transform="translate(689.896484 0)"/>
     <use xlink:href="#DejaVuSerif-75" transform="translate(750.101562 0)"/>
     <use xlink:href="#DejaVuSerif-72" transform="translate(814.505859 0)"/>
     <use xlink:href="#DejaVuSerif-74" transform="translate(862.308594 0)"/>
    </g>
   </g>
   <g id="text_18">
    <!-- 3e — Temple -->
    <g transform="translate(471.918595 67.376531) scale(0.075 -0.075)">
     <defs>
      <path id="DejaVuSerif-33" d="M 622 4469 
Q 988 4606 1323 4678 
Q 1659 4750 1953 4750 
Q 2638 4750 3022 4454 
Q 3406 4159 3406 3634 
Q 3406 3213 3140 2930 
Q 2875 2647 2388 2547 
Q 2963 2466 3280 2130 
Q 3597 1794 3597 1259 
Q 3597 606 3158 257 
Q 2719 -91 1894 -91 
Q 1528 -91 1179 -12 
Q 831 66 488 225 
L 488 1131 
L 838 1131 
Q 869 681 1141 450 
Q 1413 219 1906 219 
Q 2384 219 2661 495 
Q 2938 772 2938 1253 
Q 2938 1803 2653 2086 
Q 2369 2369 1819 2369 
L 1522 2369 
L 1522 2688 
L 1678 2688 
Q 2225 2688 2498 2914 
Q 2772 3141 2772 3597 
Q 2772 4006 2547 4223 
Q 2322 4441 1900 4441 
Q 1478 4441 1245 4241 
Q 1013 4041 972 3647 
L 622 3647 
L 622 4469 
z
" transform="scale(0.015625)"/>
      <path id="DejaVuSerif-54" d="M 1222 0 
L 1222 331 
L 1819 331 
L 1819 4294 
L 447 4294 
L 447 3566 
L 63 3566 
L 63 4666 
L 4206 4666 
L 4206 3566 
L 3822 3566 
L 3822 4294 
L 2450 4294 
L 2450 331 
L 3047 331 
L 3047 0 
L 1222 0 
z
" transform="scale(0.015625)"/>
     </defs>
     <use xlink:href="#DejaVuSerif-33"/>
     <use xlink:href="#DejaVuSerif-65" transform="translate(63.623047 0)"/>
     <use xlink:href="#DejaVuSerif-20" transform="translate(122.802734 0)"/>
     <use xlink:href="#DejaVuSerif-2014" transform="translate(154.589844 0)"/>
     <use xlink:href="#DejaVuSerif-20" transform="translate(254.589844 0)"/>
     <use xlink:href="#DejaVuSerif-54" transform="translate(286.376953 0)"/>
     <use xlink:href="#DejaVuSerif-65" transform="translate(345.326172 0)"/>
     <use xlink:href="#DejaVuSerif-6d" transform="translate(404.505859 0)"/>
     <use xlink:href="#DejaVuSerif-70" transform="translate(499.330078 0)"/>
     <use xlink:href="#DejaVuSerif-6c" transform="translate(563.34375 0)"/>
     <use xlink:href="#DejaVuSerif-65" transform="translate(595.326172 0)"/>
    </g>
   </g>
   <g id="text_19">
    <!-- 15e — Vaugirard -->
    <g transform="translate(471.918595 276.107211) scale(0.075 -0.075)">
     <defs>
      <path id="DejaVuSerif-56" d="M 1119 4331 
L 2497 750 
L 3872 4331 
L 3347 4331 
L 3347 4666 
L 4716 4666 
L 4716 4331 
L 4263 4331 
L 2597 0 
L 2059 0 
L 403 4331 
L -63 4331 
L -63 4666 
L 1638 4666 
L 1638 4331 
L 1119 4331 
z
" transform="scale(0.015625)"/>
      <path id="DejaVuSerif-67" d="M 3359 2988 
L 3359 72 
Q 3359 -644 2965 -1033 
Q 2572 -1422 1844 -1422 
Q 1516 -1422 1216 -1362 
Q 916 -1303 641 -1184 
L 641 -488 
L 941 -488 
Q 997 -813 1206 -963 
Q 1416 -1113 1806 -1113 
Q 2313 -1113 2548 -827 
Q 2784 -541 2784 72 
L 2784 519 
Q 2616 206 2355 57 
Q 2094 -91 1709 -91 
Q 1097 -91 708 395 
Q 319 881 319 1663 
Q 319 2444 706 2928 
Q 1094 3413 1709 3413 
Q 2094 3413 2355 3264 
Q 2616 3116 2784 2803 
L 2784 3322 
L 3909 3322 
L 3909 2988 
L 3359 2988 
z
M 2784 1825 
Q 2784 2422 2554 2737 
Q 2325 3053 1888 3053 
Q 1444 3053 1217 2703 
Q 991 2353 991 1663 
Q 991 975 1217 622 
Q 1444 269 1888 269 
Q 2325 269 2554 583 
Q 2784 897 2784 1497 
L 2784 1825 
z
" transform="scale(0.015625)"/>
     </defs>
     <use xlink:href="#DejaVuSerif-31"/>
     <use xlink:href="#DejaVuSerif-35" transform="translate(63.623047 0)"/>
     <use xlink:href="#DejaVuSerif-65" transform="translate(127.246094 0)"/>
     <use xlink:href="#DejaVuSerif-20" transform="translate(186.425781 0)"/>
     <use xlink:href="#DejaVuSerif-2014" transform="translate(218.212891 0)"/>
     <use xlink:href="#DejaVuSerif-20" transform="translate(318.212891 0)"/>
     <use xlink:href="#DejaVuSerif-56" transform="translate(350 0)"/>
     <use xlink:href="#DejaVuSerif-61" transform="translate(413.091797 0)"/>
     <use xlink:href="#DejaVuSerif-75" transform="translate(472.710938 0)"/>
     <use xlink:href="#DejaVuSerif-67" transform="translate(537.115234 0)"/>
     <use xlink:href="#DejaVuSerif-69" transform="translate(601.128906 0)"/>
     <use xlink:href="#DejaVuSerif-72" transform="translate(633.111328 0)"/>
     <use xlink:href="#DejaVuSerif-61" transform="translate(680.914062 0)"/>
     <use xlink:href="#DejaVuSerif-72" transform="translate(740.533203 0)"/>
     <use xlink:href="#DejaVuSerif-64" transform="translate(788.335938 0)"/>
    </g>
   </g>
   <g id="text_20">
    <!-- 10e — Entrepôt -->
    <g transform="translate(471.918595 315.457531) scale(0.075 -0.075)">
     <defs>
      <path id="DejaVuSerif-45" d="M 353 0 
L 353 331 
L 947 331 
L 947 4331 
L 353 4331 
L 353 4666 
L 4109 4666 
L 4109 3628 
L 3725 3628 
L 3725 4281 
L 1581 4281 
L 1581 2719 
L 3109 2719 
L 3109 3303 
L 3494 3303 
L 3494 1753 
L 3109 1753 
L 3109 2338 
L 1581 2338 
L 1581 384 
L 3775 384 
L 3775 1038 
L 4159 1038 
L 4159 0 
L 353 0 
z
" transform="scale(0.015625)"/>
      <path id="DejaVuSerif-f4" d="M 1925 219 
Q 2388 219 2623 584 
Q 2859 950 2859 1663 
Q 2859 2375 2623 2739 
Q 2388 3103 1925 3103 
Q 1463 3103 1227 2739 
Q 991 2375 991 1663 
Q 991 950 1228 584 
Q 1466 219 1925 219 
z
M 1925 -91 
Q 1200 -91 759 389 
Q 319 869 319 1663 
Q 319 2456 758 2934 
Q 1197 3413 1925 3413 
Q 2653 3413 3092 2934 
Q 3531 2456 3531 1663 
Q 3531 869 3092 389 
Q 2653 -91 1925 -91 
z
M 1666 5119 
L 2191 5119 
L 2925 3944 
L 2562 3944 
L 1928 4756 
L 1294 3944 
L 931 3944 
L 1666 5119 
z
" transform="scale(0.015625)"/>
     </defs>
     <use xlink:href="#DejaVuSerif-31"/>
     <use xlink:href="#DejaVuSerif-30" transform="translate(63.623047 0)"/>
     <use xlink:href="#DejaVuSerif-65" transform="translate(127.246094 0)"/>
     <use xlink:href="#DejaVuSerif-20" transform="translate(186.425781 0)"/>
     <use xlink:href="#DejaVuSerif-2014" transform="translate(218.212891 0)"/>
     <use xlink:href="#DejaVuSerif-20" transform="translate(318.212891 0)"/>
     <use xlink:href="#DejaVuSerif-45" transform="translate(350 0)"/>
     <use xlink:href="#DejaVuSerif-6e" transform="translate(422.998047 0)"/>
     <use xlink:href="#DejaVuSerif-74" transform="translate(487.402344 0)"/>
     <use xlink:href="#DejaVuSerif-72" transform="translate(527.587891 0)"/>
     <use xlink:href="#DejaVuSerif-65" transform="translate(575.390625 0)"/>
     <use xlink:href="#DejaVuSerif-70" transform="translate(634.570312 0)"/>
     <use xlink:href="#DejaVuSerif-f4" transform="translate(698.583984 0)"/>
     <use xlink:href="#DejaVuSerif-74" transform="translate(758.789062 0)"/>
    </g>
   </g>
   <g id="text_21">
    <!-- 4e — Hôtel-de-Ville -->
    <g transform="translate(471.918595 197.866531) scale(0.075 -0.075)">
     <defs>
      <path id="DejaVuSerif-34" d="M 2234 1581 
L 2234 4063 
L 641 1581 
L 2234 1581 
z
M 3609 0 
L 1484 0 
L 1484 331 
L 2234 331 
L 2234 1247 
L 197 1247 
L 197 1588 
L 2241 4750 
L 2859 4750 
L 2859 1581 
L 3750 1581 
L 3750 1247 
L 2859 1247 
L 2859 331 
L 3609 331 
L 3609 0 
z
" transform="scale(0.015625)"/>
      <path id="DejaVuSerif-48" d="M 353 0 
L 353 331 
L 947 331 
L 947 4331 
L 353 4331 
L 353 4666 
L 2175 4666 
L 2175 4331 
L 1581 4331 
L 1581 2719 
L 4000 2719 
L 4000 4331 
L 3406 4331 
L 3406 4666 
L 5228 4666 
L 5228 4331 
L 4634 4331 
L 4634 331 
L 5228 331 
L 5228 0 
L 3406 0 
L 3406 331 
L 4000 331 
L 4000 2338 
L 1581 2338 
L 1581 331 
L 2175 331 
L 2175 0 
L 353 0 
z
" transform="scale(0.015625)"/>
     </defs>
     <use xlink:href="#DejaVuSerif-34"/>
     <use xlink:href="#DejaVuSerif-65" transform="translate(63.623047 0)"/>
     <use xlink:href="#DejaVuSerif-20" transform="translate(122.802734 0)"/>
     <use xlink:href="#DejaVuSerif-2014" transform="translate(154.589844 0)"/>
     <use xlink:href="#DejaVuSerif-20" transform="translate(254.589844 0)"/>
     <use xlink:href="#DejaVuSerif-48" transform="translate(286.376953 0)"/>
     <use xlink:href="#DejaVuSerif-f4" transform="translate(373.583984 0)"/>
     <use xlink:href="#DejaVuSerif-74" transform="translate(433.789062 0)"/>
     <use xlink:href="#DejaVuSerif-65" transform="translate(473.974609 0)"/>
     <use xlink:href="#DejaVuSerif-6c" transform="translate(533.154297 0)"/>
     <use xlink:href="#DejaVuSerif-2d" transform="translate(565.136719 0)"/>
     <use xlink:href="#DejaVuSerif-64" transform="translate(598.925781 0)"/>
     <use xlink:href="#DejaVuSerif-65" transform="translate(662.939453 0)"/>
     <use xlink:href="#DejaVuSerif-2d" transform="translate(722.119141 0)"/>
     <use xlink:href="#DejaVuSerif-56" transform="translate(748.658203 0)"/>
     <use xlink:href="#DejaVuSerif-69" transform="translate(819.125 0)"/>
     <use xlink:href="#DejaVuSerif-6c" transform="translate(851.107422 0)"/>
     <use xlink:href="#DejaVuSerif-6c" transform="translate(883.089844 0)"/>
     <use xlink:href="#DejaVuSerif-65" transform="translate(915.072266 0)"/>
    </g>
   </g>
   <g id="text_22">
    <!-- 6e — Luxembourg -->
    <g transform="translate(471.918595 158.666211) scale(0.075 -0.075)">
     <defs>
      <path id="DejaVuSerif-78" d="M 1863 2028 
L 2559 2988 
L 2113 2988 
L 2113 3322 
L 3391 3322 
L 3391 2988 
L 2950 2988 
L 2059 1759 
L 3097 331 
L 3531 331 
L 3531 0 
L 1997 0 
L 1997 331 
L 2419 331 
L 1697 1325 
L 972 331 
L 1403 331 
L 1403 0 
L 141 0 
L 141 331 
L 581 331 
L 1497 1594 
L 488 2988 
L 78 2988 
L 78 3322 
L 1563 3322 
L 1563 2988 
L 1166 2988 
L 1863 2028 
z
" transform="scale(0.015625)"/>
     </defs>
     <use xlink:href="#DejaVuSerif-36"/>
     <use xlink:href="#DejaVuSerif-65" transform="translate(63.623047 0)"/>
     <use xlink:href="#DejaVuSerif-20" transform="translate(122.802734 0)"/>
     <use xlink:href="#DejaVuSerif-2014" transform="translate(154.589844 0)"/>
     <use xlink:href="#DejaVuSerif-20" transform="translate(254.589844 0)"/>
     <use xlink:href="#DejaVuSerif-4c" transform="translate(286.376953 0)"/>
     <use xlink:href="#DejaVuSerif-75" transform="translate(352.783203 0)"/>
     <use xlink:href="#DejaVuSerif-78" transform="translate(417.1875 0)"/>
     <use xlink:href="#DejaVuSerif-65" transform="translate(473.583984 0)"/>
     <use xlink:href="#DejaVuSerif-6d" transform="translate(532.763672 0)"/>
     <use xlink:href="#DejaVuSerif-62" transform="translate(627.587891 0)"/>
     <use xlink:href="#DejaVuSerif-6f" transform="translate(691.601562 0)"/>
     <use xlink:href="#DejaVuSerif-75" transform="translate(751.806641 0)"/>
     <use xlink:href="#DejaVuSerif-72" transform="translate(816.210938 0)"/>
     <use xlink:href="#DejaVuSerif-67" transform="translate(864.013672 0)"/>
    </g>
   </g>
   <g id="text_23">
    <!-- 14e — Observatoire -->
    <g transform="translate(471.918595 367.503531) scale(0.075 -0.075)">
     <use xlink:href="#DejaVuSerif-31"/>
     <use xlink:href="#DejaVuSerif-34" transform="translate(63.623047 0)"/>
     <use xlink:href="#DejaVuSerif-65" transform="translate(127.246094 0)"/>
     <use xlink:href="#DejaVuSerif-20" transform="translate(186.425781 0)"/>
     <use xlink:href="#DejaVuSerif-2014" transform="translate(218.212891 0)"/>
     <use xlink:href="#DejaVuSerif-20" transform="translate(318.212891 0)"/>
     <use xlink:href="#DejaVuSerif-4f" transform="translate(350 0)"/>
     <use xlink:href="#DejaVuSerif-62" transform="translate(431.982422 0)"/>
     <use xlink:href="#DejaVuSerif-73" transform="translate(495.996094 0)"/>
     <use xlink:href="#DejaVuSerif-65" transform="translate(547.314453 0)"/>
     <use xlink:href="#DejaVuSerif-72" transform="translate(606.494141 0)"/>
     <use xlink:href="#DejaVuSerif-76" transform="translate(654.296875 0)"/>
     <use xlink:href="#DejaVuSerif-61" transform="translate(710.791016 0)"/>
     <use xlink:href="#DejaVuSerif-74" transform="translate(770.410156 0)"/>
     <use xlink:href="#DejaVuSerif-6f" transform="translate(810.595703 0)"/>
     <use xlink:href="#DejaVuSerif-69" transform="translate(870.800781 0)"/>
     <use xlink:href="#DejaVuSerif-72" transform="translate(902.783203 0)"/>
     <use xlink:href="#DejaVuSerif-65" transform="translate(950.585938 0)"/>
    </g>
   </g>
   <g id="text_24">
    <!-- 17e — Batignolles -->
    <g transform="translate(471.918595 419.646211) scale(0.075 -0.075)">
     <use xlink:href="#DejaVuSerif-31"/>
     <use xlink:href="#DejaVuSerif-37" transform="translate(63.623047 0)"/>
     <use xlink:href="#DejaVuSerif-65" transform="translate(127.246094 0)"/>
     <use xlink:href="#DejaVuSerif-20" transform="translate(186.425781 0)"/>
     <use xlink:href="#DejaVuSerif-2014" transform="translate(218.212891 0)"/>
     <use xlink:href="#DejaVuSerif-20" transform="translate(318.212891 0)"/>
     <use xlink:href="#DejaVuSerif-42" transform="translate(350 0)"/>
     <use xlink:href="#DejaVuSerif-61" transform="translate(423.486328 0)"/>
     <use xlink:href="#DejaVuSerif-74" transform="translate(483.105469 0)"/>
     <use xlink:href="#DejaVuSerif-69" transform="translate(523.291016 0)"/>
     <use xlink:href="#DejaVuSerif-67" transform="translate(555.273438 0)"/>
     <use xlink:href="#DejaVuSerif-6e" transform="translate(619.287109 0)"/>
     <use xlink:href="#DejaVuSerif-6f" transform="translate(683.691406 0)"/>
     <use xlink:href="#DejaVuSerif-6c" transform="translate(743.896484 0)"/>
     <use xlink:href="#DejaVuSerif-6c" transform="translate(775.878906 0)"/>
     <use xlink:href="#DejaVuSerif-65" transform="translate(807.861328 0)"/>
     <use xlink:href="#DejaVuSerif-73" transform="translate(867.041016 0)"/>
    </g>
   </g>
   <g id="text_25">
    <!-- 12e — Reuilly -->
    <g transform="translate(471.918595 367.450211) scale(0.075 -0.075)">
     <defs>
      <path id="DejaVuSerif-79" d="M 1381 -609 
L 1600 -56 
L 359 2988 
L -19 2988 
L -19 3322 
L 1509 3322 
L 1509 2988 
L 978 2988 
L 1913 703 
L 2847 2988 
L 2350 2988 
L 2350 3322 
L 3597 3322 
L 3597 2988 
L 3225 2988 
L 1703 -750 
Q 1547 -1138 1356 -1280 
Q 1166 -1422 819 -1422 
Q 672 -1422 517 -1397 
Q 363 -1372 206 -1325 
L 206 -691 
L 500 -691 
Q 519 -903 608 -995 
Q 697 -1088 884 -1088 
Q 1056 -1088 1161 -992 
Q 1266 -897 1381 -609 
z
" transform="scale(0.015625)"/>
     </defs>
     <use xlink:href="#DejaVuSerif-31"/>
     <use xlink:href="#DejaVuSerif-32" transform="translate(63.623047 0)"/>
     <use xlink:href="#DejaVuSerif-65" transform="translate(127.246094 0)"/>
     <use xlink:href="#DejaVuSerif-20" transform="translate(186.425781 0)"/>
     <use xlink:href="#DejaVuSerif-2014" transform="translate(218.212891 0)"/>
     <use xlink:href="#DejaVuSerif-20" transform="translate(318.212891 0)"/>
     <use xlink:href="#DejaVuSerif-52" transform="translate(350 0)"/>
     <use xlink:href="#DejaVuSerif-65" transform="translate(425.292969 0)"/>
     <use xlink:href="#DejaVuSerif-75" transform="translate(484.472656 0)"/>
     <use xlink:href="#DejaVuSerif-69" transform="translate(548.876953 0)"/>
     <use xlink:href="#DejaVuSerif-6c" transform="translate(580.859375 0)"/>
     <use xlink:href="#DejaVuSerif-6c" transform="translate(612.841797 0)"/>
     <use xlink:href="#DejaVuSerif-79" transform="translate(644.824219 0)"/>
    </g>
   </g>
   <g id="text_26">
    <!-- 7e — Palais-Bourbon -->
    <g transform="translate(471.918595 237.013531) scale(0.075 -0.075)">
     <use xlink:href="#DejaVuSerif-37"/>
     <use xlink:href="#DejaVuSerif-65" transform="translate(63.623047 0)"/>
     <use xlink:href="#DejaVuSerif-20" transform="translate(122.802734 0)"/>
     <use xlink:href="#DejaVuSerif-2014" transform="translate(154.589844 0)"/>
     <use xlink:href="#DejaVuSerif-20" transform="translate(254.589844 0)"/>
     <use xlink:href="#DejaVuSerif-50" transform="translate(286.376953 0)"/>
     <use xlink:href="#DejaVuSerif-61" transform="translate(349.162109 0)"/>
     <use xlink:href="#DejaVuSerif-6c" transform="translate(408.78125 0)"/>
     <use xlink:href="#DejaVuSerif-61" transform="translate(440.763672 0)"/>
     <use xlink:href="#DejaVuSerif-69" transform="translate(500.382812 0)"/>
     <use xlink:href="#DejaVuSerif-73" transform="translate(532.365234 0)"/>
     <use xlink:href="#DejaVuSerif-2d" transform="translate(583.683594 0)"/>
     <use xlink:href="#DejaVuSerif-42" transform="translate(617.472656 0)"/>
     <use xlink:href="#DejaVuSerif-6f" transform="translate(690.958984 0)"/>
     <use xlink:href="#DejaVuSerif-75" transform="translate(751.164062 0)"/>
     <use xlink:href="#DejaVuSerif-72" transform="translate(815.568359 0)"/>
     <use xlink:href="#DejaVuSerif-62" transform="translate(863.371094 0)"/>
     <use xlink:href="#DejaVuSerif-6f" transform="translate(927.384766 0)"/>
     <use xlink:href="#DejaVuSerif-6e" transform="translate(987.589844 0)"/>
    </g>
   </g>
   <g id="text_27">
    <!-- 20e — Ménilmontant -->
    <g transform="translate(471.918595 458.846531) scale(0.075 -0.075)">
     <use xlink:href="#DejaVuSerif-32"/>
     <use xlink:href="#DejaVuSerif-30" transform="translate(63.623047 0)"/>
     <use xlink:href="#DejaVuSerif-65" transform="translate(127.246094 0)"/>
     <use xlink:href="#DejaVuSerif-20" transform="translate(186.425781 0)"/>
     <use xlink:href="#DejaVuSerif-2014" transform="translate(218.212891 0)"/>
     <use xlink:href="#DejaVuSerif-20" transform="translate(318.212891 0)"/>
     <use xlink:href="#DejaVuSerif-4d" transform="translate(350 0)"/>
     <use xlink:href="#DejaVuSerif-e9" transform="translate(452.392578 0)"/>
     <use xlink:href="#DejaVuSerif-6e" transform="translate(511.572266 0)"/>
     <use xlink:href="#DejaVuSerif-69" transform="translate(575.976562 0)"/>
     <use xlink:href="#DejaVuSerif-6c" transform="translate(607.958984 0)"/>
     <use xlink:href="#DejaVuSerif-6d" transform="translate(639.941406 0)"/>
     <use xlink:href="#DejaVuSerif-6f" transform="translate(734.765625 0)"/>
     <use xlink:href="#DejaVuSerif-6e" transform="translate(794.970703 0)"/>
     <use xlink:href="#DejaVuSerif-74" transform="translate(859.375 0)"/>
     <use xlink:href="#DejaVuSerif-61" transform="translate(899.560547 0)"/>
     <use xlink:href="#DejaVuSerif-6e" transform="translate(959.179688 0)"/>
     <use xlink:href="#DejaVuSerif-74" transform="translate(1023.583984 0)"/>
    </g>
   </g>
   <g id="text_28">
    <!-- 13e — Gobelins -->
    <g transform="translate(471.918595 419.699531) scale(0.075 -0.075)">
     <defs>
      <path id="DejaVuSerif-47" d="M 4097 3272 
Q 3988 3856 3641 4136 
Q 3294 4416 2675 4416 
Q 1869 4416 1472 3897 
Q 1075 3378 1075 2328 
Q 1075 1300 1484 772 
Q 1894 244 2688 244 
Q 3041 244 3362 331 
Q 3684 419 3975 594 
L 3975 1797 
L 3097 1797 
L 3097 2131 
L 4609 2131 
L 4609 391 
Q 4194 150 3714 29 
Q 3234 -91 2688 -91 
Q 1631 -91 995 570 
Q 359 1231 359 2328 
Q 359 3434 996 4092 
Q 1634 4750 2713 4750 
Q 3113 4750 3539 4658 
Q 3966 4566 4447 4378 
L 4447 3272 
L 4097 3272 
z
" transform="scale(0.015625)"/>
     </defs>
     <use xlink:href="#DejaVuSerif-31"/>
     <use xlink:href="#DejaVuSerif-33" transform="translate(63.623047 0)"/>
     <use xlink:href="#DejaVuSerif-65" transform="translate(127.246094 0)"/>
     <use xlink:href="#DejaVuSerif-20" transform="translate(186.425781 0)"/>
     <use xlink:href="#DejaVuSerif-2014" transform="translate(218.212891 0)"/>
     <use xlink:href="#DejaVuSerif-20" transform="translate(318.212891 0)"/>
     <use xlink:href="#DejaVuSerif-47" transform="translate(350 0)"/>
     <use xlink:href="#DejaVuSerif-6f" transform="translate(429.882812 0)"/>
     <use xlink:href="#DejaVuSerif-62" transform="translate(490.087891 0)"/>
     <use xlink:href="#DejaVuSerif-65" transform="translate(554.101562 0)"/>
     <use xlink:href="#DejaVuSerif-6c" transform="translate(613.28125 0)"/>
     <use xlink:href="#DejaVuSerif-69" transform="translate(645.263672 0)"/>
     <use xlink:href="#DejaVuSerif-6e" transform="translate(677.246094 0)"/>
     <use xlink:href="#DejaVuSerif-73" transform="translate(741.650391 0)"/>
    </g>
   </g>
   <g id="text_29">
    <!-- 8e — Élysée -->
    <g transform="translate(471.918595 511.609133) scale(0.075 -0.075)">
     <defs>
      <path id="DejaVuSerif-c9" d="M 353 0 
L 353 331 
L 947 331 
L 947 4331 
L 353 4331 
L 353 4666 
L 4109 4666 
L 4109 3628 
L 3725 3628 
L 3725 4281 
L 1581 4281 
L 1581 2719 
L 3109 2719 
L 3109 3303 
L 3494 3303 
L 3494 1753 
L 3109 1753 
L 3109 2338 
L 1581 2338 
L 1581 384 
L 3775 384 
L 3775 1038 
L 4159 1038 
L 4159 0 
L 353 0 
z
M 2533 5921 
L 3149 5921 
L 2330 5096 
L 1964 5096 
L 2533 5921 
z
" transform="scale(0.015625)"/>
     </defs>
     <use xlink:href="#DejaVuSerif-38"/>
     <use xlink:href="#DejaVuSerif-65" transform="translate(63.623047 0)"/>
     <use xlink:href="#DejaVuSerif-20" transform="translate(122.802734 0)"/>
     <use xlink:href="#DejaVuSerif-2014" transform="translate(154.589844 0)"/>
     <use xlink:href="#DejaVuSerif-20" transform="translate(254.589844 0)"/>
     <use xlink:href="#DejaVuSerif-c9" transform="translate(286.376953 0)"/>
     <use xlink:href="#DejaVuSerif-6c" transform="translate(359.375 0)"/>
     <use xlink:href="#DejaVuSerif-79" transform="translate(391.357422 0)"/>
     <use xlink:href="#DejaVuSerif-73" transform="translate(447.851562 0)"/>
     <use xlink:href="#DejaVuSerif-e9" transform="translate(499.169922 0)"/>
     <use xlink:href="#DejaVuSerif-65" transform="translate(558.349609 0)"/>
    </g>
   </g>
   <g id="text_30">
    <!-- 19e — Buttes-Chaumont -->
    <g transform="translate(471.918595 537.140531) scale(0.075 -0.075)">
     <defs>
      <path id="DejaVuSerif-43" d="M 4513 1234 
Q 4306 581 3820 245 
Q 3334 -91 2591 -91 
Q 2134 -91 1743 65 
Q 1353 222 1050 525 
Q 700 875 529 1320 
Q 359 1766 359 2328 
Q 359 3416 987 4083 
Q 1616 4750 2644 4750 
Q 3025 4750 3456 4650 
Q 3888 4550 4384 4347 
L 4384 3272 
L 4031 3272 
Q 3916 3859 3567 4137 
Q 3219 4416 2591 4416 
Q 1844 4416 1459 3886 
Q 1075 3356 1075 2328 
Q 1075 1303 1459 773 
Q 1844 244 2591 244 
Q 3113 244 3450 492 
Q 3788 741 3938 1234 
L 4513 1234 
z
" transform="scale(0.015625)"/>
     </defs>
     <use xlink:href="#DejaVuSerif-31"/>
     <use xlink:href="#DejaVuSerif-39" transform="translate(63.623047 0)"/>
     <use xlink:href="#DejaVuSerif-65" transform="translate(127.246094 0)"/>
     <use xlink:href="#DejaVuSerif-20" transform="translate(186.425781 0)"/>
     <use xlink:href="#DejaVuSerif-2014" transform="translate(218.212891 0)"/>
     <use xlink:href="#DejaVuSerif-20" transform="translate(318.212891 0)"/>
     <use xlink:href="#DejaVuSerif-42" transform="translate(350 0)"/>
     <use xlink:href="#DejaVuSerif-75" transform="translate(423.486328 0)"/>
     <use xlink:href="#DejaVuSerif-74" transform="translate(487.890625 0)"/>
     <use xlink:href="#DejaVuSerif-74" transform="translate(528.076172 0)"/>
     <use xlink:href="#DejaVuSerif-65" transform="translate(568.261719 0)"/>
     <use xlink:href="#DejaVuSerif-73" transform="translate(627.441406 0)"/>
     <use xlink:href="#DejaVuSerif-2d" transform="translate(678.759766 0)"/>
     <use xlink:href="#DejaVuSerif-43" transform="translate(712.548828 0)"/>
     <use xlink:href="#DejaVuSerif-68" transform="translate(789.0625 0)"/>
     <use xlink:href="#DejaVuSerif-61" transform="translate(853.466797 0)"/>
     <use xlink:href="#DejaVuSerif-75" transform="translate(913.085938 0)"/>
     <use xlink:href="#DejaVuSerif-6d" transform="translate(977.490234 0)"/>
     <use xlink:href="#DejaVuSerif-6f" transform="translate(1072.314453 0)"/>
     <use xlink:href="#DejaVuSerif-6e" transform="translate(1132.519531 0)"/>
     <use xlink:href="#DejaVuSerif-74" transform="translate(1196.923828 0)"/>
    </g>
   </g>
   <g id="text_31">
    <!-- 16e — Passy -->
    <g transform="translate(471.918595 484.837891) scale(0.075 -0.075)">
     <use xlink:href="#DejaVuSerif-31"/>
     <use xlink:href="#DejaVuSerif-36" transform="translate(63.623047 0)"/>
     <use xlink:href="#DejaVuSerif-65" transform="translate(127.246094 0)"/>
     <use xlink:href="#DejaVuSerif-20" transform="translate(186.425781 0)"/>
     <use xlink:href="#DejaVuSerif-2014" transform="translate(218.212891 0)"/>
     <use xlink:href="#DejaVuSerif-20" transform="translate(318.212891 0)"/>
     <use xlink:href="#DejaVuSerif-50" transform="translate(350 0)"/>
     <use xlink:href="#DejaVuSerif-61" transform="translate(412.785156 0)"/>
     <use xlink:href="#DejaVuSerif-73" transform="translate(472.404297 0)"/>
     <use xlink:href="#DejaVuSerif-73" transform="translate(523.722656 0)"/>
     <use xlink:href="#DejaVuSerif-79" transform="translate(575.041016 0)"/>
    </g>
   </g>
   <g id="text_32">
    <!-- Paris rank shifts: persons_per_dwelling -->
    <g transform="translate(261.995313 20.16) scale(0.12 -0.12)">
     <defs>
      <path id="DejaVuSerif-66" d="M 2753 4078 
L 2450 4078 
Q 2447 4313 2317 4434 
Q 2188 4556 1941 4556 
Q 1619 4556 1487 4379 
Q 1356 4203 1356 3750 
L 1356 3322 
L 2284 3322 
L 2284 2988 
L 1356 2988 
L 1356 331 
L 2094 331 
L 2094 0 
L 231 0 
L 231 331 
L 781 331 
L 781 2988 
L 231 2988 
L 231 3322 
L 781 3322 
L 781 3738 
Q 781 4294 1070 4578 
Q 1359 4863 1919 4863 
Q 2128 4863 2337 4825 
Q 2547 4788 2753 4709 
L 2753 4078 
z
" transform="scale(0.015625)"/>
      <path id="DejaVuSerif-3a" d="M 666 325 
Q 666 500 786 622 
Q 906 744 1081 744 
Q 1256 744 1376 622 
Q 1497 500 1497 325 
Q 1497 150 1378 29 
Q 1259 -91 1081 -91 
Q 903 -91 784 29 
Q 666 150 666 325 
z
M 666 2363 
Q 666 2538 786 2658 
Q 906 2778 1081 2778 
Q 1259 2778 1378 2659 
Q 1497 2541 1497 2363 
Q 1497 2184 1378 2065 
Q 1259 1947 1081 1947 
Q 906 1947 786 2067 
Q 666 2188 666 2363 
z
" transform="scale(0.015625)"/>
      <path id="DejaVuSerif-5f" d="M 3200 -1259 
L 3200 -1509 
L 0 -1509 
L 0 -1259 
L 3200 -1259 
z
" transform="scale(0.015625)"/>
     </defs>
     <use xlink:href="#DejaVuSerif-50"/>
     <use xlink:href="#DejaVuSerif-61" transform="translate(62.785156 0)"/>
     <use xlink:href="#DejaVuSerif-72" transform="translate(122.404297 0)"/>
     <use xlink:href="#DejaVuSerif-69" transform="translate(170.207031 0)"/>
     <use xlink:href="#DejaVuSerif-73" transform="translate(202.189453 0)"/>
     <use xlink:href="#DejaVuSerif-20" transform="translate(253.507812 0)"/>
     <use xlink:href="#DejaVuSerif-72" transform="translate(285.294922 0)"/>
     <use xlink:href="#DejaVuSerif-61" transform="translate(333.097656 0)"/>
     <use xlink:href="#DejaVuSerif-6e" transform="translate(392.716797 0)"/>
     <use xlink:href="#DejaVuSerif-6b" transform="translate(457.121094 0)"/>
     <use xlink:href="#DejaVuSerif-20" transform="translate(517.716797 0)"/>
     <use xlink:href="#DejaVuSerif-73" transform="translate(549.503906 0)"/>
     <use xlink:href="#DejaVuSerif-68" transform="translate(600.822266 0)"/>
     <use xlink:href="#DejaVuSerif-69" transform="translate(665.226562 0)"/>
     <use xlink:href="#DejaVuSerif-66" transform="translate(697.208984 0)"/>
     <use xlink:href="#DejaVuSerif-74" transform="translate(734.220703 0)"/>
     <use xlink:href="#DejaVuSerif-73" transform="translate(774.40625 0)"/>
     <use xlink:href="#DejaVuSerif-3a" transform="translate(825.724609 0)"/>
     <use xlink:href="#DejaVuSerif-20" transform="translate(859.416016 0)"/>
     <use xlink:href="#DejaVuSerif-70" transform="translate(891.203125 0)"/>
     <use xlink:href="#DejaVuSerif-65" transform="translate(955.216797 0)"/>
     <use xlink:href="#DejaVuSerif-72" transform="translate(1014.396484 0)"/>
     <use xlink:href="#DejaVuSerif-73" transform="translate(1062.199219 0)"/>
     <use xlink:href="#DejaVuSerif-6f" transform="translate(1113.517578 0)"/>
     <use xlink:href="#DejaVuSerif-6e" transform="translate(1173.722656 0)"/>
     <use xlink:href="#DejaVuSerif-73" transform="translate(1238.126953 0)"/>
     <use xlink:href="#DejaVuSerif-5f" transform="translate(1289.445312 0)"/>
     <use xlink:href="#DejaVuSerif-70" transform="translate(1339.445312 0)"/>
     <use xlink:href="#DejaVuSerif-65" transform="translate(1403.458984 0)"/>
     <use xlink:href="#DejaVuSerif-72" transform="translate(1462.638672 0)"/>
     <use xlink:href="#DejaVuSerif-5f" transform="translate(1510.441406 0)"/>
     <use xlink:href="#DejaVuSerif-64" transform="translate(1560.441406 0)"/>
     <use xlink:href="#DejaVuSerif-77" transform="translate(1624.455078 0)"/>
     <use xlink:href="#DejaVuSerif-65" transform="translate(1710.050781 0)"/>
     <use xlink:href="#DejaVuSerif-6c" transform="translate(1769.230469 0)"/>
     <use xlink:href="#DejaVuSerif-6c" transform="translate(1801.212891 0)"/>
     <use xlink:href="#DejaVuSerif-69" transform="translate(1833.195312 0)"/>
     <use xlink:href="#DejaVuSerif-6e" transform="translate(1865.177734 0)"/>
     <use xlink:href="#DejaVuSerif-67" transform="translate(1929.582031 0)"/>
    </g>
   </g>
  </g>
 </g>
 <defs>
  <clipPath id="pe0b657c07f">
   <rect x="54.02" y="26.16" width="655.18" height="521.96"/>
  </clipPath>
 </defs>
</svg>
