<?xml version="1.0" encoding="utf-8" standalone="no"?>
<!DOCTYPE svg PUBLIC "-//W3C//DTD SVG 1.1//EN"
  "http://www.w3.org/Graphics/SVG/1.1/DTD/svg11.dtd">
<svg xmlns:xlink="http://www.w3.org/1999/xlink" width="648pt" height="504pt" viewBox="0 0 648 504" xmlns="http://www.w3.org/2000/svg" version="1.1">
 <metadata>
  <rdf:RDF xmlns:dc="http://purl.org/dc/elements/1.1/" xmlns:cc="http://creativecommons.org/ns#" xmlns:rdf="http://www.w3.org/1999/02/22-rdf-syntax-ns#">
   <cc:Work>
    <dc:type rdf:resource="http://purl.org/dc/dcmitype/StillImage"/>
    <dc:date>2026-05-27T19:59:22.198313</dc:date>
    <dc:format>image/svg+xml</dc:format>
    <dc:creator>
     <cc:Agent>
      <dc:title>Matplotlib v3.10.8, https://matplotlib.org/</dc:title>
     </cc:Agent>
    </dc:creator>
   </cc:Work>
  </rdf:RDF>
 </metadata>
 <defs>
  <style type="text/css">*{stroke-linejoin: round; stroke-linecap: butt}</style>
 </defs>
 <g id="figure_1">
  <g id="patch_1">
   <path d="M 0 504 
L 648 504 
L 648 0 
L 0 0 
z
" style="fill: #f1e9d6"/>
  </g>
  <g id="axes_1">
   <g id="patch_2">
    <path d="M 44.66 462.04 
L 608.35275 462.04 
L 608.35275 40.272 
L 44.66 40.272 
z
" style="fill: #fbf7eb"/>
   </g>
   <g id="PathCollection_1">
    <defs>
     <path id="m28a4aa95c4" d="M 0 3.354102 
C 0.889518 3.354102 1.742724 3.000693 2.371708 2.371708 
C 3.000693 1.742724 3.354102 0.889518 3.354102 0 
C 3.354102 -0.889518 3.000693 -1.742724 2.371708 -2.371708 
C 1.742724 -3.000693 0.889518 -3.354102 0 -3.354102 
C -0.889518 -3.354102 -1.742724 -3.000693 -2.371708 -2.371708 
C -3.000693 -1.742724 -3.354102 -0.889518 -3.354102 0 
C -3.354102 0.889518 -3.000693 1.742724 -2.371708 2.371708 
C -1.742724 3.000693 -0.889518 3.354102 0 3.354102 
z
" style="stroke: #2a2218; stroke-opacity: 0.85"/>
    </defs>
    <g clip-path="url(#p653933181d)">
     <use xlink:href="#m28a4aa95c4" x="273.66018" y="145.714" style="fill: #2a2218; fill-opacity: 0.85; stroke: #2a2218; stroke-opacity: 0.85"/>
     <use xlink:href="#m28a4aa95c4" x="273.66018" y="330.2375" style="fill: #2a2218; fill-opacity: 0.85; stroke: #2a2218; stroke-opacity: 0.85"/>
     <use xlink:href="#m28a4aa95c4" x="115.121594" y="448.85975" style="fill: #2a2218; fill-opacity: 0.85; stroke: #2a2218; stroke-opacity: 0.85"/>
     <use xlink:href="#m28a4aa95c4" x="273.66018" y="330.2375" style="fill: #2a2218; fill-opacity: 0.85; stroke: #2a2218; stroke-opacity: 0.85"/>
     <use xlink:href="#m28a4aa95c4" x="467.429563" y="79.81275" style="fill: #2a2218; fill-opacity: 0.85; stroke: #2a2218; stroke-opacity: 0.85"/>
     <use xlink:href="#m28a4aa95c4" x="115.121594" y="409.319" style="fill: #2a2218; fill-opacity: 0.85; stroke: #2a2218; stroke-opacity: 0.85"/>
     <use xlink:href="#m28a4aa95c4" x="273.66018" y="264.33625" style="fill: #2a2218; fill-opacity: 0.85; stroke: #2a2218; stroke-opacity: 0.85"/>
     <use xlink:href="#m28a4aa95c4" x="273.66018" y="264.33625" style="fill: #2a2218; fill-opacity: 0.85; stroke: #2a2218; stroke-opacity: 0.85"/>
     <use xlink:href="#m28a4aa95c4" x="467.429563" y="145.714" style="fill: #2a2218; fill-opacity: 0.85; stroke: #2a2218; stroke-opacity: 0.85"/>
     <use xlink:href="#m28a4aa95c4" x="467.429563" y="211.61525" style="fill: #2a2218; fill-opacity: 0.85; stroke: #2a2218; stroke-opacity: 0.85"/>
     <use xlink:href="#m28a4aa95c4" x="115.121594" y="409.319" style="fill: #2a2218; fill-opacity: 0.85; stroke: #2a2218; stroke-opacity: 0.85"/>
     <use xlink:href="#m28a4aa95c4" x="590.737352" y="53.45225" style="fill: #2a2218; fill-opacity: 0.85; stroke: #2a2218; stroke-opacity: 0.85"/>
     <use xlink:href="#m28a4aa95c4" x="467.429563" y="145.714" style="fill: #2a2218; fill-opacity: 0.85; stroke: #2a2218; stroke-opacity: 0.85"/>
     <use xlink:href="#m28a4aa95c4" x="467.429563" y="264.33625" style="fill: #2a2218; fill-opacity: 0.85; stroke: #2a2218; stroke-opacity: 0.85"/>
     <use xlink:href="#m28a4aa95c4" x="115.121594" y="369.77825" style="fill: #2a2218; fill-opacity: 0.85; stroke: #2a2218; stroke-opacity: 0.85"/>
     <use xlink:href="#m28a4aa95c4" x="467.429563" y="145.714" style="fill: #2a2218; fill-opacity: 0.85; stroke: #2a2218; stroke-opacity: 0.85"/>
    </g>
   </g>
   <g id="matplotlib.axis_1">
    <g id="xtick_1">
     <g id="line2d_1">
      <defs>
       <path id="mfe545d5c52" d="M 0 0 
L 0 3.5 
" style="stroke: #000000; stroke-width: 0.8"/>
      </defs>
      <g>
       <use xlink:href="#mfe545d5c52" x="97.506195" y="462.04" style="stroke: #000000; stroke-width: 0.8"/>
      </g>
     </g>
     <g id="text_1">
      <!-- 2 -->
      <g transform="translate(94.324945 476.638438) scale(0.1 -0.1)">
       <defs>
        <path id="DejaVuSerif-32" d="M 819 3553 
L 469 3553 
L 469 4384 
Q 803 4563 1142 4656 
Q 1481 4750 1806 4750 
Q 2534 4750 2956 4397 
Q 3378 4044 3378 3438 
Q 3378 2753 2422 1800 
Q 2347 1728 2309 1691 
L 1131 513 
L 3078 513 
L 3078 1088 
L 3444 1088 
L 3444 0 
L 434 0 
L 434 341 
L 1850 1753 
Q 2319 2222 2519 2614 
Q 2719 3006 2719 3438 
Q 2719 3909 2473 4175 
Q 2228 4441 1797 4441 
Q 1350 4441 1106 4219 
Q 863 3997 819 3553 
z
" transform="scale(0.015625)"/>
       </defs>
       <use xlink:href="#DejaVuSerif-32"/>
      </g>
     </g>
    </g>
    <g id="xtick_2">
     <g id="line2d_2">
      <g>
       <use xlink:href="#mfe545d5c52" x="167.967789" y="462.04" style="stroke: #000000; stroke-width: 0.8"/>
      </g>
     </g>
     <g id="text_2">
      <!-- 4 -->
      <g transform="translate(164.786539 476.638438) scale(0.1 -0.1)">
       <defs>
        <path id="DejaVuSerif-34" d="M 2234 1581 
L 2234 4063 
L 641 1581 
L 2234 1581 
z
M 3609 0 
L 1484 0 
L 1484 331 
L 2234 331 
L 2234 1247 
L 197 1247 
L 197 1588 
L 2241 4750 
L 2859 4750 
L 2859 1581 
L 3750 1581 
L 3750 1247 
L 2859 1247 
L 2859 331 
L 3609 331 
L 3609 0 
z
" transform="scale(0.015625)"/>
       </defs>
       <use xlink:href="#DejaVuSerif-34"/>
      </g>
     </g>
    </g>
    <g id="xtick_3">
     <g id="line2d_3">
      <g>
       <use xlink:href="#mfe545d5c52" x="238.429383" y="462.04" style="stroke: #000000; stroke-width: 0.8"/>
      </g>
     </g>
     <g id="text_3">
      <!-- 6 -->
      <g transform="translate(235.248133 476.638438) scale(0.1 -0.1)">
       <defs>
        <path id="DejaVuSerif-36" d="M 2094 219 
Q 2534 219 2771 542 
Q 3009 866 3009 1472 
Q 3009 2078 2771 2401 
Q 2534 2725 2094 2725 
Q 1647 2725 1412 2412 
Q 1178 2100 1178 1509 
Q 1178 888 1415 553 
Q 1653 219 2094 219 
z
M 1075 2569 
Q 1288 2803 1556 2918 
Q 1825 3034 2163 3034 
Q 2859 3034 3264 2615 
Q 3669 2197 3669 1472 
Q 3669 763 3233 336 
Q 2797 -91 2069 -91 
Q 1278 -91 853 498 
Q 428 1088 428 2181 
Q 428 3406 931 4078 
Q 1434 4750 2350 4750 
Q 2597 4750 2869 4703 
Q 3141 4656 3425 4563 
L 3425 3794 
L 3072 3794 
Q 3034 4109 2831 4275 
Q 2628 4441 2284 4441 
Q 1678 4441 1381 3981 
Q 1084 3522 1075 2569 
z
" transform="scale(0.015625)"/>
       </defs>
       <use xlink:href="#DejaVuSerif-36"/>
      </g>
     </g>
    </g>
    <g id="xtick_4">
     <g id="line2d_4">
      <g>
       <use xlink:href="#mfe545d5c52" x="308.890977" y="462.04" style="stroke: #000000; stroke-width: 0.8"/>
      </g>
     </g>
     <g id="text_4">
      <!-- 8 -->
      <g transform="translate(305.709727 476.638438) scale(0.1 -0.1)">
       <defs>
        <path id="DejaVuSerif-38" d="M 2981 1275 
Q 2981 1775 2732 2051 
Q 2484 2328 2034 2328 
Q 1584 2328 1336 2051 
Q 1088 1775 1088 1275 
Q 1088 772 1336 495 
Q 1584 219 2034 219 
Q 2484 219 2732 495 
Q 2981 772 2981 1275 
z
M 2853 3541 
Q 2853 3966 2637 4203 
Q 2422 4441 2034 4441 
Q 1650 4441 1433 4203 
Q 1216 3966 1216 3541 
Q 1216 3113 1433 2875 
Q 1650 2638 2034 2638 
Q 2422 2638 2637 2875 
Q 2853 3113 2853 3541 
z
M 2516 2484 
Q 3047 2413 3344 2092 
Q 3641 1772 3641 1275 
Q 3641 619 3225 264 
Q 2809 -91 2034 -91 
Q 1263 -91 845 264 
Q 428 619 428 1275 
Q 428 1772 725 2092 
Q 1022 2413 1556 2484 
Q 1084 2569 832 2842 
Q 581 3116 581 3541 
Q 581 4103 968 4426 
Q 1356 4750 2034 4750 
Q 2713 4750 3100 4426 
Q 3488 4103 3488 3541 
Q 3488 3116 3236 2842 
Q 2984 2569 2516 2484 
z
" transform="scale(0.015625)"/>
       </defs>
       <use xlink:href="#DejaVuSerif-38"/>
      </g>
     </g>
    </g>
    <g id="xtick_5">
     <g id="line2d_5">
      <g>
       <use xlink:href="#mfe545d5c52" x="379.35257" y="462.04" style="stroke: #000000; stroke-width: 0.8"/>
      </g>
     </g>
     <g id="text_5">
      <!-- 10 -->
      <g transform="translate(372.99007 476.638438) scale(0.1 -0.1)">
       <defs>
        <path id="DejaVuSerif-31" d="M 909 0 
L 909 331 
L 1722 331 
L 1722 4213 
L 781 3603 
L 781 4013 
L 1919 4750 
L 2350 4750 
L 2350 331 
L 3163 331 
L 3163 0 
L 909 0 
z
" transform="scale(0.015625)"/>
        <path id="DejaVuSerif-30" d="M 2034 219 
Q 2513 219 2750 744 
Q 2988 1269 2988 2328 
Q 2988 3391 2750 3916 
Q 2513 4441 2034 4441 
Q 1556 4441 1318 3916 
Q 1081 3391 1081 2328 
Q 1081 1269 1318 744 
Q 1556 219 2034 219 
z
M 2034 -91 
Q 1275 -91 848 546 
Q 422 1184 422 2328 
Q 422 3475 848 4112 
Q 1275 4750 2034 4750 
Q 2797 4750 3222 4112 
Q 3647 3475 3647 2328 
Q 3647 1184 3222 546 
Q 2797 -91 2034 -91 
z
" transform="scale(0.015625)"/>
       </defs>
       <use xlink:href="#DejaVuSerif-31"/>
       <use xlink:href="#DejaVuSerif-30" transform="translate(63.623047 0)"/>
      </g>
     </g>
    </g>
    <g id="xtick_6">
     <g id="line2d_6">
      <g>
       <use xlink:href="#mfe545d5c52" x="449.814164" y="462.04" style="stroke: #000000; stroke-width: 0.8"/>
      </g>
     </g>
     <g id="text_6">
      <!-- 12 -->
      <g transform="translate(443.451664 476.638438) scale(0.1 -0.1)">
       <use xlink:href="#DejaVuSerif-31"/>
       <use xlink:href="#DejaVuSerif-32" transform="translate(63.623047 0)"/>
      </g>
     </g>
    </g>
    <g id="xtick_7">
     <g id="line2d_7">
      <g>
       <use xlink:href="#mfe545d5c52" x="520.275758" y="462.04" style="stroke: #000000; stroke-width: 0.8"/>
      </g>
     </g>
     <g id="text_7">
      <!-- 14 -->
      <g transform="translate(513.913258 476.638438) scale(0.1 -0.1)">
       <use xlink:href="#DejaVuSerif-31"/>
       <use xlink:href="#DejaVuSerif-34" transform="translate(63.623047 0)"/>
      </g>
     </g>
    </g>
    <g id="xtick_8">
     <g id="line2d_8">
      <g>
       <use xlink:href="#mfe545d5c52" x="590.737352" y="462.04" style="stroke: #000000; stroke-width: 0.8"/>
      </g>
     </g>
     <g id="text_8">
      <!-- 16 -->
      <g transform="translate(584.374852 476.638438) scale(0.1 -0.1)">
       <use xlink:href="#DejaVuSerif-31"/>
       <use xlink:href="#DejaVuSerif-36" transform="translate(63.623047 0)"/>
      </g>
     </g>
    </g>
    <g id="text_9">
     <!-- Historical rank (1900) -->
     <g transform="translate(270.166531 490.316563) scale(0.1 -0.1)">
      <defs>
       <path id="DejaVuSerif-48" d="M 353 0 
L 353 331 
L 947 331 
L 947 4331 
L 353 4331 
L 353 4666 
L 2175 4666 
L 2175 4331 
L 1581 4331 
L 1581 2719 
L 4000 2719 
L 4000 4331 
L 3406 4331 
L 3406 4666 
L 5228 4666 
L 5228 4331 
L 4634 4331 
L 4634 331 
L 5228 331 
L 5228 0 
L 3406 0 
L 3406 331 
L 4000 331 
L 4000 2338 
L 1581 2338 
L 1581 331 
L 2175 331 
L 2175 0 
L 353 0 
z
" transform="scale(0.015625)"/>
       <path id="DejaVuSerif-69" d="M 622 4353 
Q 622 4497 726 4603 
Q 831 4709 978 4709 
Q 1122 4709 1226 4603 
Q 1331 4497 1331 4353 
Q 1331 4206 1228 4103 
Q 1125 4000 978 4000 
Q 831 4000 726 4103 
Q 622 4206 622 4353 
z
M 1356 331 
L 1900 331 
L 1900 0 
L 231 0 
L 231 331 
L 781 331 
L 781 2988 
L 231 2988 
L 231 3322 
L 1356 3322 
L 1356 331 
z
" transform="scale(0.015625)"/>
       <path id="DejaVuSerif-73" d="M 359 184 
L 359 959 
L 691 959 
Q 703 588 923 403 
Q 1144 219 1575 219 
Q 1963 219 2166 364 
Q 2369 509 2369 788 
Q 2369 1006 2220 1140 
Q 2072 1275 1594 1428 
L 1178 1569 
Q 750 1706 558 1912 
Q 366 2119 366 2438 
Q 366 2894 700 3153 
Q 1034 3413 1625 3413 
Q 1888 3413 2178 3344 
Q 2469 3275 2778 3144 
L 2778 2419 
L 2447 2419 
Q 2434 2741 2221 2922 
Q 2009 3103 1644 3103 
Q 1281 3103 1095 2975 
Q 909 2847 909 2591 
Q 909 2381 1050 2254 
Q 1191 2128 1613 1997 
L 2069 1856 
Q 2541 1709 2748 1489 
Q 2956 1269 2956 922 
Q 2956 450 2595 179 
Q 2234 -91 1600 -91 
Q 1278 -91 972 -22 
Q 666 47 359 184 
z
" transform="scale(0.015625)"/>
       <path id="DejaVuSerif-74" d="M 691 2988 
L 184 2988 
L 184 3322 
L 691 3322 
L 691 4353 
L 1269 4353 
L 1269 3322 
L 2350 3322 
L 2350 2988 
L 1269 2988 
L 1269 878 
Q 1269 456 1350 337 
Q 1431 219 1650 219 
Q 1875 219 1978 351 
Q 2081 484 2088 781 
L 2522 781 
Q 2497 328 2275 118 
Q 2053 -91 1600 -91 
Q 1103 -91 897 129 
Q 691 350 691 878 
L 691 2988 
z
" transform="scale(0.015625)"/>
       <path id="DejaVuSerif-6f" d="M 1925 219 
Q 2388 219 2623 584 
Q 2859 950 2859 1663 
Q 2859 2375 2623 2739 
Q 2388 3103 1925 3103 
Q 1463 3103 1227 2739 
Q 991 2375 991 1663 
Q 991 950 1228 584 
Q 1466 219 1925 219 
z
M 1925 -91 
Q 1200 -91 759 389 
Q 319 869 319 1663 
Q 319 2456 758 2934 
Q 1197 3413 1925 3413 
Q 2653 3413 3092 2934 
Q 3531 2456 3531 1663 
Q 3531 869 3092 389 
Q 2653 -91 1925 -91 
z
" transform="scale(0.015625)"/>
       <path id="DejaVuSerif-72" d="M 3059 3328 
L 3059 2497 
L 2728 2497 
Q 2713 2744 2591 2866 
Q 2469 2988 2234 2988 
Q 1809 2988 1582 2694 
Q 1356 2400 1356 1850 
L 1356 331 
L 2022 331 
L 2022 0 
L 263 0 
L 263 331 
L 781 331 
L 781 2994 
L 231 2994 
L 231 3322 
L 1356 3322 
L 1356 2731 
Q 1525 3078 1790 3245 
Q 2056 3413 2438 3413 
Q 2578 3413 2733 3391 
Q 2888 3369 3059 3328 
z
" transform="scale(0.015625)"/>
       <path id="DejaVuSerif-63" d="M 3291 997 
Q 3169 466 2822 187 
Q 2475 -91 1925 -91 
Q 1200 -91 759 389 
Q 319 869 319 1663 
Q 319 2459 759 2936 
Q 1200 3413 1925 3413 
Q 2241 3413 2553 3339 
Q 2866 3266 3181 3116 
L 3181 2266 
L 2847 2266 
Q 2781 2703 2561 2903 
Q 2341 3103 1931 3103 
Q 1466 3103 1228 2742 
Q 991 2381 991 1663 
Q 991 944 1227 581 
Q 1463 219 1931 219 
Q 2303 219 2525 412 
Q 2747 606 2828 997 
L 3291 997 
z
" transform="scale(0.015625)"/>
       <path id="DejaVuSerif-61" d="M 2547 1044 
L 2547 1747 
L 1806 1747 
Q 1378 1747 1168 1562 
Q 959 1378 959 997 
Q 959 650 1171 447 
Q 1384 244 1747 244 
Q 2106 244 2326 466 
Q 2547 688 2547 1044 
z
M 3122 2075 
L 3122 331 
L 3634 331 
L 3634 0 
L 2547 0 
L 2547 359 
Q 2356 128 2106 18 
Q 1856 -91 1522 -91 
Q 969 -91 644 203 
Q 319 497 319 997 
Q 319 1513 691 1797 
Q 1063 2081 1741 2081 
L 2547 2081 
L 2547 2309 
Q 2547 2688 2317 2895 
Q 2088 3103 1672 3103 
Q 1328 3103 1125 2947 
Q 922 2791 872 2484 
L 575 2484 
L 575 3156 
Q 875 3284 1158 3348 
Q 1441 3413 1709 3413 
Q 2400 3413 2761 3070 
Q 3122 2728 3122 2075 
z
" transform="scale(0.015625)"/>
       <path id="DejaVuSerif-6c" d="M 1313 331 
L 1856 331 
L 1856 0 
L 184 0 
L 184 331 
L 738 331 
L 738 4531 
L 184 4531 
L 184 4863 
L 1313 4863 
L 1313 331 
z
" transform="scale(0.015625)"/>
       <path id="DejaVuSerif-20" transform="scale(0.015625)"/>
       <path id="DejaVuSerif-6e" d="M 263 0 
L 263 331 
L 781 331 
L 781 2988 
L 231 2988 
L 231 3322 
L 1356 3322 
L 1356 2731 
Q 1516 3069 1770 3241 
Q 2025 3413 2363 3413 
Q 2913 3413 3172 3097 
Q 3431 2781 3431 2113 
L 3431 331 
L 3944 331 
L 3944 0 
L 2356 0 
L 2356 331 
L 2853 331 
L 2853 1931 
Q 2853 2541 2703 2767 
Q 2553 2994 2175 2994 
Q 1775 2994 1565 2701 
Q 1356 2409 1356 1850 
L 1356 331 
L 1856 331 
L 1856 0 
L 263 0 
z
" transform="scale(0.015625)"/>
       <path id="DejaVuSerif-6b" d="M 1831 0 
L 219 0 
L 219 331 
L 738 331 
L 738 4531 
L 184 4531 
L 184 4863 
L 1313 4863 
L 1313 1697 
L 2713 2988 
L 2234 2988 
L 2234 3322 
L 3738 3322 
L 3738 2988 
L 3169 2988 
L 2181 2075 
L 3444 331 
L 3922 331 
L 3922 0 
L 2284 0 
L 2284 331 
L 2759 331 
L 1766 1697 
L 1313 1275 
L 1313 331 
L 1831 331 
L 1831 0 
z
" transform="scale(0.015625)"/>
       <path id="DejaVuSerif-28" d="M 2041 -997 
Q 1281 -656 893 83 
Q 506 822 506 1931 
Q 506 3044 893 3783 
Q 1281 4522 2041 4863 
L 2041 4556 
Q 1559 4225 1350 3623 
Q 1141 3022 1141 1931 
Q 1141 844 1350 242 
Q 1559 -359 2041 -691 
L 2041 -997 
z
" transform="scale(0.015625)"/>
       <path id="DejaVuSerif-39" d="M 2994 2091 
Q 2784 1856 2512 1740 
Q 2241 1625 1900 1625 
Q 1206 1625 804 2044 
Q 403 2463 403 3188 
Q 403 3897 839 4323 
Q 1275 4750 2003 4750 
Q 2794 4750 3217 4161 
Q 3641 3572 3641 2478 
Q 3641 1253 3137 581 
Q 2634 -91 1722 -91 
Q 1475 -91 1203 -44 
Q 931 3 647 97 
L 647 872 
L 997 872 
Q 1038 556 1241 387 
Q 1444 219 1784 219 
Q 2391 219 2687 676 
Q 2984 1134 2994 2091 
z
M 1978 4441 
Q 1534 4441 1298 4117 
Q 1063 3794 1063 3188 
Q 1063 2581 1298 2256 
Q 1534 1931 1978 1931 
Q 2422 1931 2658 2245 
Q 2894 2559 2894 3150 
Q 2894 3772 2656 4106 
Q 2419 4441 1978 4441 
z
" transform="scale(0.015625)"/>
       <path id="DejaVuSerif-29" d="M 453 -997 
L 453 -691 
Q 934 -359 1145 242 
Q 1356 844 1356 1931 
Q 1356 3022 1145 3623 
Q 934 4225 453 4556 
L 453 4863 
Q 1216 4522 1603 3783 
Q 1991 3044 1991 1931 
Q 1991 822 1603 83 
Q 1216 -656 453 -997 
z
" transform="scale(0.015625)"/>
      </defs>
      <use xlink:href="#DejaVuSerif-48"/>
      <use xlink:href="#DejaVuSerif-69" transform="translate(87.207031 0)"/>
      <use xlink:href="#DejaVuSerif-73" transform="translate(119.189453 0)"/>
      <use xlink:href="#DejaVuSerif-74" transform="translate(170.507812 0)"/>
      <use xlink:href="#DejaVuSerif-6f" transform="translate(210.693359 0)"/>
      <use xlink:href="#DejaVuSerif-72" transform="translate(270.898438 0)"/>
      <use xlink:href="#DejaVuSerif-69" transform="translate(318.701172 0)"/>
      <use xlink:href="#DejaVuSerif-63" transform="translate(350.683594 0)"/>
      <use xlink:href="#DejaVuSerif-61" transform="translate(406.689453 0)"/>
      <use xlink:href="#DejaVuSerif-6c" transform="translate(466.308594 0)"/>
      <use xlink:href="#DejaVuSerif-20" transform="translate(498.291016 0)"/>
      <use xlink:href="#DejaVuSerif-72" transform="translate(530.078125 0)"/>
      <use xlink:href="#DejaVuSerif-61" transform="translate(577.880859 0)"/>
      <use xlink:href="#DejaVuSerif-6e" transform="translate(637.5 0)"/>
      <use xlink:href="#DejaVuSerif-6b" transform="translate(701.904297 0)"/>
      <use xlink:href="#DejaVuSerif-20" transform="translate(762.5 0)"/>
      <use xlink:href="#DejaVuSerif-28" transform="translate(794.287109 0)"/>
      <use xlink:href="#DejaVuSerif-31" transform="translate(833.300781 0)"/>
      <use xlink:href="#DejaVuSerif-39" transform="translate(896.923828 0)"/>
      <use xlink:href="#DejaVuSerif-30" transform="translate(960.546875 0)"/>
      <use xlink:href="#DejaVuSerif-30" transform="translate(1024.169922 0)"/>
      <use xlink:href="#DejaVuSerif-29" transform="translate(1087.792969 0)"/>
     </g>
    </g>
   </g>
   <g id="matplotlib.axis_2">
    <g id="ytick_1">
     <g id="line2d_9">
      <defs>
       <path id="mf27716de55" d="M 0 0 
L -3.5 0 
" style="stroke: #000000; stroke-width: 0.8"/>
      </defs>
      <g>
       <use xlink:href="#mf27716de55" x="44.66" y="422.49925" style="stroke: #000000; stroke-width: 0.8"/>
      </g>
     </g>
     <g id="text_10">
      <!-- 2 -->
      <g transform="translate(31.2975 426.298469) scale(0.1 -0.1)">
       <use xlink:href="#DejaVuSerif-32"/>
      </g>
     </g>
    </g>
    <g id="ytick_2">
     <g id="line2d_10">
      <g>
       <use xlink:href="#mf27716de55" x="44.66" y="369.77825" style="stroke: #000000; stroke-width: 0.8"/>
      </g>
     </g>
     <g id="text_11">
      <!-- 4 -->
      <g transform="translate(31.2975 373.577469) scale(0.1 -0.1)">
       <use xlink:href="#DejaVuSerif-34"/>
      </g>
     </g>
    </g>
    <g id="ytick_3">
     <g id="line2d_11">
      <g>
       <use xlink:href="#mf27716de55" x="44.66" y="317.05725" style="stroke: #000000; stroke-width: 0.8"/>
      </g>
     </g>
     <g id="text_12">
      <!-- 6 -->
      <g transform="translate(31.2975 320.856469) scale(0.1 -0.1)">
       <use xlink:href="#DejaVuSerif-36"/>
      </g>
     </g>
    </g>
    <g id="ytick_4">
     <g id="line2d_12">
      <g>
       <use xlink:href="#mf27716de55" x="44.66" y="264.33625" style="stroke: #000000; stroke-width: 0.8"/>
      </g>
     </g>
     <g id="text_13">
      <!-- 8 -->
      <g transform="translate(31.2975 268.135469) scale(0.1 -0.1)">
       <use xlink:href="#DejaVuSerif-38"/>
      </g>
     </g>
    </g>
    <g id="ytick_5">
     <g id="line2d_13">
      <g>
       <use xlink:href="#mf27716de55" x="44.66" y="211.61525" style="stroke: #000000; stroke-width: 0.8"/>
      </g>
     </g>
     <g id="text_14">
      <!-- 10 -->
      <g transform="translate(24.935 215.414469) scale(0.1 -0.1)">
       <use xlink:href="#DejaVuSerif-31"/>
       <use xlink:href="#DejaVuSerif-30" transform="translate(63.623047 0)"/>
      </g>
     </g>
    </g>
    <g id="ytick_6">
     <g id="line2d_14">
      <g>
       <use xlink:href="#mf27716de55" x="44.66" y="158.89425" style="stroke: #000000; stroke-width: 0.8"/>
      </g>
     </g>
     <g id="text_15">
      <!-- 12 -->
      <g transform="translate(24.935 162.693469) scale(0.1 -0.1)">
       <use xlink:href="#DejaVuSerif-31"/>
       <use xlink:href="#DejaVuSerif-32" transform="translate(63.623047 0)"/>
      </g>
     </g>
    </g>
    <g id="ytick_7">
     <g id="line2d_15">
      <g>
       <use xlink:href="#mf27716de55" x="44.66" y="106.17325" style="stroke: #000000; stroke-width: 0.8"/>
      </g>
     </g>
     <g id="text_16">
      <!-- 14 -->
      <g transform="translate(24.935 109.972469) scale(0.1 -0.1)">
       <use xlink:href="#DejaVuSerif-31"/>
       <use xlink:href="#DejaVuSerif-34" transform="translate(63.623047 0)"/>
      </g>
     </g>
    </g>
    <g id="ytick_8">
     <g id="line2d_16">
      <g>
       <use xlink:href="#mf27716de55" x="44.66" y="53.45225" style="stroke: #000000; stroke-width: 0.8"/>
      </g>
     </g>
     <g id="text_17">
      <!-- 16 -->
      <g transform="translate(24.935 57.251469) scale(0.1 -0.1)">
       <use xlink:href="#DejaVuSerif-31"/>
       <use xlink:href="#DejaVuSerif-36" transform="translate(63.623047 0)"/>
      </g>
     </g>
    </g>
    <g id="text_18">
     <!-- Current rank (2020) -->
     <g transform="translate(18.855312 302.596625) rotate(-90) scale(0.1 -0.1)">
      <defs>
       <path id="DejaVuSerif-43" d="M 4513 1234 
Q 4306 581 3820 245 
Q 3334 -91 2591 -91 
Q 2134 -91 1743 65 
Q 1353 222 1050 525 
Q 700 875 529 1320 
Q 359 1766 359 2328 
Q 359 3416 987 4083 
Q 1616 4750 2644 4750 
Q 3025 4750 3456 4650 
Q 3888 4550 4384 4347 
L 4384 3272 
L 4031 3272 
Q 3916 3859 3567 4137 
Q 3219 4416 2591 4416 
Q 1844 4416 1459 3886 
Q 1075 3356 1075 2328 
Q 1075 1303 1459 773 
Q 1844 244 2591 244 
Q 3113 244 3450 492 
Q 3788 741 3938 1234 
L 4513 1234 
z
" transform="scale(0.015625)"/>
       <path id="DejaVuSerif-75" d="M 2266 3322 
L 3341 3322 
L 3341 331 
L 3884 331 
L 3884 0 
L 2766 0 
L 2766 588 
Q 2606 256 2353 82 
Q 2100 -91 1766 -91 
Q 1213 -91 952 223 
Q 691 538 691 1209 
L 691 2988 
L 172 2988 
L 172 3322 
L 1269 3322 
L 1269 1388 
Q 1269 781 1417 556 
Q 1566 331 1947 331 
Q 2347 331 2556 625 
Q 2766 919 2766 1478 
L 2766 2988 
L 2266 2988 
L 2266 3322 
z
" transform="scale(0.015625)"/>
       <path id="DejaVuSerif-65" d="M 3469 1600 
L 991 1600 
L 991 1575 
Q 991 903 1244 561 
Q 1497 219 1991 219 
Q 2369 219 2611 417 
Q 2853 616 2950 1006 
L 3413 1006 
Q 3275 459 2904 184 
Q 2534 -91 1931 -91 
Q 1203 -91 761 389 
Q 319 869 319 1663 
Q 319 2450 753 2931 
Q 1188 3413 1894 3413 
Q 2647 3413 3050 2948 
Q 3453 2484 3469 1600 
z
M 2791 1931 
Q 2772 2513 2545 2808 
Q 2319 3103 1894 3103 
Q 1497 3103 1269 2806 
Q 1041 2509 991 1931 
L 2791 1931 
z
" transform="scale(0.015625)"/>
      </defs>
      <use xlink:href="#DejaVuSerif-43"/>
      <use xlink:href="#DejaVuSerif-75" transform="translate(76.513672 0)"/>
      <use xlink:href="#DejaVuSerif-72" transform="translate(140.917969 0)"/>
      <use xlink:href="#DejaVuSerif-72" transform="translate(188.720703 0)"/>
      <use xlink:href="#DejaVuSerif-65" transform="translate(236.523438 0)"/>
      <use xlink:href="#DejaVuSerif-6e" transform="translate(295.703125 0)"/>
      <use xlink:href="#DejaVuSerif-74" transform="translate(360.107422 0)"/>
      <use xlink:href="#DejaVuSerif-20" transform="translate(400.292969 0)"/>
      <use xlink:href="#DejaVuSerif-72" transform="translate(432.080078 0)"/>
      <use xlink:href="#DejaVuSerif-61" transform="translate(479.882812 0)"/>
      <use xlink:href="#DejaVuSerif-6e" transform="translate(539.501953 0)"/>
      <use xlink:href="#DejaVuSerif-6b" transform="translate(603.90625 0)"/>
      <use xlink:href="#DejaVuSerif-20" transform="translate(664.501953 0)"/>
      <use xlink:href="#DejaVuSerif-28" transform="translate(696.289062 0)"/>
      <use xlink:href="#DejaVuSerif-32" transform="translate(735.302734 0)"/>
      <use xlink:href="#DejaVuSerif-30" transform="translate(798.925781 0)"/>
      <use xlink:href="#DejaVuSerif-32" transform="translate(862.548828 0)"/>
      <use xlink:href="#DejaVuSerif-30" transform="translate(926.171875 0)"/>
      <use xlink:href="#DejaVuSerif-29" transform="translate(989.794922 0)"/>
     </g>
    </g>
   </g>
   <g id="line2d_17">
    <path d="M 44.66 462.04 
L 608.35275 40.272 
" clip-path="url(#p653933181d)" style="fill: none; stroke-dasharray: 5.55,2.4; stroke-dashoffset: 0; stroke: #7a1f2b; stroke-opacity: 0.8; stroke-width: 1.5"/>
   </g>
   <g id="patch_3">
    <path d="M 44.66 462.04 
L 44.66 40.272 
" style="fill: none; stroke: #000000; stroke-width: 0.8; stroke-linejoin: miter; stroke-linecap: square"/>
   </g>
   <g id="patch_4">
    <path d="M 608.35275 462.04 
L 608.35275 40.272 
" style="fill: none; stroke: #000000; stroke-width: 0.8; stroke-linejoin: miter; stroke-linecap: square"/>
   </g>
   <g id="patch_5">
    <path d="M 44.66 462.04 
L 608.35275 462.04 
" style="fill: none; stroke: #000000; stroke-width: 0.8; stroke-linejoin: miter; stroke-linecap: square"/>
   </g>
   <g id="patch_6">
    <path d="M 44.66 40.272 
L 608.35275 40.272 
" style="fill: none; stroke: #000000; stroke-width: 0.8; stroke-linejoin: miter; stroke-linecap: square"/>
   </g>
   <g id="text_19">
    <!-- Álvaro Obregón -->
    <g transform="translate(276.478643 143.60516) scale(0.08 -0.08)">
     <defs>
      <path id="DejaVuSerif-c1" d="M 1281 1691 
L 2994 1691 
L 2138 3909 
L 1281 1691 
z
M -38 0 
L -38 331 
L 372 331 
L 2034 4666 
L 2559 4666 
L 4225 331 
L 4684 331 
L 4684 0 
L 2988 0 
L 2988 331 
L 3506 331 
L 3116 1356 
L 1153 1356 
L 763 331 
L 1275 331 
L 1275 0 
L -38 0 
z
M 2509 5921 
L 3125 5921 
L 2306 5096 
L 1940 5096 
L 2509 5921 
z
" transform="scale(0.015625)"/>
      <path id="DejaVuSerif-76" d="M 1581 0 
L 359 2988 
L -19 2988 
L -19 3322 
L 1509 3322 
L 1509 2988 
L 978 2988 
L 1913 703 
L 2847 2988 
L 2350 2988 
L 2350 3322 
L 3597 3322 
L 3597 2988 
L 3225 2988 
L 2003 0 
L 1581 0 
z
" transform="scale(0.015625)"/>
      <path id="DejaVuSerif-4f" d="M 2625 244 
Q 3391 244 3781 770 
Q 4172 1297 4172 2328 
Q 4172 3363 3781 3889 
Q 3391 4416 2625 4416 
Q 1856 4416 1465 3889 
Q 1075 3363 1075 2328 
Q 1075 1297 1465 770 
Q 1856 244 2625 244 
z
M 2625 -91 
Q 2150 -91 1751 65 
Q 1353 222 1050 525 
Q 700 875 529 1319 
Q 359 1763 359 2328 
Q 359 2894 529 3339 
Q 700 3784 1050 4134 
Q 1356 4441 1750 4595 
Q 2144 4750 2625 4750 
Q 3641 4750 4266 4084 
Q 4891 3419 4891 2328 
Q 4891 1769 4719 1320 
Q 4547 872 4197 525 
Q 3891 219 3497 64 
Q 3103 -91 2625 -91 
z
" transform="scale(0.015625)"/>
      <path id="DejaVuSerif-62" d="M 738 331 
L 738 4531 
L 184 4531 
L 184 4863 
L 1313 4863 
L 1313 2803 
Q 1481 3116 1742 3264 
Q 2003 3413 2388 3413 
Q 3000 3413 3387 2928 
Q 3775 2444 3775 1663 
Q 3775 881 3387 395 
Q 3000 -91 2388 -91 
Q 2003 -91 1742 57 
Q 1481 206 1313 519 
L 1313 0 
L 184 0 
L 184 331 
L 738 331 
z
M 1313 1497 
Q 1313 897 1542 583 
Q 1772 269 2209 269 
Q 2650 269 2876 622 
Q 3103 975 3103 1663 
Q 3103 2353 2876 2703 
Q 2650 3053 2209 3053 
Q 1772 3053 1542 2737 
Q 1313 2422 1313 1825 
L 1313 1497 
z
" transform="scale(0.015625)"/>
      <path id="DejaVuSerif-67" d="M 3359 2988 
L 3359 72 
Q 3359 -644 2965 -1033 
Q 2572 -1422 1844 -1422 
Q 1516 -1422 1216 -1362 
Q 916 -1303 641 -1184 
L 641 -488 
L 941 -488 
Q 997 -813 1206 -963 
Q 1416 -1113 1806 -1113 
Q 2313 -1113 2548 -827 
Q 2784 -541 2784 72 
L 2784 519 
Q 2616 206 2355 57 
Q 2094 -91 1709 -91 
Q 1097 -91 708 395 
Q 319 881 319 1663 
Q 319 2444 706 2928 
Q 1094 3413 1709 3413 
Q 2094 3413 2355 3264 
Q 2616 3116 2784 2803 
L 2784 3322 
L 3909 3322 
L 3909 2988 
L 3359 2988 
z
M 2784 1825 
Q 2784 2422 2554 2737 
Q 2325 3053 1888 3053 
Q 1444 3053 1217 2703 
Q 991 2353 991 1663 
Q 991 975 1217 622 
Q 1444 269 1888 269 
Q 2325 269 2554 583 
Q 2784 897 2784 1497 
L 2784 1825 
z
" transform="scale(0.015625)"/>
      <path id="DejaVuSerif-f3" d="M 1925 219 
Q 2388 219 2623 584 
Q 2859 950 2859 1663 
Q 2859 2375 2623 2739 
Q 2388 3103 1925 3103 
Q 1463 3103 1227 2739 
Q 991 2375 991 1663 
Q 991 950 1228 584 
Q 1466 219 1925 219 
z
M 1925 -91 
Q 1200 -91 759 389 
Q 319 869 319 1663 
Q 319 2456 758 2934 
Q 1197 3413 1925 3413 
Q 2653 3413 3092 2934 
Q 3531 2456 3531 1663 
Q 3531 869 3092 389 
Q 2653 -91 1925 -91 
z
M 2362 5119 
L 2984 5119 
L 1922 3944 
L 1556 3944 
L 2362 5119 
z
" transform="scale(0.015625)"/>
     </defs>
     <use xlink:href="#DejaVuSerif-c1"/>
     <use xlink:href="#DejaVuSerif-6c" transform="translate(72.216797 0)"/>
     <use xlink:href="#DejaVuSerif-76" transform="translate(104.199219 0)"/>
     <use xlink:href="#DejaVuSerif-61" transform="translate(160.693359 0)"/>
     <use xlink:href="#DejaVuSerif-72" transform="translate(220.3125 0)"/>
     <use xlink:href="#DejaVuSerif-6f" transform="translate(268.115234 0)"/>
     <use xlink:href="#DejaVuSerif-20" transform="translate(328.320312 0)"/>
     <use xlink:href="#DejaVuSerif-4f" transform="translate(360.107422 0)"/>
     <use xlink:href="#DejaVuSerif-62" transform="translate(442.089844 0)"/>
     <use xlink:href="#DejaVuSerif-72" transform="translate(506.103516 0)"/>
     <use xlink:href="#DejaVuSerif-65" transform="translate(553.90625 0)"/>
     <use xlink:href="#DejaVuSerif-67" transform="translate(613.085938 0)"/>
     <use xlink:href="#DejaVuSerif-f3" transform="translate(677.099609 0)"/>
     <use xlink:href="#DejaVuSerif-6e" transform="translate(737.304688 0)"/>
    </g>
   </g>
   <g id="text_20">
    <!-- Azcapotzalco -->
    <g transform="translate(276.478643 328.12866) scale(0.08 -0.08)">
     <defs>
      <path id="DejaVuSerif-41" d="M 1281 1691 
L 2994 1691 
L 2138 3909 
L 1281 1691 
z
M -38 0 
L -38 331 
L 372 331 
L 2034 4666 
L 2559 4666 
L 4225 331 
L 4684 331 
L 4684 0 
L 2988 0 
L 2988 331 
L 3506 331 
L 3116 1356 
L 1153 1356 
L 763 331 
L 1275 331 
L 1275 0 
L -38 0 
z
" transform="scale(0.015625)"/>
      <path id="DejaVuSerif-7a" d="M 256 0 
L 256 269 
L 2338 2988 
L 691 2988 
L 691 2413 
L 359 2413 
L 359 3322 
L 3078 3322 
L 3078 3053 
L 997 331 
L 2803 331 
L 2803 934 
L 3138 934 
L 3138 0 
L 256 0 
z
" transform="scale(0.015625)"/>
      <path id="DejaVuSerif-70" d="M 1313 1825 
L 1313 1497 
Q 1313 897 1542 583 
Q 1772 269 2209 269 
Q 2650 269 2876 622 
Q 3103 975 3103 1663 
Q 3103 2353 2876 2703 
Q 2650 3053 2209 3053 
Q 1772 3053 1542 2737 
Q 1313 2422 1313 1825 
z
M 738 2988 
L 184 2988 
L 184 3322 
L 1313 3322 
L 1313 2803 
Q 1481 3116 1742 3264 
Q 2003 3413 2388 3413 
Q 3000 3413 3387 2928 
Q 3775 2444 3775 1663 
Q 3775 881 3387 395 
Q 3000 -91 2388 -91 
Q 2003 -91 1742 57 
Q 1481 206 1313 519 
L 1313 -997 
L 1856 -997 
L 1856 -1331 
L 184 -1331 
L 184 -997 
L 738 -997 
L 738 2988 
z
" transform="scale(0.015625)"/>
     </defs>
     <use xlink:href="#DejaVuSerif-41"/>
     <use xlink:href="#DejaVuSerif-7a" transform="translate(72.216797 0)"/>
     <use xlink:href="#DejaVuSerif-63" transform="translate(124.902344 0)"/>
     <use xlink:href="#DejaVuSerif-61" transform="translate(180.908203 0)"/>
     <use xlink:href="#DejaVuSerif-70" transform="translate(240.527344 0)"/>
     <use xlink:href="#DejaVuSerif-6f" transform="translate(304.541016 0)"/>
     <use xlink:href="#DejaVuSerif-74" transform="translate(364.746094 0)"/>
     <use xlink:href="#DejaVuSerif-7a" transform="translate(404.931641 0)"/>
     <use xlink:href="#DejaVuSerif-61" transform="translate(457.617188 0)"/>
     <use xlink:href="#DejaVuSerif-6c" transform="translate(517.236328 0)"/>
     <use xlink:href="#DejaVuSerif-63" transform="translate(549.21875 0)"/>
     <use xlink:href="#DejaVuSerif-6f" transform="translate(605.224609 0)"/>
    </g>
   </g>
   <g id="text_21">
    <!-- Benito Juárez -->
    <g transform="translate(117.940058 446.75091) scale(0.08 -0.08)">
     <defs>
      <path id="DejaVuSerif-42" d="M 1581 331 
L 2516 331 
Q 3078 331 3337 575 
Q 3597 819 3597 1350 
Q 3597 1878 3339 2120 
Q 3081 2363 2516 2363 
L 1581 2363 
L 1581 331 
z
M 1581 2694 
L 2375 2694 
Q 2888 2694 3123 2891 
Q 3359 3088 3359 3513 
Q 3359 3941 3123 4136 
Q 2888 4331 2375 4331 
L 1581 4331 
L 1581 2694 
z
M 353 0 
L 353 331 
L 947 331 
L 947 4331 
L 353 4331 
L 353 4666 
L 2656 4666 
Q 3363 4666 3720 4377 
Q 4078 4088 4078 3513 
Q 4078 3097 3829 2850 
Q 3581 2603 3103 2547 
Q 3697 2472 4005 2167 
Q 4313 1863 4313 1350 
Q 4313 656 3875 328 
Q 3438 0 2509 0 
L 353 0 
z
" transform="scale(0.015625)"/>
      <path id="DejaVuSerif-4a" d="M -538 -1119 
L -538 -384 
L -181 -384 
Q -172 -694 -34 -845 
Q 103 -997 378 -997 
Q 750 -997 897 -762 
Q 1044 -528 1044 153 
L 1044 4331 
L 319 4331 
L 319 4666 
L 2272 4666 
L 2272 4331 
L 1678 4331 
L 1678 128 
Q 1678 -644 1368 -987 
Q 1059 -1331 372 -1331 
Q 150 -1331 -79 -1278 
Q -309 -1225 -538 -1119 
z
" transform="scale(0.015625)"/>
      <path id="DejaVuSerif-e1" d="M 2547 1044 
L 2547 1747 
L 1806 1747 
Q 1378 1747 1168 1562 
Q 959 1378 959 997 
Q 959 650 1171 447 
Q 1384 244 1747 244 
Q 2106 244 2326 466 
Q 2547 688 2547 1044 
z
M 3122 2075 
L 3122 331 
L 3634 331 
L 3634 0 
L 2547 0 
L 2547 359 
Q 2356 128 2106 18 
Q 1856 -91 1522 -91 
Q 969 -91 644 203 
Q 319 497 319 997 
Q 319 1513 691 1797 
Q 1063 2081 1741 2081 
L 2547 2081 
L 2547 2309 
Q 2547 2688 2317 2895 
Q 2088 3103 1672 3103 
Q 1328 3103 1125 2947 
Q 922 2791 872 2484 
L 575 2484 
L 575 3156 
Q 875 3284 1158 3348 
Q 1441 3413 1709 3413 
Q 2400 3413 2761 3070 
Q 3122 2728 3122 2075 
z
M 2210 5119 
L 2832 5119 
L 1770 3944 
L 1404 3944 
L 2210 5119 
z
" transform="scale(0.015625)"/>
     </defs>
     <use xlink:href="#DejaVuSerif-42"/>
     <use xlink:href="#DejaVuSerif-65" transform="translate(73.486328 0)"/>
     <use xlink:href="#DejaVuSerif-6e" transform="translate(132.666016 0)"/>
     <use xlink:href="#DejaVuSerif-69" transform="translate(197.070312 0)"/>
     <use xlink:href="#DejaVuSerif-74" transform="translate(229.052734 0)"/>
     <use xlink:href="#DejaVuSerif-6f" transform="translate(269.238281 0)"/>
     <use xlink:href="#DejaVuSerif-20" transform="translate(329.443359 0)"/>
     <use xlink:href="#DejaVuSerif-4a" transform="translate(361.230469 0)"/>
     <use xlink:href="#DejaVuSerif-75" transform="translate(401.318359 0)"/>
     <use xlink:href="#DejaVuSerif-e1" transform="translate(465.722656 0)"/>
     <use xlink:href="#DejaVuSerif-72" transform="translate(525.341797 0)"/>
     <use xlink:href="#DejaVuSerif-65" transform="translate(573.144531 0)"/>
     <use xlink:href="#DejaVuSerif-7a" transform="translate(632.324219 0)"/>
    </g>
   </g>
   <g id="text_22">
    <!-- Coyoacán -->
    <g transform="translate(276.478643 328.12866) scale(0.08 -0.08)">
     <defs>
      <path id="DejaVuSerif-79" d="M 1381 -609 
L 1600 -56 
L 359 2988 
L -19 2988 
L -19 3322 
L 1509 3322 
L 1509 2988 
L 978 2988 
L 1913 703 
L 2847 2988 
L 2350 2988 
L 2350 3322 
L 3597 3322 
L 3597 2988 
L 3225 2988 
L 1703 -750 
Q 1547 -1138 1356 -1280 
Q 1166 -1422 819 -1422 
Q 672 -1422 517 -1397 
Q 363 -1372 206 -1325 
L 206 -691 
L 500 -691 
Q 519 -903 608 -995 
Q 697 -1088 884 -1088 
Q 1056 -1088 1161 -992 
Q 1266 -897 1381 -609 
z
" transform="scale(0.015625)"/>
     </defs>
     <use xlink:href="#DejaVuSerif-43"/>
     <use xlink:href="#DejaVuSerif-6f" transform="translate(76.513672 0)"/>
     <use xlink:href="#DejaVuSerif-79" transform="translate(136.71875 0)"/>
     <use xlink:href="#DejaVuSerif-6f" transform="translate(193.212891 0)"/>
     <use xlink:href="#DejaVuSerif-61" transform="translate(253.417969 0)"/>
     <use xlink:href="#DejaVuSerif-63" transform="translate(313.037109 0)"/>
     <use xlink:href="#DejaVuSerif-e1" transform="translate(369.042969 0)"/>
     <use xlink:href="#DejaVuSerif-6e" transform="translate(428.662109 0)"/>
    </g>
   </g>
   <g id="text_23">
    <!-- Cuajimalpa de Morelos -->
    <g transform="translate(470.248026 77.70391) scale(0.08 -0.08)">
     <defs>
      <path id="DejaVuSerif-6a" d="M 641 4353 
Q 641 4497 745 4603 
Q 850 4709 997 4709 
Q 1141 4709 1245 4603 
Q 1350 4497 1350 4353 
Q 1350 4206 1248 4103 
Q 1147 4000 997 4000 
Q 850 4000 745 4103 
Q 641 4206 641 4353 
z
M 781 2988 
L 238 2988 
L 238 3322 
L 1356 3322 
L 1356 -325 
Q 1356 -838 1051 -1130 
Q 747 -1422 213 -1422 
Q -13 -1422 -217 -1370 
Q -422 -1319 -616 -1216 
L -616 -531 
L -319 -531 
Q -297 -831 -164 -972 
Q -31 -1113 225 -1113 
Q 509 -1113 645 -920 
Q 781 -728 781 -325 
L 781 2988 
z
" transform="scale(0.015625)"/>
      <path id="DejaVuSerif-6d" d="M 3316 2675 
Q 3481 3041 3739 3227 
Q 3997 3413 4341 3413 
Q 4863 3413 5119 3089 
Q 5375 2766 5375 2113 
L 5375 331 
L 5894 331 
L 5894 0 
L 4300 0 
L 4300 331 
L 4800 331 
L 4800 2047 
Q 4800 2556 4650 2772 
Q 4500 2988 4153 2988 
Q 3769 2988 3567 2697 
Q 3366 2406 3366 1850 
L 3366 331 
L 3866 331 
L 3866 0 
L 2291 0 
L 2291 331 
L 2791 331 
L 2791 2069 
Q 2791 2566 2641 2777 
Q 2491 2988 2144 2988 
Q 1759 2988 1557 2697 
Q 1356 2406 1356 1850 
L 1356 331 
L 1856 331 
L 1856 0 
L 263 0 
L 263 331 
L 781 331 
L 781 2994 
L 231 2994 
L 231 3322 
L 1356 3322 
L 1356 2731 
Q 1516 3063 1762 3238 
Q 2009 3413 2322 3413 
Q 2709 3413 2968 3220 
Q 3228 3028 3316 2675 
z
" transform="scale(0.015625)"/>
      <path id="DejaVuSerif-64" d="M 3359 331 
L 3909 331 
L 3909 0 
L 2784 0 
L 2784 519 
Q 2616 206 2355 57 
Q 2094 -91 1709 -91 
Q 1097 -91 708 395 
Q 319 881 319 1663 
Q 319 2444 706 2928 
Q 1094 3413 1709 3413 
Q 2094 3413 2355 3264 
Q 2616 3116 2784 2803 
L 2784 4531 
L 2241 4531 
L 2241 4863 
L 3359 4863 
L 3359 331 
z
M 2784 1497 
L 2784 1825 
Q 2784 2422 2554 2737 
Q 2325 3053 1888 3053 
Q 1444 3053 1217 2703 
Q 991 2353 991 1663 
Q 991 975 1217 622 
Q 1444 269 1888 269 
Q 2325 269 2554 583 
Q 2784 897 2784 1497 
z
" transform="scale(0.015625)"/>
      <path id="DejaVuSerif-4d" d="M 353 0 
L 353 331 
L 947 331 
L 947 4331 
L 319 4331 
L 319 4666 
L 1678 4666 
L 3316 1344 
L 4953 4666 
L 6228 4666 
L 6228 4331 
L 5606 4331 
L 5606 331 
L 6203 331 
L 6203 0 
L 4378 0 
L 4378 331 
L 4972 331 
L 4972 3938 
L 3372 684 
L 2931 684 
L 1331 3938 
L 1331 331 
L 1925 331 
L 1925 0 
L 353 0 
z
" transform="scale(0.015625)"/>
     </defs>
     <use xlink:href="#DejaVuSerif-43"/>
     <use xlink:href="#DejaVuSerif-75" transform="translate(76.513672 0)"/>
     <use xlink:href="#DejaVuSerif-61" transform="translate(140.917969 0)"/>
     <use xlink:href="#DejaVuSerif-6a" transform="translate(200.537109 0)"/>
     <use xlink:href="#DejaVuSerif-69" transform="translate(231.542969 0)"/>
     <use xlink:href="#DejaVuSerif-6d" transform="translate(263.525391 0)"/>
     <use xlink:href="#DejaVuSerif-61" transform="translate(358.349609 0)"/>
     <use xlink:href="#DejaVuSerif-6c" transform="translate(417.96875 0)"/>
     <use xlink:href="#DejaVuSerif-70" transform="translate(449.951172 0)"/>
     <use xlink:href="#DejaVuSerif-61" transform="translate(513.964844 0)"/>
     <use xlink:href="#DejaVuSerif-20" transform="translate(573.583984 0)"/>
     <use xlink:href="#DejaVuSerif-64" transform="translate(605.371094 0)"/>
     <use xlink:href="#DejaVuSerif-65" transform="translate(669.384766 0)"/>
     <use xlink:href="#DejaVuSerif-20" transform="translate(728.564453 0)"/>
     <use xlink:href="#DejaVuSerif-4d" transform="translate(760.351562 0)"/>
     <use xlink:href="#DejaVuSerif-6f" transform="translate(862.744141 0)"/>
     <use xlink:href="#DejaVuSerif-72" transform="translate(922.949219 0)"/>
     <use xlink:href="#DejaVuSerif-65" transform="translate(970.751953 0)"/>
     <use xlink:href="#DejaVuSerif-6c" transform="translate(1029.931641 0)"/>
     <use xlink:href="#DejaVuSerif-6f" transform="translate(1061.914062 0)"/>
     <use xlink:href="#DejaVuSerif-73" transform="translate(1122.119141 0)"/>
    </g>
   </g>
   <g id="text_24">
    <!-- Cuauhtémoc -->
    <g transform="translate(117.940058 407.21016) scale(0.08 -0.08)">
     <defs>
      <path id="DejaVuSerif-68" d="M 263 0 
L 263 331 
L 781 331 
L 781 4531 
L 231 4531 
L 231 4863 
L 1356 4863 
L 1356 2731 
Q 1516 3069 1770 3241 
Q 2025 3413 2363 3413 
Q 2913 3413 3172 3097 
Q 3431 2781 3431 2113 
L 3431 331 
L 3944 331 
L 3944 0 
L 2356 0 
L 2356 331 
L 2853 331 
L 2853 1931 
Q 2853 2541 2704 2764 
Q 2556 2988 2175 2988 
Q 1775 2988 1565 2697 
Q 1356 2406 1356 1850 
L 1356 331 
L 1856 331 
L 1856 0 
L 263 0 
z
" transform="scale(0.015625)"/>
      <path id="DejaVuSerif-e9" d="M 3469 1600 
L 991 1600 
L 991 1575 
Q 991 903 1244 561 
Q 1497 219 1991 219 
Q 2369 219 2611 417 
Q 2853 616 2950 1006 
L 3413 1006 
Q 3275 459 2904 184 
Q 2534 -91 1931 -91 
Q 1203 -91 761 389 
Q 319 869 319 1663 
Q 319 2450 753 2931 
Q 1188 3413 1894 3413 
Q 2647 3413 3050 2948 
Q 3453 2484 3469 1600 
z
M 2791 1931 
Q 2772 2513 2545 2808 
Q 2319 3103 1894 3103 
Q 1497 3103 1269 2806 
Q 1041 2509 991 1931 
L 2791 1931 
z
M 2330 5119 
L 2952 5119 
L 1890 3944 
L 1524 3944 
L 2330 5119 
z
" transform="scale(0.015625)"/>
     </defs>
     <use xlink:href="#DejaVuSerif-43"/>
     <use xlink:href="#DejaVuSerif-75" transform="translate(76.513672 0)"/>
     <use xlink:href="#DejaVuSerif-61" transform="translate(140.917969 0)"/>
     <use xlink:href="#DejaVuSerif-75" transform="translate(200.537109 0)"/>
     <use xlink:href="#DejaVuSerif-68" transform="translate(264.941406 0)"/>
     <use xlink:href="#DejaVuSerif-74" transform="translate(329.345703 0)"/>
     <use xlink:href="#DejaVuSerif-e9" transform="translate(369.53125 0)"/>
     <use xlink:href="#DejaVuSerif-6d" transform="translate(428.710938 0)"/>
     <use xlink:href="#DejaVuSerif-6f" transform="translate(523.535156 0)"/>
     <use xlink:href="#DejaVuSerif-63" transform="translate(583.740234 0)"/>
    </g>
   </g>
   <g id="text_25">
    <!-- Gustavo A. Madero -->
    <g transform="translate(276.478643 262.22741) scale(0.08 -0.08)">
     <defs>
      <path id="DejaVuSerif-47" d="M 4097 3272 
Q 3988 3856 3641 4136 
Q 3294 4416 2675 4416 
Q 1869 4416 1472 3897 
Q 1075 3378 1075 2328 
Q 1075 1300 1484 772 
Q 1894 244 2688 244 
Q 3041 244 3362 331 
Q 3684 419 3975 594 
L 3975 1797 
L 3097 1797 
L 3097 2131 
L 4609 2131 
L 4609 391 
Q 4194 150 3714 29 
Q 3234 -91 2688 -91 
Q 1631 -91 995 570 
Q 359 1231 359 2328 
Q 359 3434 996 4092 
Q 1634 4750 2713 4750 
Q 3113 4750 3539 4658 
Q 3966 4566 4447 4378 
L 4447 3272 
L 4097 3272 
z
" transform="scale(0.015625)"/>
      <path id="DejaVuSerif-2e" d="M 603 325 
Q 603 500 722 622 
Q 841 744 1019 744 
Q 1191 744 1312 622 
Q 1434 500 1434 325 
Q 1434 153 1312 31 
Q 1191 -91 1019 -91 
Q 841 -91 722 29 
Q 603 150 603 325 
z
" transform="scale(0.015625)"/>
     </defs>
     <use xlink:href="#DejaVuSerif-47"/>
     <use xlink:href="#DejaVuSerif-75" transform="translate(79.882812 0)"/>
     <use xlink:href="#DejaVuSerif-73" transform="translate(144.287109 0)"/>
     <use xlink:href="#DejaVuSerif-74" transform="translate(195.605469 0)"/>
     <use xlink:href="#DejaVuSerif-61" transform="translate(235.791016 0)"/>
     <use xlink:href="#DejaVuSerif-76" transform="translate(295.410156 0)"/>
     <use xlink:href="#DejaVuSerif-6f" transform="translate(351.904297 0)"/>
     <use xlink:href="#DejaVuSerif-20" transform="translate(412.109375 0)"/>
     <use xlink:href="#DejaVuSerif-41" transform="translate(443.896484 0)"/>
     <use xlink:href="#DejaVuSerif-2e" transform="translate(516.113281 0)"/>
     <use xlink:href="#DejaVuSerif-20" transform="translate(547.900391 0)"/>
     <use xlink:href="#DejaVuSerif-4d" transform="translate(579.6875 0)"/>
     <use xlink:href="#DejaVuSerif-61" transform="translate(682.080078 0)"/>
     <use xlink:href="#DejaVuSerif-64" transform="translate(741.699219 0)"/>
     <use xlink:href="#DejaVuSerif-65" transform="translate(805.712891 0)"/>
     <use xlink:href="#DejaVuSerif-72" transform="translate(864.892578 0)"/>
     <use xlink:href="#DejaVuSerif-6f" transform="translate(912.695312 0)"/>
    </g>
   </g>
   <g id="text_26">
    <!-- Iztacalco -->
    <g transform="translate(276.478643 262.22741) scale(0.08 -0.08)">
     <defs>
      <path id="DejaVuSerif-49" d="M 1581 331 
L 2175 331 
L 2175 0 
L 353 0 
L 353 331 
L 947 331 
L 947 4331 
L 353 4331 
L 353 4666 
L 2175 4666 
L 2175 4331 
L 1581 4331 
L 1581 331 
z
" transform="scale(0.015625)"/>
     </defs>
     <use xlink:href="#DejaVuSerif-49"/>
     <use xlink:href="#DejaVuSerif-7a" transform="translate(39.501953 0)"/>
     <use xlink:href="#DejaVuSerif-74" transform="translate(92.1875 0)"/>
     <use xlink:href="#DejaVuSerif-61" transform="translate(132.373047 0)"/>
     <use xlink:href="#DejaVuSerif-63" transform="translate(191.992188 0)"/>
     <use xlink:href="#DejaVuSerif-61" transform="translate(247.998047 0)"/>
     <use xlink:href="#DejaVuSerif-6c" transform="translate(307.617188 0)"/>
     <use xlink:href="#DejaVuSerif-63" transform="translate(339.599609 0)"/>
     <use xlink:href="#DejaVuSerif-6f" transform="translate(395.605469 0)"/>
    </g>
   </g>
   <g id="text_27">
    <!-- Iztapalapa -->
    <g transform="translate(470.248026 143.60516) scale(0.08 -0.08)">
     <use xlink:href="#DejaVuSerif-49"/>
     <use xlink:href="#DejaVuSerif-7a" transform="translate(39.501953 0)"/>
     <use xlink:href="#DejaVuSerif-74" transform="translate(92.1875 0)"/>
     <use xlink:href="#DejaVuSerif-61" transform="translate(132.373047 0)"/>
     <use xlink:href="#DejaVuSerif-70" transform="translate(191.992188 0)"/>
     <use xlink:href="#DejaVuSerif-61" transform="translate(256.005859 0)"/>
     <use xlink:href="#DejaVuSerif-6c" transform="translate(315.625 0)"/>
     <use xlink:href="#DejaVuSerif-61" transform="translate(347.607422 0)"/>
     <use xlink:href="#DejaVuSerif-70" transform="translate(407.226562 0)"/>
     <use xlink:href="#DejaVuSerif-61" transform="translate(471.240234 0)"/>
    </g>
   </g>
   <g id="text_28">
    <!-- La Magdalena Contreras -->
    <g transform="translate(470.248026 209.50641) scale(0.08 -0.08)">
     <defs>
      <path id="DejaVuSerif-4c" d="M 353 0 
L 353 331 
L 947 331 
L 947 4331 
L 353 4331 
L 353 4666 
L 2175 4666 
L 2175 4331 
L 1581 4331 
L 1581 384 
L 3713 384 
L 3713 1166 
L 4097 1166 
L 4097 0 
L 353 0 
z
" transform="scale(0.015625)"/>
     </defs>
     <use xlink:href="#DejaVuSerif-4c"/>
     <use xlink:href="#DejaVuSerif-61" transform="translate(66.40625 0)"/>
     <use xlink:href="#DejaVuSerif-20" transform="translate(126.025391 0)"/>
     <use xlink:href="#DejaVuSerif-4d" transform="translate(157.8125 0)"/>
     <use xlink:href="#DejaVuSerif-61" transform="translate(260.205078 0)"/>
     <use xlink:href="#DejaVuSerif-67" transform="translate(319.824219 0)"/>
     <use xlink:href="#DejaVuSerif-64" transform="translate(383.837891 0)"/>
     <use xlink:href="#DejaVuSerif-61" transform="translate(447.851562 0)"/>
     <use xlink:href="#DejaVuSerif-6c" transform="translate(507.470703 0)"/>
     <use xlink:href="#DejaVuSerif-65" transform="translate(539.453125 0)"/>
     <use xlink:href="#DejaVuSerif-6e" transform="translate(598.632812 0)"/>
     <use xlink:href="#DejaVuSerif-61" transform="translate(663.037109 0)"/>
     <use xlink:href="#DejaVuSerif-20" transform="translate(722.65625 0)"/>
     <use xlink:href="#DejaVuSerif-43" transform="translate(754.443359 0)"/>
     <use xlink:href="#DejaVuSerif-6f" transform="translate(830.957031 0)"/>
     <use xlink:href="#DejaVuSerif-6e" transform="translate(891.162109 0)"/>
     <use xlink:href="#DejaVuSerif-74" transform="translate(955.566406 0)"/>
     <use xlink:href="#DejaVuSerif-72" transform="translate(995.751953 0)"/>
     <use xlink:href="#DejaVuSerif-65" transform="translate(1043.554688 0)"/>
     <use xlink:href="#DejaVuSerif-72" transform="translate(1102.734375 0)"/>
     <use xlink:href="#DejaVuSerif-61" transform="translate(1150.537109 0)"/>
     <use xlink:href="#DejaVuSerif-73" transform="translate(1210.15625 0)"/>
    </g>
   </g>
   <g id="text_29">
    <!-- Miguel Hidalgo -->
    <g transform="translate(117.940058 407.21016) scale(0.08 -0.08)">
     <use xlink:href="#DejaVuSerif-4d"/>
     <use xlink:href="#DejaVuSerif-69" transform="translate(102.392578 0)"/>
     <use xlink:href="#DejaVuSerif-67" transform="translate(134.375 0)"/>
     <use xlink:href="#DejaVuSerif-75" transform="translate(198.388672 0)"/>
     <use xlink:href="#DejaVuSerif-65" transform="translate(262.792969 0)"/>
     <use xlink:href="#DejaVuSerif-6c" transform="translate(321.972656 0)"/>
     <use xlink:href="#DejaVuSerif-20" transform="translate(353.955078 0)"/>
     <use xlink:href="#DejaVuSerif-48" transform="translate(385.742188 0)"/>
     <use xlink:href="#DejaVuSerif-69" transform="translate(472.949219 0)"/>
     <use xlink:href="#DejaVuSerif-64" transform="translate(504.931641 0)"/>
     <use xlink:href="#DejaVuSerif-61" transform="translate(568.945312 0)"/>
     <use xlink:href="#DejaVuSerif-6c" transform="translate(628.564453 0)"/>
     <use xlink:href="#DejaVuSerif-67" transform="translate(660.546875 0)"/>
     <use xlink:href="#DejaVuSerif-6f" transform="translate(724.560547 0)"/>
    </g>
   </g>
   <g id="text_30">
    <!-- Milpa Alta -->
    <g transform="translate(593.555815 51.34341) scale(0.08 -0.08)">
     <use xlink:href="#DejaVuSerif-4d"/>
     <use xlink:href="#DejaVuSerif-69" transform="translate(102.392578 0)"/>
     <use xlink:href="#DejaVuSerif-6c" transform="translate(134.375 0)"/>
     <use xlink:href="#DejaVuSerif-70" transform="translate(166.357422 0)"/>
     <use xlink:href="#DejaVuSerif-61" transform="translate(230.371094 0)"/>
     <use xlink:href="#DejaVuSerif-20" transform="translate(289.990234 0)"/>
     <use xlink:href="#DejaVuSerif-41" transform="translate(321.777344 0)"/>
     <use xlink:href="#DejaVuSerif-6c" transform="translate(393.994141 0)"/>
     <use xlink:href="#DejaVuSerif-74" transform="translate(425.976562 0)"/>
     <use xlink:href="#DejaVuSerif-61" transform="translate(466.162109 0)"/>
    </g>
   </g>
   <g id="text_31">
    <!-- Tláhuac -->
    <g transform="translate(470.248026 143.60516) scale(0.08 -0.08)">
     <defs>
      <path id="DejaVuSerif-54" d="M 1222 0 
L 1222 331 
L 1819 331 
L 1819 4294 
L 447 4294 
L 447 3566 
L 63 3566 
L 63 4666 
L 4206 4666 
L 4206 3566 
L 3822 3566 
L 3822 4294 
L 2450 4294 
L 2450 331 
L 3047 331 
L 3047 0 
L 1222 0 
z
" transform="scale(0.015625)"/>
     </defs>
     <use xlink:href="#DejaVuSerif-54"/>
     <use xlink:href="#DejaVuSerif-6c" transform="translate(66.699219 0)"/>
     <use xlink:href="#DejaVuSerif-e1" transform="translate(98.681641 0)"/>
     <use xlink:href="#DejaVuSerif-68" transform="translate(158.300781 0)"/>
     <use xlink:href="#DejaVuSerif-75" transform="translate(222.705078 0)"/>
     <use xlink:href="#DejaVuSerif-61" transform="translate(287.109375 0)"/>
     <use xlink:href="#DejaVuSerif-63" transform="translate(346.728516 0)"/>
    </g>
   </g>
   <g id="text_32">
    <!-- Tlalpan -->
    <g transform="translate(470.248026 262.22741) scale(0.08 -0.08)">
     <use xlink:href="#DejaVuSerif-54"/>
     <use xlink:href="#DejaVuSerif-6c" transform="translate(66.699219 0)"/>
     <use xlink:href="#DejaVuSerif-61" transform="translate(98.681641 0)"/>
     <use xlink:href="#DejaVuSerif-6c" transform="translate(158.300781 0)"/>
     <use xlink:href="#DejaVuSerif-70" transform="translate(190.283203 0)"/>
     <use xlink:href="#DejaVuSerif-61" transform="translate(254.296875 0)"/>
     <use xlink:href="#DejaVuSerif-6e" transform="translate(313.916016 0)"/>
    </g>
   </g>
   <g id="text_33">
    <!-- Venustiano Carranza -->
    <g transform="translate(117.940058 367.66941) scale(0.08 -0.08)">
     <defs>
      <path id="DejaVuSerif-56" d="M 1119 4331 
L 2497 750 
L 3872 4331 
L 3347 4331 
L 3347 4666 
L 4716 4666 
L 4716 4331 
L 4263 4331 
L 2597 0 
L 2059 0 
L 403 4331 
L -63 4331 
L -63 4666 
L 1638 4666 
L 1638 4331 
L 1119 4331 
z
" transform="scale(0.015625)"/>
     </defs>
     <use xlink:href="#DejaVuSerif-56"/>
     <use xlink:href="#DejaVuSerif-65" transform="translate(63.091797 0)"/>
     <use xlink:href="#DejaVuSerif-6e" transform="translate(122.271484 0)"/>
     <use xlink:href="#DejaVuSerif-75" transform="translate(186.675781 0)"/>
     <use xlink:href="#DejaVuSerif-73" transform="translate(251.080078 0)"/>
     <use xlink:href="#DejaVuSerif-74" transform="translate(302.398438 0)"/>
     <use xlink:href="#DejaVuSerif-69" transform="translate(342.583984 0)"/>
     <use xlink:href="#DejaVuSerif-61" transform="translate(374.566406 0)"/>
     <use xlink:href="#DejaVuSerif-6e" transform="translate(434.185547 0)"/>
     <use xlink:href="#DejaVuSerif-6f" transform="translate(498.589844 0)"/>
     <use xlink:href="#DejaVuSerif-20" transform="translate(558.794922 0)"/>
     <use xlink:href="#DejaVuSerif-43" transform="translate(590.582031 0)"/>
     <use xlink:href="#DejaVuSerif-61" transform="translate(667.095703 0)"/>
     <use xlink:href="#DejaVuSerif-72" transform="translate(726.714844 0)"/>
     <use xlink:href="#DejaVuSerif-72" transform="translate(774.517578 0)"/>
     <use xlink:href="#DejaVuSerif-61" transform="translate(822.320312 0)"/>
     <use xlink:href="#DejaVuSerif-6e" transform="translate(881.939453 0)"/>
     <use xlink:href="#DejaVuSerif-7a" transform="translate(946.34375 0)"/>
     <use xlink:href="#DejaVuSerif-61" transform="translate(999.029297 0)"/>
    </g>
   </g>
   <g id="text_34">
    <!-- Xochimilco -->
    <g transform="translate(470.248026 143.60516) scale(0.08 -0.08)">
     <defs>
      <path id="DejaVuSerif-58" d="M 2119 1997 
L 978 331 
L 1581 331 
L 1581 0 
L 38 0 
L 38 331 
L 575 331 
L 1919 2291 
L 556 4331 
L 56 4331 
L 56 4666 
L 1906 4666 
L 1906 4331 
L 1356 4331 
L 2356 2828 
L 3384 4331 
L 2784 4331 
L 2784 4666 
L 4313 4666 
L 4313 4331 
L 3788 4331 
L 2553 2534 
L 4025 331 
L 4525 331 
L 4525 0 
L 2675 0 
L 2675 331 
L 3231 331 
L 2119 1997 
z
" transform="scale(0.015625)"/>
     </defs>
     <use xlink:href="#DejaVuSerif-58"/>
     <use xlink:href="#DejaVuSerif-6f" transform="translate(71.191406 0)"/>
     <use xlink:href="#DejaVuSerif-63" transform="translate(131.396484 0)"/>
     <use xlink:href="#DejaVuSerif-68" transform="translate(187.402344 0)"/>
     <use xlink:href="#DejaVuSerif-69" transform="translate(251.806641 0)"/>
     <use xlink:href="#DejaVuSerif-6d" transform="translate(283.789062 0)"/>
     <use xlink:href="#DejaVuSerif-69" transform="translate(378.613281 0)"/>
     <use xlink:href="#DejaVuSerif-6c" transform="translate(410.595703 0)"/>
     <use xlink:href="#DejaVuSerif-63" transform="translate(442.578125 0)"/>
     <use xlink:href="#DejaVuSerif-6f" transform="translate(498.583984 0)"/>
    </g>
   </g>
   <g id="text_35">
    <!-- Mexico City persistence: persons_per_dwelling rank -->
    <g transform="translate(167.412625 20.500875) scale(0.12 -0.12)">
     <defs>
      <path id="DejaVuSerif-78" d="M 1863 2028 
L 2559 2988 
L 2113 2988 
L 2113 3322 
L 3391 3322 
L 3391 2988 
L 2950 2988 
L 2059 1759 
L 3097 331 
L 3531 331 
L 3531 0 
L 1997 0 
L 1997 331 
L 2419 331 
L 1697 1325 
L 972 331 
L 1403 331 
L 1403 0 
L 141 0 
L 141 331 
L 581 331 
L 1497 1594 
L 488 2988 
L 78 2988 
L 78 3322 
L 1563 3322 
L 1563 2988 
L 1166 2988 
L 1863 2028 
z
" transform="scale(0.015625)"/>
      <path id="DejaVuSerif-3a" d="M 666 325 
Q 666 500 786 622 
Q 906 744 1081 744 
Q 1256 744 1376 622 
Q 1497 500 1497 325 
Q 1497 150 1378 29 
Q 1259 -91 1081 -91 
Q 903 -91 784 29 
Q 666 150 666 325 
z
M 666 2363 
Q 666 2538 786 2658 
Q 906 2778 1081 2778 
Q 1259 2778 1378 2659 
Q 1497 2541 1497 2363 
Q 1497 2184 1378 2065 
Q 1259 1947 1081 1947 
Q 906 1947 786 2067 
Q 666 2188 666 2363 
z
" transform="scale(0.015625)"/>
      <path id="DejaVuSerif-5f" d="M 3200 -1259 
L 3200 -1509 
L 0 -1509 
L 0 -1259 
L 3200 -1259 
z
" transform="scale(0.015625)"/>
      <path id="DejaVuSerif-77" d="M 3072 3322 
L 3922 728 
L 4672 2988 
L 4191 2988 
L 4191 3322 
L 5394 3322 
L 5394 2988 
L 5025 2988 
L 4038 0 
L 3559 0 
L 2741 2484 
L 1919 0 
L 1459 0 
L 475 2988 
L 103 2988 
L 103 3322 
L 1606 3322 
L 1606 2988 
L 1069 2988 
L 1813 728 
L 2669 3322 
L 3072 3322 
z
" transform="scale(0.015625)"/>
     </defs>
     <use xlink:href="#DejaVuSerif-4d"/>
     <use xlink:href="#DejaVuSerif-65" transform="translate(102.392578 0)"/>
     <use xlink:href="#DejaVuSerif-78" transform="translate(161.572266 0)"/>
     <use xlink:href="#DejaVuSerif-69" transform="translate(217.96875 0)"/>
     <use xlink:href="#DejaVuSerif-63" transform="translate(249.951172 0)"/>
     <use xlink:href="#DejaVuSerif-6f" transform="translate(305.957031 0)"/>
     <use xlink:href="#DejaVuSerif-20" transform="translate(366.162109 0)"/>
     <use xlink:href="#DejaVuSerif-43" transform="translate(397.949219 0)"/>
     <use xlink:href="#DejaVuSerif-69" transform="translate(474.462891 0)"/>
     <use xlink:href="#DejaVuSerif-74" transform="translate(506.445312 0)"/>
     <use xlink:href="#DejaVuSerif-79" transform="translate(546.630859 0)"/>
     <use xlink:href="#DejaVuSerif-20" transform="translate(603.125 0)"/>
     <use xlink:href="#DejaVuSerif-70" transform="translate(634.912109 0)"/>
     <use xlink:href="#DejaVuSerif-65" transform="translate(698.925781 0)"/>
     <use xlink:href="#DejaVuSerif-72" transform="translate(758.105469 0)"/>
     <use xlink:href="#DejaVuSerif-73" transform="translate(805.908203 0)"/>
     <use xlink:href="#DejaVuSerif-69" transform="translate(857.226562 0)"/>
     <use xlink:href="#DejaVuSerif-73" transform="translate(889.208984 0)"/>
     <use xlink:href="#DejaVuSerif-74" transform="translate(940.527344 0)"/>
     <use xlink:href="#DejaVuSerif-65" transform="translate(980.712891 0)"/>
     <use xlink:href="#DejaVuSerif-6e" transform="translate(1039.892578 0)"/>
     <use xlink:href="#DejaVuSerif-63" transform="translate(1104.296875 0)"/>
     <use xlink:href="#DejaVuSerif-65" transform="translate(1160.302734 0)"/>
     <use xlink:href="#DejaVuSerif-3a" transform="translate(1219.482422 0)"/>
     <use xlink:href="#DejaVuSerif-20" transform="translate(1253.173828 0)"/>
     <use xlink:href="#DejaVuSerif-70" transform="translate(1284.960938 0)"/>
     <use xlink:href="#DejaVuSerif-65" transform="translate(1348.974609 0)"/>
     <use xlink:href="#DejaVuSerif-72" transform="translate(1408.154297 0)"/>
     <use xlink:href="#DejaVuSerif-73" transform="translate(1455.957031 0)"/>
     <use xlink:href="#DejaVuSerif-6f" transform="translate(1507.275391 0)"/>
     <use xlink:href="#DejaVuSerif-6e" transform="translate(1567.480469 0)"/>
     <use xlink:href="#DejaVuSerif-73" transform="translate(1631.884766 0)"/>
     <use xlink:href="#DejaVuSerif-5f" transform="translate(1683.203125 0)"/>
     <use xlink:href="#DejaVuSerif-70" transform="translate(1733.203125 0)"/>
     <use xlink:href="#DejaVuSerif-65" transform="translate(1797.216797 0)"/>
     <use xlink:href="#DejaVuSerif-72" transform="translate(1856.396484 0)"/>
     <use xlink:href="#DejaVuSerif-5f" transform="translate(1904.199219 0)"/>
     <use xlink:href="#DejaVuSerif-64" transform="translate(1954.199219 0)"/>
     <use xlink:href="#DejaVuSerif-77" transform="translate(2018.212891 0)"/>
     <use xlink:href="#DejaVuSerif-65" transform="translate(2103.808594 0)"/>
     <use xlink:href="#DejaVuSerif-6c" transform="translate(2162.988281 0)"/>
     <use xlink:href="#DejaVuSerif-6c" transform="translate(2194.970703 0)"/>
     <use xlink:href="#DejaVuSerif-69" transform="translate(2226.953125 0)"/>
     <use xlink:href="#DejaVuSerif-6e" transform="translate(2258.935547 0)"/>
     <use xlink:href="#DejaVuSerif-67" transform="translate(2323.339844 0)"/>
     <use xlink:href="#DejaVuSerif-20" transform="translate(2387.353516 0)"/>
     <use xlink:href="#DejaVuSerif-72" transform="translate(2419.140625 0)"/>
     <use xlink:href="#DejaVuSerif-61" transform="translate(2466.943359 0)"/>
     <use xlink:href="#DejaVuSerif-6e" transform="translate(2526.5625 0)"/>
     <use xlink:href="#DejaVuSerif-6b" transform="translate(2590.966797 0)"/>
    </g>
    <!-- Spearman r=0.88, p=5.26e-06 -->
    <g transform="translate(233.0095 34.272) scale(0.12 -0.12)">
     <defs>
      <path id="DejaVuSerif-53" d="M 594 225 
L 594 1288 
L 953 1284 
Q 969 753 1261 498 
Q 1553 244 2150 244 
Q 2706 244 2998 464 
Q 3291 684 3291 1106 
Q 3291 1444 3114 1625 
Q 2938 1806 2369 1978 
L 1753 2163 
Q 1084 2366 811 2669 
Q 538 2972 538 3500 
Q 538 4094 959 4422 
Q 1381 4750 2144 4750 
Q 2469 4750 2856 4679 
Q 3244 4609 3681 4475 
L 3681 3481 
L 3328 3481 
Q 3275 3975 2998 4195 
Q 2722 4416 2156 4416 
Q 1663 4416 1405 4214 
Q 1147 4013 1147 3628 
Q 1147 3294 1340 3103 
Q 1534 2913 2163 2725 
L 2741 2553 
Q 3375 2363 3645 2067 
Q 3916 1772 3916 1275 
Q 3916 597 3481 253 
Q 3047 -91 2188 -91 
Q 1803 -91 1404 -12 
Q 1006 66 594 225 
z
" transform="scale(0.015625)"/>
      <path id="DejaVuSerif-3d" d="M 678 2894 
L 4684 2894 
L 4684 2394 
L 678 2394 
L 678 2894 
z
M 678 1619 
L 4684 1619 
L 4684 1119 
L 678 1119 
L 678 1619 
z
" transform="scale(0.015625)"/>
      <path id="DejaVuSerif-2c" d="M 231 -622 
Q 525 -406 662 -114 
Q 800 178 800 594 
L 800 709 
L 1416 709 
Q 1391 175 1164 -208 
Q 938 -591 481 -872 
L 231 -622 
z
" transform="scale(0.015625)"/>
      <path id="DejaVuSerif-35" d="M 3219 4666 
L 3219 4153 
L 1081 4153 
L 1081 2816 
Q 1244 2928 1461 2984 
Q 1678 3041 1947 3041 
Q 2703 3041 3140 2622 
Q 3578 2203 3578 1478 
Q 3578 738 3136 323 
Q 2694 -91 1894 -91 
Q 1572 -91 1234 -12 
Q 897 66 544 225 
L 544 1131 
L 897 1131 
Q 925 688 1179 453 
Q 1434 219 1894 219 
Q 2388 219 2653 544 
Q 2919 869 2919 1478 
Q 2919 2084 2655 2407 
Q 2391 2731 1894 2731 
Q 1613 2731 1398 2631 
Q 1184 2531 1019 2322 
L 750 2322 
L 750 4666 
L 3219 4666 
z
" transform="scale(0.015625)"/>
      <path id="DejaVuSerif-2d" d="M 281 1959 
L 1881 1959 
L 1881 1472 
L 281 1472 
L 281 1959 
z
" transform="scale(0.015625)"/>
     </defs>
     <use xlink:href="#DejaVuSerif-53"/>
     <use xlink:href="#DejaVuSerif-70" transform="translate(68.505859 0)"/>
     <use xlink:href="#DejaVuSerif-65" transform="translate(132.519531 0)"/>
     <use xlink:href="#DejaVuSerif-61" transform="translate(191.699219 0)"/>
     <use xlink:href="#DejaVuSerif-72" transform="translate(251.318359 0)"/>
     <use xlink:href="#DejaVuSerif-6d" transform="translate(299.121094 0)"/>
     <use xlink:href="#DejaVuSerif-61" transform="translate(393.945312 0)"/>
     <use xlink:href="#DejaVuSerif-6e" transform="translate(453.564453 0)"/>
     <use xlink:href="#DejaVuSerif-20" transform="translate(517.96875 0)"/>
     <use xlink:href="#DejaVuSerif-72" transform="translate(549.755859 0)"/>
     <use xlink:href="#DejaVuSerif-3d" transform="translate(597.558594 0)"/>
     <use xlink:href="#DejaVuSerif-30" transform="translate(681.347656 0)"/>
     <use xlink:href="#DejaVuSerif-2e" transform="translate(744.970703 0)"/>
     <use xlink:href="#DejaVuSerif-38" transform="translate(776.757812 0)"/>
     <use xlink:href="#DejaVuSerif-38" transform="translate(840.380859 0)"/>
     <use xlink:href="#DejaVuSerif-2c" transform="translate(904.003906 0)"/>
     <use xlink:href="#DejaVuSerif-20" transform="translate(935.791016 0)"/>
     <use xlink:href="#DejaVuSerif-70" transform="translate(967.578125 0)"/>
     <use xlink:href="#DejaVuSerif-3d" transform="translate(1031.591797 0)"/>
     <use xlink:href="#DejaVuSerif-35" transform="translate(1115.380859 0)"/>
     <use xlink:href="#DejaVuSerif-2e" transform="translate(1179.003906 0)"/>
     <use xlink:href="#DejaVuSerif-32" transform="translate(1210.791016 0)"/>
     <use xlink:href="#DejaVuSerif-36" transform="translate(1274.414062 0)"/>
     <use xlink:href="#DejaVuSerif-65" transform="translate(1338.037109 0)"/>
     <use xlink:href="#DejaVuSerif-2d" transform="translate(1397.216797 0)"/>
     <use xlink:href="#DejaVuSerif-30" transform="translate(1431.005859 0)"/>
     <use xlink:href="#DejaVuSerif-36" transform="translate(1494.628906 0)"/>
    </g>
   </g>
  </g>
 </g>
 <defs>
  <clipPath id="p653933181d">
   <rect x="44.66" y="40.272" width="563.69275" height="421.768"/>
  </clipPath>
 </defs>
</svg>
