<?xml version="1.0" encoding="utf-8" standalone="no"?>
<!DOCTYPE svg PUBLIC "-//W3C//DTD SVG 1.1//EN"
  "http://www.w3.org/Graphics/SVG/1.1/DTD/svg11.dtd">
<svg xmlns:xlink="http://www.w3.org/1999/xlink" width="864pt" height="360pt" viewBox="0 0 864 360" xmlns="http://www.w3.org/2000/svg" version="1.1">
 <metadata>
  <rdf:RDF xmlns:dc="http://purl.org/dc/elements/1.1/" xmlns:cc="http://creativecommons.org/ns#" xmlns:rdf="http://www.w3.org/1999/02/22-rdf-syntax-ns#">
   <cc:Work>
    <dc:type rdf:resource="http://purl.org/dc/dcmitype/StillImage"/>
    <dc:date>2026-05-27T19:59:35.857897</dc:date>
    <dc:format>image/svg+xml</dc:format>
    <dc:creator>
     <cc:Agent>
      <dc:title>Matplotlib v3.10.8, https://matplotlib.org/</dc:title>
     </cc:Agent>
    </dc:creator>
   </cc:Work>
  </rdf:RDF>
 </metadata>
 <defs>
  <style type="text/css">*{stroke-linejoin: round; stroke-linecap: butt}</style>
 </defs>
 <g id="figure_1">
  <g id="patch_1">
   <path d="M 0 360 
L 864 360 
L 864 0 
L 0 0 
z
" style="fill: #f1e9d6"/>
  </g>
  <g id="axes_1">
   <g id="patch_2">
    <path d="M 54.30125 318.04 
L 422.894421 318.04 
L 422.894421 26.16 
L 54.30125 26.16 
z
" style="fill: #fbf7eb"/>
   </g>
   <g id="PathCollection_1">
    <defs>
     <path id="m27fcb54ee9" d="M 0 3 
C 0.795609 3 1.55874 2.683901 2.12132 2.12132 
C 2.683901 1.55874 3 0.795609 3 0 
C 3 -0.795609 2.683901 -1.55874 2.12132 -2.12132 
C 1.55874 -2.683901 0.795609 -3 0 -3 
C -0.795609 -3 -1.55874 -2.683901 -2.12132 -2.12132 
C -2.683901 -1.55874 -3 -0.795609 -3 0 
C -3 0.795609 -2.683901 1.55874 -2.12132 2.12132 
C -1.55874 2.683901 -0.795609 3 0 3 
z
" style="stroke: #7a1f2b; stroke-opacity: 0.85"/>
    </defs>
    <g clip-path="url(#p4e68e601f1)">
     <use xlink:href="#m27fcb54ee9" x="406.140186" y="139.667391" style="fill: #7a1f2b; fill-opacity: 0.85; stroke: #7a1f2b; stroke-opacity: 0.85"/>
     <use xlink:href="#m27fcb54ee9" x="150.257323" y="150.654877" style="fill: #7a1f2b; fill-opacity: 0.85; stroke: #7a1f2b; stroke-opacity: 0.85"/>
     <use xlink:href="#m27fcb54ee9" x="213.792864" y="142.218228" style="fill: #7a1f2b; fill-opacity: 0.85; stroke: #7a1f2b; stroke-opacity: 0.85"/>
     <use xlink:href="#m27fcb54ee9" x="261.226932" y="162.314698" style="fill: #7a1f2b; fill-opacity: 0.85; stroke: #7a1f2b; stroke-opacity: 0.85"/>
     <use xlink:href="#m27fcb54ee9" x="140.465887" y="129.521128" style="fill: #7a1f2b; fill-opacity: 0.85; stroke: #7a1f2b; stroke-opacity: 0.85"/>
     <use xlink:href="#m27fcb54ee9" x="238.16266" y="71.711162" style="fill: #7a1f2b; fill-opacity: 0.85; stroke: #7a1f2b; stroke-opacity: 0.85"/>
     <use xlink:href="#m27fcb54ee9" x="240.338535" y="39.427273" style="fill: #7a1f2b; fill-opacity: 0.85; stroke: #7a1f2b; stroke-opacity: 0.85"/>
     <use xlink:href="#m27fcb54ee9" x="275.805292" y="50.50649" style="fill: #7a1f2b; fill-opacity: 0.85; stroke: #7a1f2b; stroke-opacity: 0.85"/>
     <use xlink:href="#m27fcb54ee9" x="187.247193" y="116.185406" style="fill: #7a1f2b; fill-opacity: 0.85; stroke: #7a1f2b; stroke-opacity: 0.85"/>
     <use xlink:href="#m27fcb54ee9" x="129.151339" y="206.5926" style="fill: #7a1f2b; fill-opacity: 0.85; stroke: #7a1f2b; stroke-opacity: 0.85"/>
     <use xlink:href="#m27fcb54ee9" x="189.858243" y="196.989296" style="fill: #7a1f2b; fill-opacity: 0.85; stroke: #7a1f2b; stroke-opacity: 0.85"/>
     <use xlink:href="#m27fcb54ee9" x="71.055485" y="200.465671" style="fill: #7a1f2b; fill-opacity: 0.85; stroke: #7a1f2b; stroke-opacity: 0.85"/>
     <use xlink:href="#m27fcb54ee9" x="97.165981" y="260.049191" style="fill: #7a1f2b; fill-opacity: 0.85; stroke: #7a1f2b; stroke-opacity: 0.85"/>
     <use xlink:href="#m27fcb54ee9" x="120.665428" y="206.724019" style="fill: #7a1f2b; fill-opacity: 0.85; stroke: #7a1f2b; stroke-opacity: 0.85"/>
     <use xlink:href="#m27fcb54ee9" x="127.193052" y="165.373935" style="fill: #7a1f2b; fill-opacity: 0.85; stroke: #7a1f2b; stroke-opacity: 0.85"/>
     <use xlink:href="#m27fcb54ee9" x="85.416258" y="73.570598" style="fill: #7a1f2b; fill-opacity: 0.85; stroke: #7a1f2b; stroke-opacity: 0.85"/>
     <use xlink:href="#m27fcb54ee9" x="110.221229" y="158.234293" style="fill: #7a1f2b; fill-opacity: 0.85; stroke: #7a1f2b; stroke-opacity: 0.85"/>
     <use xlink:href="#m27fcb54ee9" x="131.979976" y="271.686778" style="fill: #7a1f2b; fill-opacity: 0.85; stroke: #7a1f2b; stroke-opacity: 0.85"/>
     <use xlink:href="#m27fcb54ee9" x="128.498577" y="304.772727" style="fill: #7a1f2b; fill-opacity: 0.85; stroke: #7a1f2b; stroke-opacity: 0.85"/>
     <use xlink:href="#m27fcb54ee9" x="311.054462" y="293.098337" style="fill: #7a1f2b; fill-opacity: 0.85; stroke: #7a1f2b; stroke-opacity: 0.85"/>
    </g>
   </g>
   <g id="matplotlib.axis_1">
    <g id="xtick_1">
     <g id="line2d_1">
      <defs>
       <path id="mbc255a2ff8" d="M 0 0 
L 0 3.5 
" style="stroke: #000000; stroke-width: 0.8"/>
      </defs>
      <g>
       <use xlink:href="#mbc255a2ff8" x="94.554932" y="318.04" style="stroke: #000000; stroke-width: 0.8"/>
      </g>
     </g>
     <g id="text_1">
      <!-- 20 -->
      <g transform="translate(88.192432 332.638438) scale(0.1 -0.1)">
       <defs>
        <path id="DejaVuSerif-32" d="M 819 3553 
L 469 3553 
L 469 4384 
Q 803 4563 1142 4656 
Q 1481 4750 1806 4750 
Q 2534 4750 2956 4397 
Q 3378 4044 3378 3438 
Q 3378 2753 2422 1800 
Q 2347 1728 2309 1691 
L 1131 513 
L 3078 513 
L 3078 1088 
L 3444 1088 
L 3444 0 
L 434 0 
L 434 341 
L 1850 1753 
Q 2319 2222 2519 2614 
Q 2719 3006 2719 3438 
Q 2719 3909 2473 4175 
Q 2228 4441 1797 4441 
Q 1350 4441 1106 4219 
Q 863 3997 819 3553 
z
" transform="scale(0.015625)"/>
        <path id="DejaVuSerif-30" d="M 2034 219 
Q 2513 219 2750 744 
Q 2988 1269 2988 2328 
Q 2988 3391 2750 3916 
Q 2513 4441 2034 4441 
Q 1556 4441 1318 3916 
Q 1081 3391 1081 2328 
Q 1081 1269 1318 744 
Q 1556 219 2034 219 
z
M 2034 -91 
Q 1275 -91 848 546 
Q 422 1184 422 2328 
Q 422 3475 848 4112 
Q 1275 4750 2034 4750 
Q 2797 4750 3222 4112 
Q 3647 3475 3647 2328 
Q 3647 1184 3222 546 
Q 2797 -91 2034 -91 
z
" transform="scale(0.015625)"/>
       </defs>
       <use xlink:href="#DejaVuSerif-32"/>
       <use xlink:href="#DejaVuSerif-30" transform="translate(63.623047 0)"/>
      </g>
     </g>
    </g>
    <g id="xtick_2">
     <g id="line2d_2">
      <g>
       <use xlink:href="#mbc255a2ff8" x="138.072425" y="318.04" style="stroke: #000000; stroke-width: 0.8"/>
      </g>
     </g>
     <g id="text_2">
      <!-- 25 -->
      <g transform="translate(131.709925 332.638438) scale(0.1 -0.1)">
       <defs>
        <path id="DejaVuSerif-35" d="M 3219 4666 
L 3219 4153 
L 1081 4153 
L 1081 2816 
Q 1244 2928 1461 2984 
Q 1678 3041 1947 3041 
Q 2703 3041 3140 2622 
Q 3578 2203 3578 1478 
Q 3578 738 3136 323 
Q 2694 -91 1894 -91 
Q 1572 -91 1234 -12 
Q 897 66 544 225 
L 544 1131 
L 897 1131 
Q 925 688 1179 453 
Q 1434 219 1894 219 
Q 2388 219 2653 544 
Q 2919 869 2919 1478 
Q 2919 2084 2655 2407 
Q 2391 2731 1894 2731 
Q 1613 2731 1398 2631 
Q 1184 2531 1019 2322 
L 750 2322 
L 750 4666 
L 3219 4666 
z
" transform="scale(0.015625)"/>
       </defs>
       <use xlink:href="#DejaVuSerif-32"/>
       <use xlink:href="#DejaVuSerif-35" transform="translate(63.623047 0)"/>
      </g>
     </g>
    </g>
    <g id="xtick_3">
     <g id="line2d_3">
      <g>
       <use xlink:href="#mbc255a2ff8" x="181.589919" y="318.04" style="stroke: #000000; stroke-width: 0.8"/>
      </g>
     </g>
     <g id="text_3">
      <!-- 30 -->
      <g transform="translate(175.227419 332.638438) scale(0.1 -0.1)">
       <defs>
        <path id="DejaVuSerif-33" d="M 622 4469 
Q 988 4606 1323 4678 
Q 1659 4750 1953 4750 
Q 2638 4750 3022 4454 
Q 3406 4159 3406 3634 
Q 3406 3213 3140 2930 
Q 2875 2647 2388 2547 
Q 2963 2466 3280 2130 
Q 3597 1794 3597 1259 
Q 3597 606 3158 257 
Q 2719 -91 1894 -91 
Q 1528 -91 1179 -12 
Q 831 66 488 225 
L 488 1131 
L 838 1131 
Q 869 681 1141 450 
Q 1413 219 1906 219 
Q 2384 219 2661 495 
Q 2938 772 2938 1253 
Q 2938 1803 2653 2086 
Q 2369 2369 1819 2369 
L 1522 2369 
L 1522 2688 
L 1678 2688 
Q 2225 2688 2498 2914 
Q 2772 3141 2772 3597 
Q 2772 4006 2547 4223 
Q 2322 4441 1900 4441 
Q 1478 4441 1245 4241 
Q 1013 4041 972 3647 
L 622 3647 
L 622 4469 
z
" transform="scale(0.015625)"/>
       </defs>
       <use xlink:href="#DejaVuSerif-33"/>
       <use xlink:href="#DejaVuSerif-30" transform="translate(63.623047 0)"/>
      </g>
     </g>
    </g>
    <g id="xtick_4">
     <g id="line2d_4">
      <g>
       <use xlink:href="#mbc255a2ff8" x="225.107412" y="318.04" style="stroke: #000000; stroke-width: 0.8"/>
      </g>
     </g>
     <g id="text_4">
      <!-- 35 -->
      <g transform="translate(218.744912 332.638438) scale(0.1 -0.1)">
       <use xlink:href="#DejaVuSerif-33"/>
       <use xlink:href="#DejaVuSerif-35" transform="translate(63.623047 0)"/>
      </g>
     </g>
    </g>
    <g id="xtick_5">
     <g id="line2d_5">
      <g>
       <use xlink:href="#mbc255a2ff8" x="268.624906" y="318.04" style="stroke: #000000; stroke-width: 0.8"/>
      </g>
     </g>
     <g id="text_5">
      <!-- 40 -->
      <g transform="translate(262.262406 332.638438) scale(0.1 -0.1)">
       <defs>
        <path id="DejaVuSerif-34" d="M 2234 1581 
L 2234 4063 
L 641 1581 
L 2234 1581 
z
M 3609 0 
L 1484 0 
L 1484 331 
L 2234 331 
L 2234 1247 
L 197 1247 
L 197 1588 
L 2241 4750 
L 2859 4750 
L 2859 1581 
L 3750 1581 
L 3750 1247 
L 2859 1247 
L 2859 331 
L 3609 331 
L 3609 0 
z
" transform="scale(0.015625)"/>
       </defs>
       <use xlink:href="#DejaVuSerif-34"/>
       <use xlink:href="#DejaVuSerif-30" transform="translate(63.623047 0)"/>
      </g>
     </g>
    </g>
    <g id="xtick_6">
     <g id="line2d_6">
      <g>
       <use xlink:href="#mbc255a2ff8" x="312.142399" y="318.04" style="stroke: #000000; stroke-width: 0.8"/>
      </g>
     </g>
     <g id="text_6">
      <!-- 45 -->
      <g transform="translate(305.779899 332.638438) scale(0.1 -0.1)">
       <use xlink:href="#DejaVuSerif-34"/>
       <use xlink:href="#DejaVuSerif-35" transform="translate(63.623047 0)"/>
      </g>
     </g>
    </g>
    <g id="xtick_7">
     <g id="line2d_7">
      <g>
       <use xlink:href="#mbc255a2ff8" x="355.659893" y="318.04" style="stroke: #000000; stroke-width: 0.8"/>
      </g>
     </g>
     <g id="text_7">
      <!-- 50 -->
      <g transform="translate(349.297393 332.638438) scale(0.1 -0.1)">
       <use xlink:href="#DejaVuSerif-35"/>
       <use xlink:href="#DejaVuSerif-30" transform="translate(63.623047 0)"/>
      </g>
     </g>
    </g>
    <g id="xtick_8">
     <g id="line2d_8">
      <g>
       <use xlink:href="#mbc255a2ff8" x="399.177387" y="318.04" style="stroke: #000000; stroke-width: 0.8"/>
      </g>
     </g>
     <g id="text_8">
      <!-- 55 -->
      <g transform="translate(392.814887 332.638438) scale(0.1 -0.1)">
       <use xlink:href="#DejaVuSerif-35"/>
       <use xlink:href="#DejaVuSerif-35" transform="translate(63.623047 0)"/>
      </g>
     </g>
    </g>
    <g id="text_9">
     <!-- UQI -->
     <g transform="translate(228.309554 346.316563) scale(0.1 -0.1)">
      <defs>
       <path id="DejaVuSerif-55" d="M 897 4331 
L 300 4331 
L 300 4666 
L 2125 4666 
L 2125 4331 
L 1528 4331 
L 1528 1919 
Q 1528 1025 1820 672 
Q 2113 319 2828 319 
Q 3544 319 3836 672 
Q 4128 1025 4128 1919 
L 4128 4331 
L 3531 4331 
L 3531 4666 
L 5106 4666 
L 5106 4331 
L 4513 4331 
L 4513 1856 
Q 4513 791 4103 350 
Q 3694 -91 2713 -91 
Q 1731 -91 1314 353 
Q 897 797 897 1856 
L 897 4331 
z
" transform="scale(0.015625)"/>
       <path id="DejaVuSerif-51" d="M 2700 -91 
Q 1628 -91 993 567 
Q 359 1225 359 2328 
Q 359 2894 529 3339 
Q 700 3784 1050 4134 
Q 1356 4441 1750 4595 
Q 2144 4750 2625 4750 
Q 3641 4750 4266 4084 
Q 4891 3419 4891 2328 
Q 4891 1403 4422 773 
Q 3953 144 3128 -38 
Q 3297 -247 3539 -347 
Q 3781 -447 4122 -447 
L 4219 -447 
L 4219 -1025 
Q 3691 -1000 3314 -767 
Q 2938 -534 2700 -91 
z
M 2625 244 
Q 3391 244 3781 770 
Q 4172 1297 4172 2328 
Q 4172 3363 3781 3889 
Q 3391 4416 2625 4416 
Q 1856 4416 1465 3889 
Q 1075 3363 1075 2328 
Q 1075 1297 1465 770 
Q 1856 244 2625 244 
z
" transform="scale(0.015625)"/>
       <path id="DejaVuSerif-49" d="M 1581 331 
L 2175 331 
L 2175 0 
L 353 0 
L 353 331 
L 947 331 
L 947 4331 
L 353 4331 
L 353 4666 
L 2175 4666 
L 2175 4331 
L 1581 4331 
L 1581 331 
z
" transform="scale(0.015625)"/>
      </defs>
      <use xlink:href="#DejaVuSerif-55"/>
      <use xlink:href="#DejaVuSerif-51" transform="translate(84.277344 0)"/>
      <use xlink:href="#DejaVuSerif-49" transform="translate(166.259766 0)"/>
     </g>
    </g>
   </g>
   <g id="matplotlib.axis_2">
    <g id="ytick_1">
     <g id="line2d_9">
      <defs>
       <path id="mca60ce9c96" d="M 0 0 
L -3.5 0 
" style="stroke: #000000; stroke-width: 0.8"/>
      </defs>
      <g>
       <use xlink:href="#mca60ce9c96" x="54.30125" y="280.602525" style="stroke: #000000; stroke-width: 0.8"/>
      </g>
     </g>
     <g id="text_10">
      <!-- 10.1 -->
      <g transform="translate(25.035625 284.401744) scale(0.1 -0.1)">
       <defs>
        <path id="DejaVuSerif-31" d="M 909 0 
L 909 331 
L 1722 331 
L 1722 4213 
L 781 3603 
L 781 4013 
L 1919 4750 
L 2350 4750 
L 2350 331 
L 3163 331 
L 3163 0 
L 909 0 
z
" transform="scale(0.015625)"/>
        <path id="DejaVuSerif-2e" d="M 603 325 
Q 603 500 722 622 
Q 841 744 1019 744 
Q 1191 744 1312 622 
Q 1434 500 1434 325 
Q 1434 153 1312 31 
Q 1191 -91 1019 -91 
Q 841 -91 722 29 
Q 603 150 603 325 
z
" transform="scale(0.015625)"/>
       </defs>
       <use xlink:href="#DejaVuSerif-31"/>
       <use xlink:href="#DejaVuSerif-30" transform="translate(63.623047 0)"/>
       <use xlink:href="#DejaVuSerif-2e" transform="translate(127.246094 0)"/>
       <use xlink:href="#DejaVuSerif-31" transform="translate(159.033203 0)"/>
      </g>
     </g>
    </g>
    <g id="ytick_2">
     <g id="line2d_10">
      <g>
       <use xlink:href="#mca60ce9c96" x="54.30125" y="241.879838" style="stroke: #000000; stroke-width: 0.8"/>
      </g>
     </g>
     <g id="text_11">
      <!-- 10.2 -->
      <g transform="translate(25.035625 245.679057) scale(0.1 -0.1)">
       <use xlink:href="#DejaVuSerif-31"/>
       <use xlink:href="#DejaVuSerif-30" transform="translate(63.623047 0)"/>
       <use xlink:href="#DejaVuSerif-2e" transform="translate(127.246094 0)"/>
       <use xlink:href="#DejaVuSerif-32" transform="translate(159.033203 0)"/>
      </g>
     </g>
    </g>
    <g id="ytick_3">
     <g id="line2d_11">
      <g>
       <use xlink:href="#mca60ce9c96" x="54.30125" y="203.157152" style="stroke: #000000; stroke-width: 0.8"/>
      </g>
     </g>
     <g id="text_12">
      <!-- 10.3 -->
      <g transform="translate(25.035625 206.956371) scale(0.1 -0.1)">
       <use xlink:href="#DejaVuSerif-31"/>
       <use xlink:href="#DejaVuSerif-30" transform="translate(63.623047 0)"/>
       <use xlink:href="#DejaVuSerif-2e" transform="translate(127.246094 0)"/>
       <use xlink:href="#DejaVuSerif-33" transform="translate(159.033203 0)"/>
      </g>
     </g>
    </g>
    <g id="ytick_4">
     <g id="line2d_12">
      <g>
       <use xlink:href="#mca60ce9c96" x="54.30125" y="164.434466" style="stroke: #000000; stroke-width: 0.8"/>
      </g>
     </g>
     <g id="text_13">
      <!-- 10.4 -->
      <g transform="translate(25.035625 168.233685) scale(0.1 -0.1)">
       <use xlink:href="#DejaVuSerif-31"/>
       <use xlink:href="#DejaVuSerif-30" transform="translate(63.623047 0)"/>
       <use xlink:href="#DejaVuSerif-2e" transform="translate(127.246094 0)"/>
       <use xlink:href="#DejaVuSerif-34" transform="translate(159.033203 0)"/>
      </g>
     </g>
    </g>
    <g id="ytick_5">
     <g id="line2d_13">
      <g>
       <use xlink:href="#mca60ce9c96" x="54.30125" y="125.711779" style="stroke: #000000; stroke-width: 0.8"/>
      </g>
     </g>
     <g id="text_14">
      <!-- 10.5 -->
      <g transform="translate(25.035625 129.510998) scale(0.1 -0.1)">
       <use xlink:href="#DejaVuSerif-31"/>
       <use xlink:href="#DejaVuSerif-30" transform="translate(63.623047 0)"/>
       <use xlink:href="#DejaVuSerif-2e" transform="translate(127.246094 0)"/>
       <use xlink:href="#DejaVuSerif-35" transform="translate(159.033203 0)"/>
      </g>
     </g>
    </g>
    <g id="ytick_6">
     <g id="line2d_14">
      <g>
       <use xlink:href="#mca60ce9c96" x="54.30125" y="86.989093" style="stroke: #000000; stroke-width: 0.8"/>
      </g>
     </g>
     <g id="text_15">
      <!-- 10.6 -->
      <g transform="translate(25.035625 90.788312) scale(0.1 -0.1)">
       <defs>
        <path id="DejaVuSerif-36" d="M 2094 219 
Q 2534 219 2771 542 
Q 3009 866 3009 1472 
Q 3009 2078 2771 2401 
Q 2534 2725 2094 2725 
Q 1647 2725 1412 2412 
Q 1178 2100 1178 1509 
Q 1178 888 1415 553 
Q 1653 219 2094 219 
z
M 1075 2569 
Q 1288 2803 1556 2918 
Q 1825 3034 2163 3034 
Q 2859 3034 3264 2615 
Q 3669 2197 3669 1472 
Q 3669 763 3233 336 
Q 2797 -91 2069 -91 
Q 1278 -91 853 498 
Q 428 1088 428 2181 
Q 428 3406 931 4078 
Q 1434 4750 2350 4750 
Q 2597 4750 2869 4703 
Q 3141 4656 3425 4563 
L 3425 3794 
L 3072 3794 
Q 3034 4109 2831 4275 
Q 2628 4441 2284 4441 
Q 1678 4441 1381 3981 
Q 1084 3522 1075 2569 
z
" transform="scale(0.015625)"/>
       </defs>
       <use xlink:href="#DejaVuSerif-31"/>
       <use xlink:href="#DejaVuSerif-30" transform="translate(63.623047 0)"/>
       <use xlink:href="#DejaVuSerif-2e" transform="translate(127.246094 0)"/>
       <use xlink:href="#DejaVuSerif-36" transform="translate(159.033203 0)"/>
      </g>
     </g>
    </g>
    <g id="ytick_7">
     <g id="line2d_15">
      <g>
       <use xlink:href="#mca60ce9c96" x="54.30125" y="48.266407" style="stroke: #000000; stroke-width: 0.8"/>
      </g>
     </g>
     <g id="text_16">
      <!-- 10.7 -->
      <g transform="translate(25.035625 52.065626) scale(0.1 -0.1)">
       <defs>
        <path id="DejaVuSerif-37" d="M 3609 4347 
L 1784 0 
L 1319 0 
L 3059 4153 
L 903 4153 
L 903 3578 
L 538 3578 
L 538 4666 
L 3609 4666 
L 3609 4347 
z
" transform="scale(0.015625)"/>
       </defs>
       <use xlink:href="#DejaVuSerif-31"/>
       <use xlink:href="#DejaVuSerif-30" transform="translate(63.623047 0)"/>
       <use xlink:href="#DejaVuSerif-2e" transform="translate(127.246094 0)"/>
       <use xlink:href="#DejaVuSerif-37" transform="translate(159.033203 0)"/>
      </g>
     </g>
    </g>
    <g id="text_17">
     <!-- log(outcome) -->
     <g transform="translate(18.81375 205.5625) rotate(-90) scale(0.1 -0.1)">
      <defs>
       <path id="DejaVuSerif-6c" d="M 1313 331 
L 1856 331 
L 1856 0 
L 184 0 
L 184 331 
L 738 331 
L 738 4531 
L 184 4531 
L 184 4863 
L 1313 4863 
L 1313 331 
z
" transform="scale(0.015625)"/>
       <path id="DejaVuSerif-6f" d="M 1925 219 
Q 2388 219 2623 584 
Q 2859 950 2859 1663 
Q 2859 2375 2623 2739 
Q 2388 3103 1925 3103 
Q 1463 3103 1227 2739 
Q 991 2375 991 1663 
Q 991 950 1228 584 
Q 1466 219 1925 219 
z
M 1925 -91 
Q 1200 -91 759 389 
Q 319 869 319 1663 
Q 319 2456 758 2934 
Q 1197 3413 1925 3413 
Q 2653 3413 3092 2934 
Q 3531 2456 3531 1663 
Q 3531 869 3092 389 
Q 2653 -91 1925 -91 
z
" transform="scale(0.015625)"/>
       <path id="DejaVuSerif-67" d="M 3359 2988 
L 3359 72 
Q 3359 -644 2965 -1033 
Q 2572 -1422 1844 -1422 
Q 1516 -1422 1216 -1362 
Q 916 -1303 641 -1184 
L 641 -488 
L 941 -488 
Q 997 -813 1206 -963 
Q 1416 -1113 1806 -1113 
Q 2313 -1113 2548 -827 
Q 2784 -541 2784 72 
L 2784 519 
Q 2616 206 2355 57 
Q 2094 -91 1709 -91 
Q 1097 -91 708 395 
Q 319 881 319 1663 
Q 319 2444 706 2928 
Q 1094 3413 1709 3413 
Q 2094 3413 2355 3264 
Q 2616 3116 2784 2803 
L 2784 3322 
L 3909 3322 
L 3909 2988 
L 3359 2988 
z
M 2784 1825 
Q 2784 2422 2554 2737 
Q 2325 3053 1888 3053 
Q 1444 3053 1217 2703 
Q 991 2353 991 1663 
Q 991 975 1217 622 
Q 1444 269 1888 269 
Q 2325 269 2554 583 
Q 2784 897 2784 1497 
L 2784 1825 
z
" transform="scale(0.015625)"/>
       <path id="DejaVuSerif-28" d="M 2041 -997 
Q 1281 -656 893 83 
Q 506 822 506 1931 
Q 506 3044 893 3783 
Q 1281 4522 2041 4863 
L 2041 4556 
Q 1559 4225 1350 3623 
Q 1141 3022 1141 1931 
Q 1141 844 1350 242 
Q 1559 -359 2041 -691 
L 2041 -997 
z
" transform="scale(0.015625)"/>
       <path id="DejaVuSerif-75" d="M 2266 3322 
L 3341 3322 
L 3341 331 
L 3884 331 
L 3884 0 
L 2766 0 
L 2766 588 
Q 2606 256 2353 82 
Q 2100 -91 1766 -91 
Q 1213 -91 952 223 
Q 691 538 691 1209 
L 691 2988 
L 172 2988 
L 172 3322 
L 1269 3322 
L 1269 1388 
Q 1269 781 1417 556 
Q 1566 331 1947 331 
Q 2347 331 2556 625 
Q 2766 919 2766 1478 
L 2766 2988 
L 2266 2988 
L 2266 3322 
z
" transform="scale(0.015625)"/>
       <path id="DejaVuSerif-74" d="M 691 2988 
L 184 2988 
L 184 3322 
L 691 3322 
L 691 4353 
L 1269 4353 
L 1269 3322 
L 2350 3322 
L 2350 2988 
L 1269 2988 
L 1269 878 
Q 1269 456 1350 337 
Q 1431 219 1650 219 
Q 1875 219 1978 351 
Q 2081 484 2088 781 
L 2522 781 
Q 2497 328 2275 118 
Q 2053 -91 1600 -91 
Q 1103 -91 897 129 
Q 691 350 691 878 
L 691 2988 
z
" transform="scale(0.015625)"/>
       <path id="DejaVuSerif-63" d="M 3291 997 
Q 3169 466 2822 187 
Q 2475 -91 1925 -91 
Q 1200 -91 759 389 
Q 319 869 319 1663 
Q 319 2459 759 2936 
Q 1200 3413 1925 3413 
Q 2241 3413 2553 3339 
Q 2866 3266 3181 3116 
L 3181 2266 
L 2847 2266 
Q 2781 2703 2561 2903 
Q 2341 3103 1931 3103 
Q 1466 3103 1228 2742 
Q 991 2381 991 1663 
Q 991 944 1227 581 
Q 1463 219 1931 219 
Q 2303 219 2525 412 
Q 2747 606 2828 997 
L 3291 997 
z
" transform="scale(0.015625)"/>
       <path id="DejaVuSerif-6d" d="M 3316 2675 
Q 3481 3041 3739 3227 
Q 3997 3413 4341 3413 
Q 4863 3413 5119 3089 
Q 5375 2766 5375 2113 
L 5375 331 
L 5894 331 
L 5894 0 
L 4300 0 
L 4300 331 
L 4800 331 
L 4800 2047 
Q 4800 2556 4650 2772 
Q 4500 2988 4153 2988 
Q 3769 2988 3567 2697 
Q 3366 2406 3366 1850 
L 3366 331 
L 3866 331 
L 3866 0 
L 2291 0 
L 2291 331 
L 2791 331 
L 2791 2069 
Q 2791 2566 2641 2777 
Q 2491 2988 2144 2988 
Q 1759 2988 1557 2697 
Q 1356 2406 1356 1850 
L 1356 331 
L 1856 331 
L 1856 0 
L 263 0 
L 263 331 
L 781 331 
L 781 2994 
L 231 2994 
L 231 3322 
L 1356 3322 
L 1356 2731 
Q 1516 3063 1762 3238 
Q 2009 3413 2322 3413 
Q 2709 3413 2968 3220 
Q 3228 3028 3316 2675 
z
" transform="scale(0.015625)"/>
       <path id="DejaVuSerif-65" d="M 3469 1600 
L 991 1600 
L 991 1575 
Q 991 903 1244 561 
Q 1497 219 1991 219 
Q 2369 219 2611 417 
Q 2853 616 2950 1006 
L 3413 1006 
Q 3275 459 2904 184 
Q 2534 -91 1931 -91 
Q 1203 -91 761 389 
Q 319 869 319 1663 
Q 319 2450 753 2931 
Q 1188 3413 1894 3413 
Q 2647 3413 3050 2948 
Q 3453 2484 3469 1600 
z
M 2791 1931 
Q 2772 2513 2545 2808 
Q 2319 3103 1894 3103 
Q 1497 3103 1269 2806 
Q 1041 2509 991 1931 
L 2791 1931 
z
" transform="scale(0.015625)"/>
       <path id="DejaVuSerif-29" d="M 453 -997 
L 453 -691 
Q 934 -359 1145 242 
Q 1356 844 1356 1931 
Q 1356 3022 1145 3623 
Q 934 4225 453 4556 
L 453 4863 
Q 1216 4522 1603 3783 
Q 1991 3044 1991 1931 
Q 1991 822 1603 83 
Q 1216 -656 453 -997 
z
" transform="scale(0.015625)"/>
      </defs>
      <use xlink:href="#DejaVuSerif-6c"/>
      <use xlink:href="#DejaVuSerif-6f" transform="translate(31.982422 0)"/>
      <use xlink:href="#DejaVuSerif-67" transform="translate(92.1875 0)"/>
      <use xlink:href="#DejaVuSerif-28" transform="translate(156.201172 0)"/>
      <use xlink:href="#DejaVuSerif-6f" transform="translate(195.214844 0)"/>
      <use xlink:href="#DejaVuSerif-75" transform="translate(255.419922 0)"/>
      <use xlink:href="#DejaVuSerif-74" transform="translate(319.824219 0)"/>
      <use xlink:href="#DejaVuSerif-63" transform="translate(360.009766 0)"/>
      <use xlink:href="#DejaVuSerif-6f" transform="translate(416.015625 0)"/>
      <use xlink:href="#DejaVuSerif-6d" transform="translate(476.220703 0)"/>
      <use xlink:href="#DejaVuSerif-65" transform="translate(571.044922 0)"/>
      <use xlink:href="#DejaVuSerif-29" transform="translate(630.224609 0)"/>
     </g>
    </g>
   </g>
   <g id="line2d_16">
    <path d="M 71.055485 191.608323 
L 74.440179 190.848894 
L 77.824873 190.089466 
L 81.209567 189.330038 
L 84.594261 188.57061 
L 87.978955 187.811182 
L 91.363649 187.051754 
L 94.748343 186.292326 
L 98.133037 185.532898 
L 101.517731 184.773469 
L 104.902424 184.014041 
L 108.287118 183.254613 
L 111.671812 182.495185 
L 115.056506 181.735757 
L 118.4412 180.976329 
L 121.825894 180.216901 
L 125.210588 179.457472 
L 128.595282 178.698044 
L 131.979976 177.938616 
L 135.36467 177.179188 
L 138.749364 176.41976 
L 142.134058 175.660332 
L 145.518752 174.900904 
L 148.903446 174.141475 
L 152.28814 173.382047 
L 155.672834 172.622619 
L 159.057528 171.863191 
L 162.442222 171.103763 
L 165.826916 170.344335 
L 169.211609 169.584907 
L 172.596303 168.825479 
L 175.980997 168.06605 
L 179.365691 167.306622 
L 182.750385 166.547194 
L 186.135079 165.787766 
L 189.519773 165.028338 
L 192.904467 164.26891 
L 196.289161 163.509482 
L 199.673855 162.750053 
L 203.058549 161.990625 
L 206.443243 161.231197 
L 209.827937 160.471769 
L 213.212631 159.712341 
L 216.597325 158.952913 
L 219.982019 158.193485 
L 223.366713 157.434057 
L 226.751407 156.674628 
L 230.1361 155.9152 
L 233.520794 155.155772 
L 236.905488 154.396344 
L 240.290182 153.636916 
L 243.674876 152.877488 
L 247.05957 152.11806 
L 250.444264 151.358631 
L 253.828958 150.599203 
L 257.213652 149.839775 
L 260.598346 149.080347 
L 263.98304 148.320919 
L 267.367734 147.561491 
L 270.752428 146.802063 
L 274.137122 146.042635 
L 277.521816 145.283206 
L 280.90651 144.523778 
L 284.291204 143.76435 
L 287.675898 143.004922 
L 291.060591 142.245494 
L 294.445285 141.486066 
L 297.829979 140.726638 
L 301.214673 139.967209 
L 304.599367 139.207781 
L 307.984061 138.448353 
L 311.368755 137.688925 
L 314.753449 136.929497 
L 318.138143 136.170069 
L 321.522837 135.410641 
L 324.907531 134.651212 
L 328.292225 133.891784 
L 331.676919 133.132356 
L 335.061613 132.372928 
L 338.446307 131.6135 
L 341.831001 130.854072 
L 345.215695 130.094644 
L 348.600389 129.335216 
L 351.985083 128.575787 
L 355.369776 127.816359 
L 358.75447 127.056931 
L 362.139164 126.297503 
L 365.523858 125.538075 
L 368.908552 124.778647 
L 372.293246 124.019219 
L 375.67794 123.25979 
L 379.062634 122.500362 
L 382.447328 121.740934 
L 385.832022 120.981506 
L 389.216716 120.222078 
L 392.60141 119.46265 
L 395.986104 118.703222 
L 399.370798 117.943794 
L 402.755492 117.184365 
L 406.140186 116.424937 
" clip-path="url(#p4e68e601f1)" style="fill: none; stroke: #2a2218; stroke-width: 1.5; stroke-linecap: square"/>
   </g>
   <g id="patch_3">
    <path d="M 54.30125 318.04 
L 54.30125 26.16 
" style="fill: none; stroke: #000000; stroke-width: 0.8; stroke-linejoin: miter; stroke-linecap: square"/>
   </g>
   <g id="patch_4">
    <path d="M 422.894421 318.04 
L 422.894421 26.16 
" style="fill: none; stroke: #000000; stroke-width: 0.8; stroke-linejoin: miter; stroke-linecap: square"/>
   </g>
   <g id="patch_5">
    <path d="M 54.30125 318.04 
L 422.894421 318.04 
" style="fill: none; stroke: #000000; stroke-width: 0.8; stroke-linejoin: miter; stroke-linecap: square"/>
   </g>
   <g id="patch_6">
    <path d="M 54.30125 26.16 
L 422.894421 26.16 
" style="fill: none; stroke: #000000; stroke-width: 0.8; stroke-linejoin: miter; stroke-linecap: square"/>
   </g>
   <g id="text_18">
    <!-- Paris -->
    <g transform="translate(223.387835 20.16) scale(0.12 -0.12)">
     <defs>
      <path id="DejaVuSerif-50" d="M 1581 2375 
L 2406 2375 
Q 2872 2375 3115 2626 
Q 3359 2878 3359 3353 
Q 3359 3831 3115 4081 
Q 2872 4331 2406 4331 
L 1581 4331 
L 1581 2375 
z
M 353 0 
L 353 331 
L 947 331 
L 947 4331 
L 353 4331 
L 353 4666 
L 2559 4666 
Q 3259 4666 3668 4311 
Q 4078 3956 4078 3353 
Q 4078 2753 3668 2397 
Q 3259 2041 2559 2041 
L 1581 2041 
L 1581 331 
L 2303 331 
L 2303 0 
L 353 0 
z
" transform="scale(0.015625)"/>
      <path id="DejaVuSerif-61" d="M 2547 1044 
L 2547 1747 
L 1806 1747 
Q 1378 1747 1168 1562 
Q 959 1378 959 997 
Q 959 650 1171 447 
Q 1384 244 1747 244 
Q 2106 244 2326 466 
Q 2547 688 2547 1044 
z
M 3122 2075 
L 3122 331 
L 3634 331 
L 3634 0 
L 2547 0 
L 2547 359 
Q 2356 128 2106 18 
Q 1856 -91 1522 -91 
Q 969 -91 644 203 
Q 319 497 319 997 
Q 319 1513 691 1797 
Q 1063 2081 1741 2081 
L 2547 2081 
L 2547 2309 
Q 2547 2688 2317 2895 
Q 2088 3103 1672 3103 
Q 1328 3103 1125 2947 
Q 922 2791 872 2484 
L 575 2484 
L 575 3156 
Q 875 3284 1158 3348 
Q 1441 3413 1709 3413 
Q 2400 3413 2761 3070 
Q 3122 2728 3122 2075 
z
" transform="scale(0.015625)"/>
      <path id="DejaVuSerif-72" d="M 3059 3328 
L 3059 2497 
L 2728 2497 
Q 2713 2744 2591 2866 
Q 2469 2988 2234 2988 
Q 1809 2988 1582 2694 
Q 1356 2400 1356 1850 
L 1356 331 
L 2022 331 
L 2022 0 
L 263 0 
L 263 331 
L 781 331 
L 781 2994 
L 231 2994 
L 231 3322 
L 1356 3322 
L 1356 2731 
Q 1525 3078 1790 3245 
Q 2056 3413 2438 3413 
Q 2578 3413 2733 3391 
Q 2888 3369 3059 3328 
z
" transform="scale(0.015625)"/>
      <path id="DejaVuSerif-69" d="M 622 4353 
Q 622 4497 726 4603 
Q 831 4709 978 4709 
Q 1122 4709 1226 4603 
Q 1331 4497 1331 4353 
Q 1331 4206 1228 4103 
Q 1125 4000 978 4000 
Q 831 4000 726 4103 
Q 622 4206 622 4353 
z
M 1356 331 
L 1900 331 
L 1900 0 
L 231 0 
L 231 331 
L 781 331 
L 781 2988 
L 231 2988 
L 231 3322 
L 1356 3322 
L 1356 331 
z
" transform="scale(0.015625)"/>
      <path id="DejaVuSerif-73" d="M 359 184 
L 359 959 
L 691 959 
Q 703 588 923 403 
Q 1144 219 1575 219 
Q 1963 219 2166 364 
Q 2369 509 2369 788 
Q 2369 1006 2220 1140 
Q 2072 1275 1594 1428 
L 1178 1569 
Q 750 1706 558 1912 
Q 366 2119 366 2438 
Q 366 2894 700 3153 
Q 1034 3413 1625 3413 
Q 1888 3413 2178 3344 
Q 2469 3275 2778 3144 
L 2778 2419 
L 2447 2419 
Q 2434 2741 2221 2922 
Q 2009 3103 1644 3103 
Q 1281 3103 1095 2975 
Q 909 2847 909 2591 
Q 909 2381 1050 2254 
Q 1191 2128 1613 1997 
L 2069 1856 
Q 2541 1709 2748 1489 
Q 2956 1269 2956 922 
Q 2956 450 2595 179 
Q 2234 -91 1600 -91 
Q 1278 -91 972 -22 
Q 666 47 359 184 
z
" transform="scale(0.015625)"/>
     </defs>
     <use xlink:href="#DejaVuSerif-50"/>
     <use xlink:href="#DejaVuSerif-61" transform="translate(62.785156 0)"/>
     <use xlink:href="#DejaVuSerif-72" transform="translate(122.404297 0)"/>
     <use xlink:href="#DejaVuSerif-69" transform="translate(170.207031 0)"/>
     <use xlink:href="#DejaVuSerif-73" transform="translate(202.189453 0)"/>
    </g>
   </g>
  </g>
  <g id="axes_2">
   <g id="patch_7">
    <path d="M 479.265671 318.04 
L 847.858841 318.04 
L 847.858841 26.16 
L 479.265671 26.16 
z
" style="fill: #fbf7eb"/>
   </g>
   <g id="PathCollection_2">
    <defs>
     <path id="mccb927feb8" d="M 0 3 
C 0.795609 3 1.55874 2.683901 2.12132 2.12132 
C 2.683901 1.55874 3 0.795609 3 0 
C 3 -0.795609 2.683901 -1.55874 2.12132 -2.12132 
C 1.55874 -2.683901 0.795609 -3 0 -3 
C -0.795609 -3 -1.55874 -2.683901 -2.12132 -2.12132 
C -2.683901 -1.55874 -3 -0.795609 -3 0 
C -3 0.795609 -2.683901 1.55874 -2.12132 2.12132 
C -1.55874 2.683901 -0.795609 3 0 3 
z
" style="stroke: #2d5a3d; stroke-opacity: 0.85"/>
    </defs>
    <g clip-path="url(#pfe2f9cfa31)">
     <use xlink:href="#mccb927feb8" x="601.853588" y="240.201335" style="fill: #2d5a3d; fill-opacity: 0.85; stroke: #2d5a3d; stroke-opacity: 0.85"/>
     <use xlink:href="#mccb927feb8" x="694.969535" y="186.729472" style="fill: #2d5a3d; fill-opacity: 0.85; stroke: #2d5a3d; stroke-opacity: 0.85"/>
     <use xlink:href="#mccb927feb8" x="702.710766" y="39.427273" style="fill: #2d5a3d; fill-opacity: 0.85; stroke: #2d5a3d; stroke-opacity: 0.85"/>
     <use xlink:href="#mccb927feb8" x="769.395939" y="186.729472" style="fill: #2d5a3d; fill-opacity: 0.85; stroke: #2d5a3d; stroke-opacity: 0.85"/>
     <use xlink:href="#mccb927feb8" x="591.347632" y="257.010987" style="fill: #2d5a3d; fill-opacity: 0.85; stroke: #2d5a3d; stroke-opacity: 0.85"/>
     <use xlink:href="#mccb927feb8" x="831.104606" y="107.050862" style="fill: #2d5a3d; fill-opacity: 0.85; stroke: #2d5a3d; stroke-opacity: 0.85"/>
     <use xlink:href="#mccb927feb8" x="655.157491" y="205.09102" style="fill: #2d5a3d; fill-opacity: 0.85; stroke: #2d5a3d; stroke-opacity: 0.85"/>
     <use xlink:href="#mccb927feb8" x="678.823539" y="205.09102" style="fill: #2d5a3d; fill-opacity: 0.85; stroke: #2d5a3d; stroke-opacity: 0.85"/>
     <use xlink:href="#mccb927feb8" x="605.171259" y="240.201335" style="fill: #2d5a3d; fill-opacity: 0.85; stroke: #2d5a3d; stroke-opacity: 0.85"/>
     <use xlink:href="#mccb927feb8" x="556.401505" y="222.904378" style="fill: #2d5a3d; fill-opacity: 0.85; stroke: #2d5a3d; stroke-opacity: 0.85"/>
     <use xlink:href="#mccb927feb8" x="784.657222" y="107.050862" style="fill: #2d5a3d; fill-opacity: 0.85; stroke: #2d5a3d; stroke-opacity: 0.85"/>
     <use xlink:href="#mccb927feb8" x="496.019906" y="304.772727" style="fill: #2d5a3d; fill-opacity: 0.85; stroke: #2d5a3d; stroke-opacity: 0.85"/>
     <use xlink:href="#mccb927feb8" x="578.519307" y="240.201335" style="fill: #2d5a3d; fill-opacity: 0.85; stroke: #2d5a3d; stroke-opacity: 0.85"/>
     <use xlink:href="#mccb927feb8" x="591.458221" y="205.09102" style="fill: #2d5a3d; fill-opacity: 0.85; stroke: #2d5a3d; stroke-opacity: 0.85"/>
     <use xlink:href="#mccb927feb8" x="759.111161" y="148.21913" style="fill: #2d5a3d; fill-opacity: 0.85; stroke: #2d5a3d; stroke-opacity: 0.85"/>
     <use xlink:href="#mccb927feb8" x="532.293101" y="240.201335" style="fill: #2d5a3d; fill-opacity: 0.85; stroke: #2d5a3d; stroke-opacity: 0.85"/>
    </g>
   </g>
   <g id="matplotlib.axis_3">
    <g id="xtick_9">
     <g id="line2d_17">
      <g>
       <use xlink:href="#mbc255a2ff8" x="514.930626" y="318.04" style="stroke: #000000; stroke-width: 0.8"/>
      </g>
     </g>
     <g id="text_19">
      <!-- 20 -->
      <g transform="translate(508.568126 332.638438) scale(0.1 -0.1)">
       <use xlink:href="#DejaVuSerif-32"/>
       <use xlink:href="#DejaVuSerif-30" transform="translate(63.623047 0)"/>
      </g>
     </g>
    </g>
    <g id="xtick_10">
     <g id="line2d_18">
      <g>
       <use xlink:href="#mbc255a2ff8" x="570.225131" y="318.04" style="stroke: #000000; stroke-width: 0.8"/>
      </g>
     </g>
     <g id="text_20">
      <!-- 30 -->
      <g transform="translate(563.862631 332.638438) scale(0.1 -0.1)">
       <use xlink:href="#DejaVuSerif-33"/>
       <use xlink:href="#DejaVuSerif-30" transform="translate(63.623047 0)"/>
      </g>
     </g>
    </g>
    <g id="xtick_11">
     <g id="line2d_19">
      <g>
       <use xlink:href="#mbc255a2ff8" x="625.519637" y="318.04" style="stroke: #000000; stroke-width: 0.8"/>
      </g>
     </g>
     <g id="text_21">
      <!-- 40 -->
      <g transform="translate(619.157137 332.638438) scale(0.1 -0.1)">
       <use xlink:href="#DejaVuSerif-34"/>
       <use xlink:href="#DejaVuSerif-30" transform="translate(63.623047 0)"/>
      </g>
     </g>
    </g>
    <g id="xtick_12">
     <g id="line2d_20">
      <g>
       <use xlink:href="#mbc255a2ff8" x="680.814142" y="318.04" style="stroke: #000000; stroke-width: 0.8"/>
      </g>
     </g>
     <g id="text_22">
      <!-- 50 -->
      <g transform="translate(674.451642 332.638438) scale(0.1 -0.1)">
       <use xlink:href="#DejaVuSerif-35"/>
       <use xlink:href="#DejaVuSerif-30" transform="translate(63.623047 0)"/>
      </g>
     </g>
    </g>
    <g id="xtick_13">
     <g id="line2d_21">
      <g>
       <use xlink:href="#mbc255a2ff8" x="736.108647" y="318.04" style="stroke: #000000; stroke-width: 0.8"/>
      </g>
     </g>
     <g id="text_23">
      <!-- 60 -->
      <g transform="translate(729.746147 332.638438) scale(0.1 -0.1)">
       <use xlink:href="#DejaVuSerif-36"/>
       <use xlink:href="#DejaVuSerif-30" transform="translate(63.623047 0)"/>
      </g>
     </g>
    </g>
    <g id="xtick_14">
     <g id="line2d_22">
      <g>
       <use xlink:href="#mbc255a2ff8" x="791.403152" y="318.04" style="stroke: #000000; stroke-width: 0.8"/>
      </g>
     </g>
     <g id="text_24">
      <!-- 70 -->
      <g transform="translate(785.040652 332.638438) scale(0.1 -0.1)">
       <use xlink:href="#DejaVuSerif-37"/>
       <use xlink:href="#DejaVuSerif-30" transform="translate(63.623047 0)"/>
      </g>
     </g>
    </g>
    <g id="xtick_15">
     <g id="line2d_23">
      <g>
       <use xlink:href="#mbc255a2ff8" x="846.697657" y="318.04" style="stroke: #000000; stroke-width: 0.8"/>
      </g>
     </g>
     <g id="text_25">
      <!-- 80 -->
      <g transform="translate(840.335157 332.638438) scale(0.1 -0.1)">
       <defs>
        <path id="DejaVuSerif-38" d="M 2981 1275 
Q 2981 1775 2732 2051 
Q 2484 2328 2034 2328 
Q 1584 2328 1336 2051 
Q 1088 1775 1088 1275 
Q 1088 772 1336 495 
Q 1584 219 2034 219 
Q 2484 219 2732 495 
Q 2981 772 2981 1275 
z
M 2853 3541 
Q 2853 3966 2637 4203 
Q 2422 4441 2034 4441 
Q 1650 4441 1433 4203 
Q 1216 3966 1216 3541 
Q 1216 3113 1433 2875 
Q 1650 2638 2034 2638 
Q 2422 2638 2637 2875 
Q 2853 3113 2853 3541 
z
M 2516 2484 
Q 3047 2413 3344 2092 
Q 3641 1772 3641 1275 
Q 3641 619 3225 264 
Q 2809 -91 2034 -91 
Q 1263 -91 845 264 
Q 428 619 428 1275 
Q 428 1772 725 2092 
Q 1022 2413 1556 2484 
Q 1084 2569 832 2842 
Q 581 3116 581 3541 
Q 581 4103 968 4426 
Q 1356 4750 2034 4750 
Q 2713 4750 3100 4426 
Q 3488 4103 3488 3541 
Q 3488 3116 3236 2842 
Q 2984 2569 2516 2484 
z
" transform="scale(0.015625)"/>
       </defs>
       <use xlink:href="#DejaVuSerif-38"/>
       <use xlink:href="#DejaVuSerif-30" transform="translate(63.623047 0)"/>
      </g>
     </g>
    </g>
    <g id="text_26">
     <!-- UQI -->
     <g transform="translate(653.273975 346.316563) scale(0.1 -0.1)">
      <use xlink:href="#DejaVuSerif-55"/>
      <use xlink:href="#DejaVuSerif-51" transform="translate(84.277344 0)"/>
      <use xlink:href="#DejaVuSerif-49" transform="translate(166.259766 0)"/>
     </g>
    </g>
   </g>
   <g id="matplotlib.axis_4">
    <g id="ytick_8">
     <g id="line2d_24">
      <g>
       <use xlink:href="#mca60ce9c96" x="479.265671" y="268.387823" style="stroke: #000000; stroke-width: 0.8"/>
      </g>
     </g>
     <g id="text_27">
      <!-- −1.3 -->
      <g transform="translate(447.982858 272.187041) scale(0.1 -0.1)">
       <defs>
        <path id="DejaVuSerif-2212" d="M 678 2259 
L 4684 2259 
L 4684 1753 
L 678 1753 
L 678 2259 
z
" transform="scale(0.015625)"/>
       </defs>
       <use xlink:href="#DejaVuSerif-2212"/>
       <use xlink:href="#DejaVuSerif-31" transform="translate(83.789062 0)"/>
       <use xlink:href="#DejaVuSerif-2e" transform="translate(147.412109 0)"/>
       <use xlink:href="#DejaVuSerif-33" transform="translate(179.199219 0)"/>
      </g>
     </g>
    </g>
    <g id="ytick_9">
     <g id="line2d_25">
      <g>
       <use xlink:href="#mca60ce9c96" x="479.265671" y="208.717502" style="stroke: #000000; stroke-width: 0.8"/>
      </g>
     </g>
     <g id="text_28">
      <!-- −1.2 -->
      <g transform="translate(447.982858 212.516721) scale(0.1 -0.1)">
       <use xlink:href="#DejaVuSerif-2212"/>
       <use xlink:href="#DejaVuSerif-31" transform="translate(83.789062 0)"/>
       <use xlink:href="#DejaVuSerif-2e" transform="translate(147.412109 0)"/>
       <use xlink:href="#DejaVuSerif-32" transform="translate(179.199219 0)"/>
      </g>
     </g>
    </g>
    <g id="ytick_10">
     <g id="line2d_26">
      <g>
       <use xlink:href="#mca60ce9c96" x="479.265671" y="149.047182" style="stroke: #000000; stroke-width: 0.8"/>
      </g>
     </g>
     <g id="text_29">
      <!-- −1.1 -->
      <g transform="translate(447.982858 152.8464) scale(0.1 -0.1)">
       <use xlink:href="#DejaVuSerif-2212"/>
       <use xlink:href="#DejaVuSerif-31" transform="translate(83.789062 0)"/>
       <use xlink:href="#DejaVuSerif-2e" transform="translate(147.412109 0)"/>
       <use xlink:href="#DejaVuSerif-31" transform="translate(179.199219 0)"/>
      </g>
     </g>
    </g>
    <g id="ytick_11">
     <g id="line2d_27">
      <g>
       <use xlink:href="#mca60ce9c96" x="479.265671" y="89.376861" style="stroke: #000000; stroke-width: 0.8"/>
      </g>
     </g>
     <g id="text_30">
      <!-- −1.0 -->
      <g transform="translate(447.982858 93.17608) scale(0.1 -0.1)">
       <use xlink:href="#DejaVuSerif-2212"/>
       <use xlink:href="#DejaVuSerif-31" transform="translate(83.789062 0)"/>
       <use xlink:href="#DejaVuSerif-2e" transform="translate(147.412109 0)"/>
       <use xlink:href="#DejaVuSerif-30" transform="translate(179.199219 0)"/>
      </g>
     </g>
    </g>
    <g id="ytick_12">
     <g id="line2d_28">
      <g>
       <use xlink:href="#mca60ce9c96" x="479.265671" y="29.706541" style="stroke: #000000; stroke-width: 0.8"/>
      </g>
     </g>
     <g id="text_31">
      <!-- −0.9 -->
      <g transform="translate(447.982858 33.50576) scale(0.1 -0.1)">
       <defs>
        <path id="DejaVuSerif-39" d="M 2994 2091 
Q 2784 1856 2512 1740 
Q 2241 1625 1900 1625 
Q 1206 1625 804 2044 
Q 403 2463 403 3188 
Q 403 3897 839 4323 
Q 1275 4750 2003 4750 
Q 2794 4750 3217 4161 
Q 3641 3572 3641 2478 
Q 3641 1253 3137 581 
Q 2634 -91 1722 -91 
Q 1475 -91 1203 -44 
Q 931 3 647 97 
L 647 872 
L 997 872 
Q 1038 556 1241 387 
Q 1444 219 1784 219 
Q 2391 219 2687 676 
Q 2984 1134 2994 2091 
z
M 1978 4441 
Q 1534 4441 1298 4117 
Q 1063 3794 1063 3188 
Q 1063 2581 1298 2256 
Q 1534 1931 1978 1931 
Q 2422 1931 2658 2245 
Q 2894 2559 2894 3150 
Q 2894 3772 2656 4106 
Q 2419 4441 1978 4441 
z
" transform="scale(0.015625)"/>
       </defs>
       <use xlink:href="#DejaVuSerif-2212"/>
       <use xlink:href="#DejaVuSerif-30" transform="translate(83.789062 0)"/>
       <use xlink:href="#DejaVuSerif-2e" transform="translate(147.412109 0)"/>
       <use xlink:href="#DejaVuSerif-39" transform="translate(179.199219 0)"/>
      </g>
     </g>
    </g>
    <g id="text_32">
     <!-- log(outcome) -->
     <g transform="translate(441.760983 205.5625) rotate(-90) scale(0.1 -0.1)">
      <use xlink:href="#DejaVuSerif-6c"/>
      <use xlink:href="#DejaVuSerif-6f" transform="translate(31.982422 0)"/>
      <use xlink:href="#DejaVuSerif-67" transform="translate(92.1875 0)"/>
      <use xlink:href="#DejaVuSerif-28" transform="translate(156.201172 0)"/>
      <use xlink:href="#DejaVuSerif-6f" transform="translate(195.214844 0)"/>
      <use xlink:href="#DejaVuSerif-75" transform="translate(255.419922 0)"/>
      <use xlink:href="#DejaVuSerif-74" transform="translate(319.824219 0)"/>
      <use xlink:href="#DejaVuSerif-63" transform="translate(360.009766 0)"/>
      <use xlink:href="#DejaVuSerif-6f" transform="translate(416.015625 0)"/>
      <use xlink:href="#DejaVuSerif-6d" transform="translate(476.220703 0)"/>
      <use xlink:href="#DejaVuSerif-65" transform="translate(571.044922 0)"/>
      <use xlink:href="#DejaVuSerif-29" transform="translate(630.224609 0)"/>
     </g>
    </g>
   </g>
   <g id="line2d_29">
    <path d="M 496.019906 280.277141 
L 499.4046 278.446126 
L 502.789294 276.615111 
L 506.173988 274.784097 
L 509.558681 272.953082 
L 512.943375 271.122067 
L 516.328069 269.291053 
L 519.712763 267.460038 
L 523.097457 265.629024 
L 526.482151 263.798009 
L 529.866845 261.966994 
L 533.251539 260.13598 
L 536.636233 258.304965 
L 540.020927 256.473951 
L 543.405621 254.642936 
L 546.790315 252.811921 
L 550.175009 250.980907 
L 553.559703 249.149892 
L 556.944397 247.318877 
L 560.329091 245.487863 
L 563.713785 243.656848 
L 567.098479 241.825834 
L 570.483173 239.994819 
L 573.867866 238.163804 
L 577.25256 236.33279 
L 580.637254 234.501775 
L 584.021948 232.67076 
L 587.406642 230.839746 
L 590.791336 229.008731 
L 594.17603 227.177717 
L 597.560724 225.346702 
L 600.945418 223.515687 
L 604.330112 221.684673 
L 607.714806 219.853658 
L 611.0995 218.022644 
L 614.484194 216.191629 
L 617.868888 214.360614 
L 621.253582 212.5296 
L 624.638276 210.698585 
L 628.02297 208.86757 
L 631.407664 207.036556 
L 634.792357 205.205541 
L 638.177051 203.374527 
L 641.561745 201.543512 
L 644.946439 199.712497 
L 648.331133 197.881483 
L 651.715827 196.050468 
L 655.100521 194.219453 
L 658.485215 192.388439 
L 661.869909 190.557424 
L 665.254603 188.72641 
L 668.639297 186.895395 
L 672.023991 185.06438 
L 675.408685 183.233366 
L 678.793379 181.402351 
L 682.178073 179.571337 
L 685.562767 177.740322 
L 688.947461 175.909307 
L 692.332155 174.078293 
L 695.716848 172.247278 
L 699.101542 170.416263 
L 702.486236 168.585249 
L 705.87093 166.754234 
L 709.255624 164.92322 
L 712.640318 163.092205 
L 716.025012 161.26119 
L 719.409706 159.430176 
L 722.7944 157.599161 
L 726.179094 155.768146 
L 729.563788 153.937132 
L 732.948482 152.106117 
L 736.333176 150.275103 
L 739.71787 148.444088 
L 743.102564 146.613073 
L 746.487258 144.782059 
L 749.871952 142.951044 
L 753.256646 141.120029 
L 756.64134 139.289015 
L 760.026033 137.458 
L 763.410727 135.626986 
L 766.795421 133.795971 
L 770.180115 131.964956 
L 773.564809 130.133942 
L 776.949503 128.302927 
L 780.334197 126.471913 
L 783.718891 124.640898 
L 787.103585 122.809883 
L 790.488279 120.978869 
L 793.872973 119.147854 
L 797.257667 117.316839 
L 800.642361 115.485825 
L 804.027055 113.65481 
L 807.411749 111.823796 
L 810.796443 109.992781 
L 814.181137 108.161766 
L 817.565831 106.330752 
L 820.950524 104.499737 
L 824.335218 102.668722 
L 827.719912 100.837708 
L 831.104606 99.006693 
" clip-path="url(#pfe2f9cfa31)" style="fill: none; stroke: #2a2218; stroke-width: 1.5; stroke-linecap: square"/>
   </g>
   <g id="patch_8">
    <path d="M 479.265671 318.04 
L 479.265671 26.16 
" style="fill: none; stroke: #000000; stroke-width: 0.8; stroke-linejoin: miter; stroke-linecap: square"/>
   </g>
   <g id="patch_9">
    <path d="M 847.858841 318.04 
L 847.858841 26.16 
" style="fill: none; stroke: #000000; stroke-width: 0.8; stroke-linejoin: miter; stroke-linecap: square"/>
   </g>
   <g id="patch_10">
    <path d="M 479.265671 318.04 
L 847.858841 318.04 
" style="fill: none; stroke: #000000; stroke-width: 0.8; stroke-linejoin: miter; stroke-linecap: square"/>
   </g>
   <g id="patch_11">
    <path d="M 479.265671 26.16 
L 847.858841 26.16 
" style="fill: none; stroke: #000000; stroke-width: 0.8; stroke-linejoin: miter; stroke-linecap: square"/>
   </g>
   <g id="text_33">
    <!-- Mexico City -->
    <g transform="translate(627.374756 20.16) scale(0.12 -0.12)">
     <defs>
      <path id="DejaVuSerif-4d" d="M 353 0 
L 353 331 
L 947 331 
L 947 4331 
L 319 4331 
L 319 4666 
L 1678 4666 
L 3316 1344 
L 4953 4666 
L 6228 4666 
L 6228 4331 
L 5606 4331 
L 5606 331 
L 6203 331 
L 6203 0 
L 4378 0 
L 4378 331 
L 4972 331 
L 4972 3938 
L 3372 684 
L 2931 684 
L 1331 3938 
L 1331 331 
L 1925 331 
L 1925 0 
L 353 0 
z
" transform="scale(0.015625)"/>
      <path id="DejaVuSerif-78" d="M 1863 2028 
L 2559 2988 
L 2113 2988 
L 2113 3322 
L 3391 3322 
L 3391 2988 
L 2950 2988 
L 2059 1759 
L 3097 331 
L 3531 331 
L 3531 0 
L 1997 0 
L 1997 331 
L 2419 331 
L 1697 1325 
L 972 331 
L 1403 331 
L 1403 0 
L 141 0 
L 141 331 
L 581 331 
L 1497 1594 
L 488 2988 
L 78 2988 
L 78 3322 
L 1563 3322 
L 1563 2988 
L 1166 2988 
L 1863 2028 
z
" transform="scale(0.015625)"/>
      <path id="DejaVuSerif-20" transform="scale(0.015625)"/>
      <path id="DejaVuSerif-43" d="M 4513 1234 
Q 4306 581 3820 245 
Q 3334 -91 2591 -91 
Q 2134 -91 1743 65 
Q 1353 222 1050 525 
Q 700 875 529 1320 
Q 359 1766 359 2328 
Q 359 3416 987 4083 
Q 1616 4750 2644 4750 
Q 3025 4750 3456 4650 
Q 3888 4550 4384 4347 
L 4384 3272 
L 4031 3272 
Q 3916 3859 3567 4137 
Q 3219 4416 2591 4416 
Q 1844 4416 1459 3886 
Q 1075 3356 1075 2328 
Q 1075 1303 1459 773 
Q 1844 244 2591 244 
Q 3113 244 3450 492 
Q 3788 741 3938 1234 
L 4513 1234 
z
" transform="scale(0.015625)"/>
      <path id="DejaVuSerif-79" d="M 1381 -609 
L 1600 -56 
L 359 2988 
L -19 2988 
L -19 3322 
L 1509 3322 
L 1509 2988 
L 978 2988 
L 1913 703 
L 2847 2988 
L 2350 2988 
L 2350 3322 
L 3597 3322 
L 3597 2988 
L 3225 2988 
L 1703 -750 
Q 1547 -1138 1356 -1280 
Q 1166 -1422 819 -1422 
Q 672 -1422 517 -1397 
Q 363 -1372 206 -1325 
L 206 -691 
L 500 -691 
Q 519 -903 608 -995 
Q 697 -1088 884 -1088 
Q 1056 -1088 1161 -992 
Q 1266 -897 1381 -609 
z
" transform="scale(0.015625)"/>
     </defs>
     <use xlink:href="#DejaVuSerif-4d"/>
     <use xlink:href="#DejaVuSerif-65" transform="translate(102.392578 0)"/>
     <use xlink:href="#DejaVuSerif-78" transform="translate(161.572266 0)"/>
     <use xlink:href="#DejaVuSerif-69" transform="translate(217.96875 0)"/>
     <use xlink:href="#DejaVuSerif-63" transform="translate(249.951172 0)"/>
     <use xlink:href="#DejaVuSerif-6f" transform="translate(305.957031 0)"/>
     <use xlink:href="#DejaVuSerif-20" transform="translate(366.162109 0)"/>
     <use xlink:href="#DejaVuSerif-43" transform="translate(397.949219 0)"/>
     <use xlink:href="#DejaVuSerif-69" transform="translate(474.462891 0)"/>
     <use xlink:href="#DejaVuSerif-74" transform="translate(506.445312 0)"/>
     <use xlink:href="#DejaVuSerif-79" transform="translate(546.630859 0)"/>
    </g>
   </g>
  </g>
 </g>
 <defs>
  <clipPath id="p4e68e601f1">
   <rect x="54.30125" y="26.16" width="368.593171" height="291.88"/>
  </clipPath>
  <clipPath id="pfe2f9cfa31">
   <rect x="479.265671" y="26.16" width="368.593171" height="291.88"/>
  </clipPath>
 </defs>
</svg>
